<?xml version="1.0" standalone="no"?>
<!DOCTYPE svg PUBLIC "-//W3C//DTD SVG 1.1//EN" "http://www.w3.org/Graphics/SVG/1.1/DTD/svg11.dtd" >
<svg xmlns="http://www.w3.org/2000/svg" xmlns:xlink="http://www.w3.org/1999/xlink" version="1.1">
<metadata>
Created by FontForge 20170731 at Tue Sep  9 20:55:51 2014
 By Aleksey,,,
Copyright (c) 2014 by Fontfabric. All rights reserved.
</metadata>
<defs>
<font id="NexaRustSans-Black" horiz-adv-x="894" >
  <font-face 
    font-family="Nexa Rust Sans Black"
    font-weight="900"
    font-stretch="normal"
    units-per-em="1000"
    panose-1="0 0 10 0 0 0 0 0 0 0"
    ascent="800"
    descent="-200"
    x-height="722"
    cap-height="724"
    bbox="-118 -335 1299 1037"
    underline-thickness="50"
    underline-position="-200"
    unicode-range="U+0020-25CA"
  />
<missing-glyph horiz-adv-x="500" 
d="M0 0v700h500v-700h-500zM250 395l170 255h-340zM280 350l170 -255v510zM80 50h340l-170 255zM50 605v-510l170 255z" />
    <glyph glyph-name=".notdef" horiz-adv-x="500" 
d="M0 0v700h500v-700h-500zM250 395l170 255h-340zM280 350l170 -255v510zM80 50h340l-170 255zM50 605v-510l170 255z" />
    <glyph glyph-name=".null" horiz-adv-x="0" 
 />
    <glyph glyph-name="nonmarkingreturn" horiz-adv-x="333" 
 />
    <glyph glyph-name="space" unicode=" " horiz-adv-x="400" 
 />
    <glyph glyph-name="exclam" unicode="!" horiz-adv-x="333" 
d="M243 541l-1 -23l-2 -15l-1 -22l-1 -16l4 -60l-1 -16l-1 -22l-2 -15l-1 -23v-15l1 -22l1 -16l-2 -22l-1 -13l-7 -8l-14 -4l-24 -1l-16 -1l-25 1h-40l-16 1l-24 4l-13 3l-8 6l-2 12l-3 98v15l-1 23v15l-2 60v16l1 22v15l2 23v15l-2 60v16l-2 22l1 15l1 23l4 12l8 7l13 2
l26 1l16 1l26 -2l16 1l26 3l17 1h25l15 -3l7 -9l2 -14l2 -23v-15l-2 -22v-54l1 -22zM249 98l1 -17l-2 -16l-5 -16l-7 -15l-10 -14l-12 -12l-14 -9l-15 -4l-16 -3h-36l-8 1l-15 1l-6 2l-16 5l-16 9l-13 10l-4 6l-9 11l-3 6l-6 13l-3 6l-3 14v21l1 6l3 13l3 7l6 12l4 5l9 11
l4 6l13 11l16 11l15 7l6 2l15 3l7 1h17l17 -3l16 -6l14 -8l13 -9l13 -10l10 -12l8 -14l5 -16z" />
    <glyph glyph-name="quotedbl" unicode="&#x22;" horiz-adv-x="458" 
d="M166 527l2 -25v-18l-2 -25l-2 -14l-9 -7l-13 -3l-28 -2l-14 1h-14l-28 -2l-14 1l-12 3l-7 9l-2 14l-2 25v18l2 25v17l-1 26v60l-2 25l1 17l1 26l3 14l7 7l12 3l28 2l14 -1h14l15 1l16 -1h9l15 -3l8 -7l2 -15v-43l-2 -25v-18l2 -25v-17l1 -26v-17zM381 527l1 -25v-18
l-1 -25l-3 -14l-9 -7l-13 -3l-28 -2l-14 1h-14l-29 -2l-14 1l-12 3l-7 9l-2 14l-2 25v18l2 25v60l-1 25v18l-2 25l1 17l1 26l3 14l8 7l12 3l28 2l14 -1h14l15 1h14l14 -1l13 -3l7 -7l2 -15v-43l-1 -25v-18l1 -25v-17l1 -26z" />
    <glyph glyph-name="numbersign" unicode="#" horiz-adv-x="746" 
d="M680 547l4 -37l1 -16l-3 -37l-3 -13l-9 -8l-15 -2l-60 4l-13 -2l-7 -8l-5 -13l-5 -17l-4 -16l-3 -17l-4 -16l-14 -52l-5 -12l-2 -9l9 -3l15 -1l30 2l15 -3l9 -9l3 -14l3 -39l-1 -16l-4 -38l-3 -14l-8 -8l-14 -3l-25 2l-16 1l-25 1l-12 -1l-6 -8l-4 -14l-13 -37l-4 -15
l-12 -38l-4 -11l-6 -5l-12 -2l-15 -2l-14 -1h-29l-15 -1l-15 1l-15 3l-14 4l-9 8l-1 13l7 31l4 16l10 30l4 13l-2 8l-10 3l-30 6l-14 1l-30 -2l-12 -3l-7 -7l-4 -13l-10 -37l-4 -16l-11 -37l-4 -12l-7 -5l-12 -2l-29 -2l-15 1l-14 -1l-15 -2h-14l-15 1l-13 4l-7 10v15l6 31
l3 16l8 30l3 14l-2 9l-12 4h-9l-16 1l-9 1l-13 2l-7 6l-3 13l-5 38l-1 16l3 38l3 14l8 8l14 2l31 1h16l30 -1l12 2l4 5l4 12l5 17l4 16l12 51l4 16l3 17l3 15l-1 10l-10 3h-31l-16 -1l-13 2l-6 8l-3 13l-3 38v15l3 37l3 15l6 9l13 3l30 -2h15l30 -2l12 1l8 7l4 12l5 16l4 16
l3 16l2 16l3 17l3 16l5 15l5 12l9 6l12 1l15 1h15l15 -1h15l15 1h14l15 -1l13 -3l7 -9v-13l-6 -30l-12 -40l-3 -15l-6 -28l3 -12l11 -5l30 -3h16l31 4l11 4l3 7l2 13l5 16l4 16l10 48l5 16l5 15l6 12l7 6l13 1l15 1l29 -2h15l29 2l15 -1l13 -3l6 -9v-14l-2 -16l-3 -15
l-4 -15l-5 -16l-6 -15l-4 -16l-3 -15l2 -11l10 -2h15l16 -1l14 -4l8 -8zM311 426l-6 -23l-4 -16l-5 -23l-4 -16l-6 -22l-3 -16l-2 -24v-14l5 -10l13 -5l24 -2h16l25 3l13 3l7 6l4 12l7 22l4 16l4 24l5 16l8 22l5 16l4 22l1 16l-8 10l-15 4l-24 3h-16l-25 -3l-13 -2l-9 -6z
" />
    <glyph glyph-name="dollar" unicode="$" horiz-adv-x="716" 
d="M655 246l1 -23v-14l-5 -22l-4 -15l-5 -17l-12 -36l-6 -15l-9 -15l-11 -14l-13 -11l-13 -10l-19 -11l-28 -17l-15 -8l-19 -9l-15 -6l-17 -5l-16 -5l-21 -5l-5 -1l1 -6v-26l-1 -17l-3 -25l-2 -14l-7 -6l-14 -2l-17 -3l-17 -1h-56l-17 1l-17 3l-13 2l-6 7l-2 13l-2 17l-1 17
l1 17l-2 14l-7 7l-13 4l-24 5l-16 3l-23 8l-15 5l-23 9l-14 7l-22 13l-33 23l-12 11l-19 17l-6 12l3 10l8 11l10 15l11 14l12 13l10 12l12 18l10 13l12 13l12 9l12 1l12 -6l16 -16l13 -10l15 -11l14 -8l21 -9l16 -5l17 -5l16 -2l22 -2l51 3l22 1l16 2l16 4l14 6l18 12l9 12
l5 15v14l-5 15l-10 11l-21 13l-15 7l-16 5l-16 3l-24 5l-16 1l-55 4l-16 3l-17 5l-17 6l-17 7l-15 5l-21 5l-15 5l-16 7l-14 7l-17 14l-12 11l-12 13l-10 14l-8 15l-6 14l-7 21l-4 15l-4 17l-3 15l-3 23v15l4 26l3 15l8 23l6 14l14 19l10 13l46 44l13 10l20 14l15 7l38 12
l24 6l9 2l2 1v8l1 23l1 14l3 22l2 14l6 11l11 3l22 2l14 -1l22 -1l14 -1h22l16 -1l17 -3l14 -3l6 -7l2 -12l2 -22l1 -14l-2 -22l1 -9l3 -4l10 -3l15 -3l45 -12l15 -3l14 -5l15 -5l13 -7l13 -8l12 -9l12 -10l9 -10l3 -10l-6 -12l-9 -13l-33 -39l-9 -14l-11 -13l-11 -12
l-10 -8l-9 -2l-12 5l-23 12l-15 6l-23 8l-16 3l-24 5l-16 1l-26 2h-16l-17 -1l-15 -3l-14 -3l-14 -6l-13 -9l-9 -12l-5 -14v-14l7 -21l9 -11l19 -12l16 -5l17 -3l16 -3l58 -5l35 -4l16 -3l21 -5l15 -4l17 -5l16 -7l45 -27l14 -10l15 -11l13 -11l12 -13l11 -13l11 -14l9 -15
l7 -16l6 -16l3 -17z" />
    <glyph glyph-name="percent" unicode="%" horiz-adv-x="947" 
d="M383 566v-36l-2 -18l-4 -17l-7 -16l-9 -15l-11 -14l-12 -13l-13 -12l-14 -11l-15 -10l-16 -8l-17 -6l-17 -3l-17 -2l-22 -2l-17 1l-19 2l-17 3l-16 4l-17 6l-17 7l-15 9l-13 10l-13 12l-11 14l-9 15l-7 15l-7 17l-4 16l-3 17l-1 18l-1 17l1 18l2 17l4 17l6 16l9 15l11 14
l12 13l26 24l14 10l16 9l16 6l17 4l17 3l19 2h16l6 -1l16 -1l18 -4l16 -4l17 -6l16 -8l15 -9l14 -11l12 -12l11 -14l9 -15l8 -16l12 -32l4 -17zM761 707l-1 -8l-6 -12l-9 -14l-27 -32l-9 -13l-31 -50l-8 -14l-31 -51l-8 -14l-31 -50l-9 -14l-33 -47l-10 -14l-34 -47l-10 -14
l-32 -47l-9 -14l-31 -50l-8 -14l-41 -64l-32 -48l-9 -14l-30 -51l-8 -10l-7 -4h-12l-60 -2l-17 -1l-25 -1h-17l-17 3l-14 7l-6 10v8l4 11l9 14l26 31l9 13l31 51l8 14l30 51l9 14l34 46l9 14l30 51l9 14l76 110l10 14l31 48l10 14l34 47l10 14l32 48l9 14l30 51l8 9l7 2h10
l112 9h15l8 -2l11 -2l7 -6zM247 549v17l-6 15l-12 13l-15 6l-8 2h-14l-7 -2l-14 -6l-12 -13l-6 -15v-17l6 -15l12 -13l14 -6l7 -2h14l8 2l15 6l12 13zM874 172v-36l-2 -18l-4 -17l-7 -17l-9 -15l-11 -14l-12 -13l-13 -12l-14 -11l-15 -9l-16 -8l-17 -7l-16 -3l-18 -2l-19 -1
h-19l-19 2l-17 3l-17 4l-17 6l-17 7l-15 9l-13 11l-13 12l-11 13l-9 15l-14 32l-4 17l-3 17l-1 17v18l1 17l2 18l4 17l6 16l8 15l11 14l12 13l13 12l13 11l14 10l16 9l16 6l17 4l18 3l19 2h19l18 -2l18 -3l16 -4l17 -6l17 -8l15 -10l14 -10l12 -12l11 -14l8 -15l8 -16l7 -16
l6 -17l4 -17zM739 155v17l-6 16l-12 14l-15 7l-8 1h-14l-7 -1l-14 -7l-12 -14l-5 -16v-17l5 -15l12 -11l14 -6l7 -1h14l8 1l15 6l12 11z" />
    <glyph glyph-name="ampersand" unicode="&#x26;" horiz-adv-x="765" 
d="M686 105l1 -9v-16l-1 -9v-16l-2 -36v-18l-1 -2h-1l-9 -1l-16 -2h-35l-17 2l-34 8l-15 7l-14 9l-11 12l-10 14l-9 15l-5 9l-2 2h-5l-8 -8l-13 -12l-20 -14l-14 -10l-17 -9l-16 -8l-22 -10l-14 -5l-6 -1l-16 -4l-19 -2h-80l-25 2l-17 1l-24 4l-16 4l-23 5l-16 6l-15 6l-7 3
l-12 7l-5 3l-11 8l-6 4l-12 11l-14 14l-11 16l-8 14l-2 7l-5 13l-3 6l-4 16l-4 19l-3 16v6l-1 14l-1 8v15l1 15l3 15l4 16l6 14l7 14l9 14l10 12l11 12l11 11l13 10l21 14l1 2v2l-1 2l-7 4l-6 4l-11 9l-6 4l-9 10l-5 6l-9 14l-8 15l-2 7l-5 14l-1 8l-3 14v6l-1 16v18l2 18
l3 17l4 16l5 17l7 16l8 16l9 14l11 13l13 12l13 11l15 10l15 9l15 7l33 12l17 6l51 12l17 3l18 2l17 1h33l25 -2l16 -1l37 -6l21 -3l23 -5l18 -5l15 -7l18 -9l6 -4l14 -8l16 -12l14 -14l10 -13l3 -5l7 -12l3 -6l5 -12l3 -7l5 -15l5 -18l3 -17v-6l1 -14l1 -7v-9l-7 -3h-28
l-38 -2l-8 -1h-18l-25 1l-56 3l-3 1l-2 2l-2 7l-2 8l-5 13l-3 6l-11 13l-14 10l-6 3l-14 4l-6 2l-14 1h-7l-14 -1l-8 -2l-14 -3l-6 -2l-14 -5l-6 -3l-12 -7l-6 -4l-9 -10l-3 -5l-5 -13l-2 -6v-16l4 -17l6 -14l10 -12l12 -9l14 -8l16 -4l15 -2h15l7 -1h14l29 -1h20l7 -1h14
l29 -2h21l7 1l14 1l14 2l14 1l7 1h14l7 -1h14l14 -2l14 -1l7 -1h14l7 1h59v-16l1 -15l2 -13v-68l-1 -14v-15l-3 -1h-11l-16 -1l-13 -2l-27 -2l-1 -9v-23l-1 -12l2 -17l1 -9l6 -16l5 -6l11 -11l8 -4l15 -4l15 -1l9 -1l1 -2v-2l-1 -9l1 -9l1 -16l2 -18zM426 281l-1 8l-2 3
l-9 1h-35l-25 -2h-49l-17 -2l-17 -4l-17 -6l-15 -8l-14 -9l-10 -13l-5 -17l-1 -19l5 -17l8 -14l12 -12l14 -8l16 -5l17 -4l18 -2l16 -1l21 3l6 2l13 5l7 2l12 6l6 4l14 9l11 11l4 6l6 11l3 7l3 13l1 7l1 14l1 15z" />
    <glyph glyph-name="quotesingle" unicode="'" horiz-adv-x="248" 
d="M170 523l1 -25l1 -18l-2 -25l-2 -14l-8 -7l-13 -3l-29 -2l-15 1h-14l-15 -1h-14l-15 1l-12 3l-8 8l-3 14l-1 25v18l1 25l1 16v46l1 25l-1 18l-1 25l-1 18l2 25l2 14l8 7l12 3l29 2l15 -1h14l15 1l29 -2l13 -3l9 -7l2 -14v-42l-2 -70v-45z" />
    <glyph glyph-name="parenleft" unicode="(" horiz-adv-x="413" 
d="M355 9l3 -12l-5 -12l-9 -13l-11 -12l-11 -11l-11 -12l-9 -12l-22 -22l-10 -9l-10 -3l-12 6l-14 11l-29 24l-24 24l-11 12l-36 42l-10 13l-11 14l-18 30l-9 16l-8 16l-14 35l-4 16l-5 17l-6 16l-7 17l-6 16l-5 17l-4 15l-3 22l-2 16l-1 17l-2 18l-3 17l-3 16l-2 22l-1 15
l2 23l1 16l5 40l5 23l3 16l5 22l4 16l7 23l5 15l7 23l7 14l11 21l8 14l14 20l8 13l13 20l9 12l14 20l10 13l13 19l10 13l16 19l11 11l32 22l20 13l12 6l9 -1l9 -8l11 -10l10 -11l9 -12l9 -11l10 -11l9 -12l8 -12l6 -11l-2 -9l-8 -10l-16 -19l-10 -13l-13 -19l-10 -13
l-16 -20l-9 -13l-14 -19l-8 -14l-10 -23l-7 -15l-9 -22l-6 -16l-7 -23l-5 -16l-6 -23l-3 -16l-3 -25l-1 -16l-1 -23l2 -34l4 -34l1 -16l1 -22l1 -15l2 -17l4 -17l6 -17l14 -32l7 -15l18 -30l10 -15l10 -14l9 -15l9 -14l11 -14l22 -26l26 -24z" />
    <glyph glyph-name="parenright" unicode=")" horiz-adv-x="409" 
d="M352 374l1 -22v-14l-1 -22l-2 -15l-3 -17l-4 -16l-6 -21l-4 -15l-5 -17l-5 -16l-18 -52l-6 -15l-7 -17l-8 -16l-8 -15l-18 -30l-9 -16l-9 -15l-20 -30l-11 -14l-12 -13l-12 -12l-25 -23l-26 -26l-17 -14l-10 -5l-10 5l-11 9l-22 22l-20 24l-18 26l-8 13l-6 12v12l7 11
l13 13l11 12l36 40l10 13l20 28l18 30l8 15l7 15l5 17l5 16l12 52l18 102v17l-1 23l-2 16l-5 26l-3 16l-5 23l-4 16l-8 24l-6 15l-10 21l-8 14l-14 21l-7 14l-11 23l-7 14l-12 22l-9 13l-16 18l-11 12l-17 17l-9 11l-2 9l5 10l8 13l9 12l10 11l9 11l9 13l9 12l9 11l11 8
l11 2l12 -7l31 -26l46 -44l28 -28l10 -13l13 -19l9 -14l13 -19l20 -35l18 -36l6 -14l8 -23l5 -15l7 -23l4 -16l5 -22l3 -16l5 -23l2 -16l1 -24l1 -16v-38z" />
    <glyph glyph-name="asterisk" unicode="*" horiz-adv-x="433" 
d="M359 596l7 -34l2 -12l-4 -6l-12 -4l-17 -3l-32 -8l-10 -3l-4 -3l-1 -5v-5l6 -8l15 -16l10 -12l17 -16l7 -10l-1 -7l-8 -9l-26 -22l-42 -27l-11 -6l-8 1l-8 9l-14 21l-9 13l-15 19l-9 9l-6 1l-4 -3l-5 -7l-14 -19l-8 -12l-14 -20l-7 -9l-7 -2l-11 5l-29 18l-39 33l-9 10
l-2 7l6 9l15 16l11 12l11 13l7 9l1 6l-1 5l-4 4l-10 3l-16 3l-16 2l-16 3l-11 4l-3 6l1 11l7 37l16 48l6 11l6 3l11 -4l21 -7l14 -5l21 -8l9 -2h5l5 3l2 4l-1 10l-4 52v12l5 6l12 2l34 2h16l34 -2l12 -2l6 -6v-13l-4 -34l-1 -17v-12l2 -5l3 -3l5 -1l9 3l21 8l14 6l21 10
l11 3l7 -4l5 -12l12 -31z" />
    <glyph glyph-name="plus" unicode="+" horiz-adv-x="540" 
d="M465 384l-1 -25v-17l1 -17l-1 -17l-1 -7l-2 -12l-6 -7l-6 -3l-12 -2l-18 -2l-23 1l-15 1l-23 2h-20l-10 -2l-7 -3l-4 -6l-3 -13v-9l-1 -15l3 -45l-1 -16v-9l-2 -14l-7 -8l-13 -4h-21l-26 1l-16 1l-22 -2l-16 1l-7 2l-13 3l-8 7l-2 14l-1 17l-1 16l3 40l-1 15v6l-4 14
l-8 7l-12 1h-66l-16 1h-9l-15 4l-9 6l-2 13l-1 9l1 17l2 15l1 16l-2 25l2 17l3 14l7 8l13 2h25l33 -2l33 2l12 2l7 2l5 7l2 11l1 14l-1 15l-2 41v25l2 13l4 8l5 4l10 1l7 1l15 -1l25 -3h16l23 2h23l11 -2l7 -4l4 -7l2 -12v-34l-1 -16l-2 -23l1 -14v-8l3 -11l4 -7l6 -3l11 -2
h24l52 3l16 -1l8 -1l13 -2l9 -8l5 -14v-17z" />
    <glyph glyph-name="comma" unicode="," horiz-adv-x="240" 
d="M184 82v-21l-2 -15l-2 -7l-3 -16l-6 -24l-4 -14l-4 -16l-3 -8l-4 -19l-5 -18l-7 -17l-3 -8l-5 -11l-3 -4l-3 -2l-5 -2l-32 -4l-14 -1l-14 1l-7 2l-11 2l-6 3l-4 4l-2 7l1 11l3 14l4 16l5 18l6 27l1 12v5l-2 4l-4 4l-9 7l-12 10l-10 15l-5 15l-2 7l-1 14l1 6l3 16l6 17
l8 14l12 12l16 9l17 6l17 3l18 1l18 -3l16 -6l15 -9l11 -12l8 -13l5 -16z" />
    <glyph glyph-name="hyphen" unicode="-" horiz-adv-x="490" 
d="M411 342l2 -30l-1 -15l-2 -13l-8 -8l-13 -4l-22 -1l-14 -1l-22 2h-15l-56 2h-50l-22 1h-50l-22 -1l-14 -1l-22 -1l-14 -1l-22 2l-12 3l-7 8l-3 13l-1 15v15l1 15v15l-1 15l2 30l3 13l6 7l12 2h36l22 -1h14l22 2h14l22 1h86l56 -2l15 1l22 1l14 1l22 -2l13 -2l7 -8l3 -13
l1 -15l-2 -30v-15z" />
    <glyph glyph-name="period" unicode="." horiz-adv-x="294" 
d="M239 85l1 -17l-3 -16l-5 -16l-7 -15l-9 -14l-13 -12l-14 -8l-15 -5l-16 -2l-18 -1h-18l-7 1l-15 1l-7 2l-16 5l-16 9l-13 10l-4 6l-9 11l-3 6l-6 13l-2 6l-3 14v27l4 13l2 7l7 12l3 6l9 11l4 5l13 11l16 11l15 7l6 3l15 3h24l18 -3l15 -6l14 -8l13 -9l13 -10l11 -12
l7 -14l6 -16z" />
    <glyph glyph-name="slash" unicode="/" horiz-adv-x="541" 
d="M478 782l-2 -13l-6 -21l-5 -14l-10 -20l-6 -15l-22 -52l-5 -15l-8 -21l-5 -14l-7 -21l-6 -15l-18 -54l-6 -16l-24 -52l-6 -16l-20 -54l-12 -36l-4 -14l-8 -21l-5 -14l-7 -20l-6 -14l-8 -21l-5 -14l-8 -21l-5 -14l-7 -21l-6 -15l-22 -52l-6 -16l-24 -52l-5 -15l-8 -21
l-5 -14l-8 -20l-5 -10l-6 -4l-12 -2l-15 -1h-31l-16 -1l-17 -3l-16 -1l-15 1l-13 4l-6 11v15l5 23l4 14l8 20l6 14l10 20l6 14l10 19l5 14l7 21l4 14l8 22l5 14l10 19l6 14l9 20l5 14l8 21l5 14l7 21l5 14l10 35l7 22l5 14l9 20l6 14l10 19l6 15l20 54l6 16l22 52l5 15l6 22
l4 14l7 21l5 14l10 20l6 14l10 19l5 14l6 22l5 14l7 21l6 10l7 4h60l32 2l31 -2l14 -3z" />
    <glyph glyph-name="zero" unicode="0" horiz-adv-x="749" 
d="M675 437l1 -22l1 -16l-1 -34v-59l-1 -22l-1 -15l-1 -22l-3 -15l-4 -23l-10 -32l-7 -15l-10 -20l-9 -14l-10 -15l-10 -14l-11 -14l-12 -12l-16 -17l-12 -9l-20 -10l-13 -7l-20 -9l-14 -6l-21 -8l-14 -5l-22 -5l-15 -3l-17 -2l-17 -1l-24 -2l-16 1l-26 2l-16 2l-54 9l-15 3
l-21 6l-15 6l-22 10l-15 9l-14 9l-13 9l-19 14l-11 10l-15 17l-9 11l-14 19l-7 13l-11 19l-5 14l-7 23l-3 14l-5 22l-2 15l-3 17l-2 16l-1 26l-1 15l1 38v41l2 32l3 16l4 26l4 16l4 22l4 15l6 21l5 15l6 15l7 15l12 22l10 14l16 18l13 11l14 11l13 9l20 11l13 7l35 15l27 10
l15 5l15 4l16 2l26 1h16l51 -2l16 -1l24 -4l16 -2l39 -9l17 -5l16 -6l15 -6l14 -7l23 -13l13 -9l11 -11l11 -13l16 -20l9 -14l14 -22l7 -14l6 -15l6 -14l7 -23l5 -15l4 -17l3 -16l3 -22zM247 213l3 -6l10 -13l11 -12l13 -8l6 -4l16 -5l18 -3l17 -1h18l25 2l16 4l15 6l14 9
l5 5l11 13l9 16l7 15l10 34l3 16l1 24l3 48v16l1 30l-1 15l-2 24l-4 16l-5 17l-6 15l-11 22l-8 13l-12 12l-13 10l-14 7l-7 2l-15 5l-15 1l-7 1h-16l-17 -3l-7 -1l-15 -5l-15 -8l-18 -12l-11 -11l-11 -15l-9 -15l-6 -18l-4 -17l-2 -17l-1 -23v-15l-1 -30v-16l-1 -32v-16
l2 -25l2 -16l4 -17l5 -14l2 -7z" />
    <glyph glyph-name="one" unicode="1" horiz-adv-x="499" 
d="M437 74l2 -33v-17l-3 -13l-7 -6l-7 -5l-7 -3h-29l-43 2h-16l-135 2h-16l-101 -4l-33 2l-11 3l-4 3l-2 6l-1 10v23l2 30l-1 16l-4 30v15l1 7l4 11l11 2l40 -3h16l23 1l12 2l6 3l3 7v71l1 16l4 60v15l-1 22l-2 15l-1 25l-1 16l2 26l2 34v11l-3 6l-6 4l-9 1l-36 -12l-15 -4
l-15 -2h-13l-9 4l-4 7l-3 10l-1 8v16l2 25v17l-2 31v17l2 13l4 6l5 4l10 5l9 3l15 6l29 9l14 5l53 20l15 5l53 17l15 6l23 11l17 7l15 4l12 1l10 -3l5 -7l3 -12l2 -12l-1 -12l-2 -39l-1 -16v-156l-3 -61v-16l4 -62l-1 -16l-4 -61l-1 -16l4 -62l1 -10l3 -6l6 -4l12 -1l72 -1
l6 -2l4 -9l1 -7l1 -15l-2 -30v-16z" />
    <glyph glyph-name="two" unicode="2" horiz-adv-x="699" 
d="M213 184l-1 -8l1 -5l10 -2l14 -1l38 1h81l51 -1h16l117 2l16 1l33 3h17l13 -3l6 -9l2 -14l1 -15l1 -16v-41l2 -25l-1 -16l-1 -14l-2 -10l-4 -6l-6 -3l-32 -5l-14 -1l-22 1l-15 1l-73 4h-56l-88 -5h-145l-73 1l-56 2l-12 1l-7 4l-2 6l-1 11l2 60v16l-3 61l1 16l3 30l6 30
l3 16l5 17l5 16l3 8l7 16l8 13l17 18l11 10l18 14l12 8l20 13l13 7l21 10l15 5l25 8l17 4l17 3l16 2l51 3l9 1l18 1l25 1l18 4l8 4l15 9l7 7l9 13l6 21v22l-2 8l-5 16l-4 7l-10 12l-13 6l-22 6l-14 2l-15 1h-15l-14 -1l-14 -3l-21 -7l-13 -7l-6 -4l-10 -11l-5 -6l-7 -15
l-5 -14l-9 -6l-15 -4h-9l-17 -1l-42 2h-42l-17 1l-26 3l-13 2l-7 4l-3 5v17l2 15l2 9l3 16l2 7l5 15l10 19l8 14l9 13l11 13l12 11l12 10l19 13l14 8l30 16l17 7l16 5l22 5l16 3l15 3l14 2l22 1l16 1h33l23 1h16l15 -1l15 -3l21 -5l15 -5l32 -10l15 -5l15 -6l21 -10l14 -8
l13 -11l13 -13l11 -13l10 -13l13 -18l7 -14l7 -15l5 -15l5 -14l3 -15l3 -24v-15l-1 -22l-2 -14l-5 -23l-4 -15l-6 -17l-7 -15l-11 -19l-9 -13l-13 -17l-11 -11l-16 -15l-13 -8l-21 -11l-15 -6l-17 -5l-16 -5l-17 -3l-16 -3l-23 -2l-16 -2l-17 -3l-16 -3l-24 -2l-17 -1h-8
l-18 -1h-8l-17 -3l-8 -3l-15 -7l-6 -5l-11 -11l-8 -12l-6 -14l-2 -8z" />
    <glyph glyph-name="three" unicode="3" horiz-adv-x="717" 
d="M644 232l1 -15v-16l-1 -17l-3 -16l-5 -22l-5 -15l-3 -6l-12 -21l-11 -14l-5 -6l-11 -12l-10 -10l-11 -9l-24 -18l-13 -7l-20 -8l-14 -5l-21 -7l-14 -4l-22 -6l-16 -4l-17 -3l-17 -2l-22 -1h-16l-57 2l-34 2l-17 2l-15 3l-16 3l-23 6l-15 5l-15 6l-15 7l-21 12l-13 8
l-28 23l-16 16l-10 12l-9 15l-8 14l-8 21l-5 14l-8 20l-3 14l-5 23l2 11l9 7l16 3l34 2l34 -2h16l46 4h24l14 -3l8 -7l6 -13l2 -9l8 -15l6 -6l12 -11l6 -4l15 -7l7 -4l17 -5l17 -4l17 -2h16l25 3l16 5l9 3l14 9l6 5l10 11l5 6l5 13l2 8v15l-2 8l-5 15l-4 6l-10 12l-18 12
l-6 3l-13 6l-16 3l-17 2l-17 1h-25l-32 -2l-22 -1h-22l-12 4l-7 8l-3 12l-2 15l-1 14l1 14v15l-1 22l1 18l3 13l4 7l6 3l34 3l16 -1l31 -3l15 -1l7 -1l15 1l22 3l17 4l8 3l16 7l7 5l11 11l5 6l6 15l1 10l-1 10l-7 15l-5 8l-16 16l-13 6l-15 3l-14 2l-23 1l-15 -1l-25 -2
l-15 -3l-8 -3l-14 -6l-7 -5l-12 -10l-4 -6l-7 -13l-5 -12l-9 -6l-14 -3h-25l-42 2l-15 1l-30 -2l-15 1l-22 1l-12 3l-5 3l-3 6v11l3 22l3 15l10 28l7 20l7 14l9 15l11 13l13 12l13 11l15 9l15 10l15 9l15 8l16 7l17 6l17 4l17 3l17 2l34 6l18 2l17 1l16 -1l23 -1l47 -6
l23 -5l15 -3l16 -5l15 -5l23 -8l14 -6l14 -7l14 -9l15 -11l13 -11l13 -13l10 -11l4 -6l9 -13l7 -16l6 -15l5 -14l6 -21l3 -15l1 -17v-17l-1 -7l-3 -15l-2 -6l-5 -13l-14 -26l-12 -19l-9 -11l-17 -16l-7 -8l-3 -8l4 -8l23 -16l12 -10l10 -10l10 -11l9 -12l11 -22l5 -16l3 -17
z" />
    <glyph glyph-name="four" unicode="4" horiz-adv-x="732" 
d="M662 196l2 -24v-25l-4 -13l-8 -7l-13 -3l-30 -2l-7 -3l-10 -8l-6 -12l-1 -14l3 -32l1 -16l-1 -15l-3 -14l-9 -10l-14 -4h-23l-58 4h-25l-16 1l-23 2l-14 2l-8 6l-4 13l-1 15v16l2 39l-1 15l-7 12l-9 5l-13 1l-66 -4h-16l-150 3l-15 -1l-38 -3h-15l-15 1l-12 4l-6 9l-2 12
l-10 57l-2 16l-4 59l1 11l4 5l7 8l33 43l10 12l37 41l11 11l38 39l11 11l37 40l10 12l34 43l11 11l38 39l11 12l16 19l10 13l9 11l11 10l38 39l8 8l5 4l10 1l68 -2l54 3h15l15 -1l11 -2l7 -3l3 -6l1 -13l3 -63v-16l-2 -63v-16l1 -63v-16l-1 -63v-16l-3 -63l1 -13l8 -11
l13 -9l28 -2h6l12 -3l7 -7l3 -13l1 -9l1 -16l-2 -23zM262 285l42 -2h16l41 1l14 2l9 6l6 11l1 14l4 53v69l-2 12l-6 5l-7 -1l-9 -8l-35 -35l-11 -12l-31 -39l-11 -12l-35 -34l-7 -9v-9l8 -9z" />
    <glyph glyph-name="five" unicode="5" horiz-adv-x="678" 
d="M616 254l1 -17v-17l-1 -17l-1 -16l-4 -22l-4 -14l-10 -20l-8 -14l-9 -14l-22 -26l-12 -11l-30 -23l-15 -9l-16 -9l-16 -7l-15 -7l-20 -7l-15 -5l-17 -5l-16 -3l-22 -1l-14 -1l-22 1h-14l-22 2l-16 1l-17 2l-32 2l-16 2l-24 5l-15 4l-15 6l-14 7l-21 12l-13 9l-16 13
l-11 10l-14 17l-10 12l-9 15l-8 14l-8 20l-4 14l-5 22l-2 16l-1 17l2 15l7 7l12 2l23 2l46 -3h16l45 3h24l13 -3l7 -6l5 -13l6 -17l10 -15l11 -11l13 -9l15 -5l14 -4l22 -1h14l22 1l15 4l16 7l16 9l13 14l7 16l3 16l1 18l-4 16l-2 6l-9 13l-11 11l-13 10l-16 7l-16 4l-23 3
l-15 1l-31 -2l-22 -2l-67 4h-16l-119 -2l-13 3l-7 8l-1 13l-1 60v16l1 60v16l-3 60v16l3 60l-1 17l-3 34l-1 16l1 9l3 15l9 8l12 2h21l38 -3h16l58 3l16 1l58 1l90 -6l58 2h88l30 2l30 -2l11 -2l7 -3l5 -6l2 -12l1 -7l1 -15l-2 -30v-32l-1 -16l-3 -17l-2 -15l-7 -8l-13 -2
l-8 -1h-16l-42 -1h-16l-82 1h-66l-47 3h-17l-17 -1l-15 -4l-8 -8l-2 -12l-1 -30l2 -14l6 -12l12 -7l14 -2l56 3h17l25 -2l32 -2l15 -2l25 -3l32 -6l15 -5l21 -9l15 -8l15 -9l13 -9l28 -23l14 -17l9 -12l7 -15l6 -16l8 -22l3 -16l5 -23z" />
    <glyph glyph-name="six" unicode="6" horiz-adv-x="729" 
d="M656 269l1 -23v-15l-2 -25l-3 -16l-5 -17l-5 -16l-7 -23l-7 -13l-10 -20l-10 -11l-17 -17l-12 -9l-18 -13l-13 -8l-14 -9l-15 -7l-23 -11l-15 -5l-22 -7l-14 -4l-23 -4l-15 -3l-22 -1l-16 -1l-22 -1h-16l-33 2l-25 3l-34 6l-17 4l-38 12l-16 7l-15 7l-23 11l-13 9l-18 16
l-11 12l-11 13l-11 14l-10 14l-9 14l-10 23l-6 14l-4 23l-2 15l-2 22v17l2 25v17l2 23l-3 48l-2 34l-1 16l-1 24v42l1 16l5 25l4 16l10 30l7 22l8 15l9 15l10 13l29 29l13 11l15 9l15 8l15 7l22 9l16 6l32 10l23 5l15 3l23 3l14 1l23 2l30 -2l66 -9l16 -2l22 -5l16 -4l17 -5
l16 -6l15 -7l14 -8l22 -11l13 -8l11 -9l9 -12l9 -13l8 -15l7 -17l6 -16l3 -7l6 -16l2 -7l4 -15l1 -7l-2 -12l-10 -7l-14 -3l-17 -2l-16 -1h-50l-25 1l-16 1l-26 3l-12 2l-6 5l-5 10l-10 11l-6 5l-21 12l-16 6l-8 2l-15 4l-23 2l-14 1l-23 -3l-15 -4l-16 -6l-7 -3l-14 -9
l-5 -4l-9 -11l-7 -13l-6 -15l-1 -9l-2 -16l-1 -15v-12l5 -10l11 -7l7 -2l8 3l13 7l15 6l25 8l15 4l23 5l15 1l22 2l16 -1l26 -1l16 -3l60 -13l15 -5l22 -7l14 -7l19 -14l13 -10l16 -16l11 -12l13 -20l8 -13l11 -22l5 -15zM403 166l8 3l13 9l11 9l9 12l5 8l5 15l2 9l-1 17
l-1 8l-6 16l-5 6l-11 13l-8 5l-14 11l-17 8l-16 5l-6 1l-14 3h-22l-23 -4l-14 -3l-7 -3l-12 -6l-7 -3l-13 -10l-8 -5l-12 -13l-4 -6l-7 -12l-3 -13l1 -16l1 -8l7 -15l11 -13l16 -13l18 -12l15 -7l19 -6l16 -4h20l14 1l24 6z" />
    <glyph glyph-name="seven" unicode="7" horiz-adv-x="642" 
d="M586 677l1 -24l-1 -16l-5 -16l-25 -47l-6 -14l-19 -50l-7 -14l-26 -47l-7 -14l-23 -48l-6 -14l-22 -49l-7 -14l-25 -47l-8 -14l-24 -46l-7 -14l-21 -50l-6 -14l-23 -48l-7 -14l-26 -46l-7 -11l-6 -5l-12 -3h-8l-16 -1l-85 2l-45 -3h-14l-6 1l-12 4l-7 8l-1 9l5 11l26 49
l8 14l24 51l7 14l21 52l7 14l26 50l7 14l24 51l7 14l56 114l8 14l25 50l3 13l-6 8l-13 2l-54 2h-16l-54 -3h-16l-55 1h-15l-30 -2h-16l-9 1l-14 4l-9 8l-3 12l-1 14l1 15l4 26l1 16l-2 30v15l1 8l3 14l6 8l12 4h21l41 -5l16 -1l77 2l61 3h16l61 -3h16l61 1h16l61 -1l58 4h18
l15 -4l6 -8l3 -13z" />
    <glyph glyph-name="eight" unicode="8" horiz-adv-x="743" 
d="M667 261l5 -25l1 -17v-25l-1 -15l-3 -22l-4 -14l-8 -21l-7 -14l-14 -20l-9 -12l-17 -17l-11 -9l-20 -14l-14 -7l-24 -9l-16 -5l-17 -5l-17 -4l-23 -5l-15 -3l-37 -5l-24 -1l-15 -1l-23 -1h-14l-23 1l-15 1l-23 1l-50 6l-26 5l-16 4l-22 7l-15 6l-20 10l-14 8l-19 14
l-12 10l-14 17l-10 11l-13 17l-9 13l-10 22l-5 14l-3 22l-1 15v25l2 16l4 23l5 15l11 21l7 13l8 11l9 11l11 11l11 9l13 13l1 9l-3 8l-8 10l-11 14l-10 15l-7 15l-7 16l-6 16l-4 17l-3 17l-1 15l2 22l2 15l5 17l6 16l7 16l9 15l10 13l10 12l14 17l11 11l13 11l14 9l8 4l17 7
l8 4l16 6l15 4l23 7l15 4l15 3l15 1l25 2h45l25 -2l31 -2l34 -6l18 -4l49 -15l15 -6l21 -9l14 -7l19 -12l14 -9l13 -11l11 -12l14 -18l9 -13l8 -15l6 -16l5 -17l2 -16l2 -23v-15l-1 -15l-3 -15l-7 -22l-7 -14l-10 -15l-11 -13l-12 -11l-9 -10l-3 -8l3 -8l9 -9l12 -11l11 -12
l18 -27l8 -14l8 -21zM274 555l-12 -10l-6 -7l-8 -13l-5 -14v-14l1 -7l7 -13l5 -6l11 -11l7 -4l14 -9l7 -4l16 -6l24 -4l16 -1l15 1l15 2l22 8l12 6l6 4l9 10l5 5l6 13l4 15l1 14l-2 7l-5 13l-7 12l-15 15l-13 7l-15 5l-15 4l-22 1h-15l-15 -1l-15 -4l-21 -7zM391 155l23 8
l15 6l6 5l13 11l5 7l8 16l2 8v17l-1 7l-7 14l-6 7l-13 11l-7 4l-15 8l-20 7l-15 4l-23 3l-15 1l-23 -2l-15 -2l-23 -5l-15 -6l-7 -5l-12 -11l-6 -6l-7 -14l-4 -15l-1 -14l2 -6l6 -15l4 -7l12 -13l13 -10l14 -7l17 -5l17 -4l25 -1h16l22 1z" />
    <glyph glyph-name="nine" unicode="9" horiz-adv-x="728" 
d="M656 473v-81l-4 -65l-1 -16v-65l-1 -15l-1 -23l-3 -14l-4 -23l-5 -14l-8 -20l-7 -14l-12 -19l-10 -13l-16 -19l-12 -11l-13 -11l-13 -9l-15 -9l-16 -8l-22 -10l-15 -5l-15 -4l-15 -3l-30 -5l-16 -3l-34 -6l-25 -3h-17l-17 1l-17 2l-43 7l-16 3l-25 6l-16 4l-17 5l-16 5
l-15 6l-15 7l-15 8l-13 9l-16 13l-11 12l-5 7l-9 14l-11 22l-6 16l-4 14l-6 32v6l1 13l3 9l5 4l10 2l23 1l15 1l47 -3l38 2h15l15 -1l13 -3l8 -7l5 -11l4 -7l9 -11l7 -6l13 -8l16 -5l17 -4l15 -2l29 -2l9 1l16 2l9 1l16 6l15 7l14 7l12 11l11 14l7 15l5 14v6l-1 15l-2 7
l-4 16l-7 13l-8 5l-3 -1l-8 -5l-15 -8l-16 -6l-22 -7l-15 -3l-23 -2l-15 -1l-63 -2l-16 1l-23 1l-16 4l-17 5l-16 5l-27 13l-14 8l-22 13l-12 10l-17 16l-9 12l-18 28l-7 15l-10 30l-4 25l-3 16l-1 22v15l3 30l3 15l4 15l5 14l8 21l7 13l11 19l9 12l14 16l11 11l17 14l14 10
l15 9l15 7l23 10l14 5l22 5l37 8l31 4l17 1l25 2h17l22 -2l16 -1l22 -2l16 -3l23 -4l34 -10l16 -6l16 -7l15 -8l21 -13l13 -9l18 -13l11 -10l15 -17l10 -11l9 -13l8 -13l14 -26l5 -15l3 -16l3 -17l2 -25zM447 463v8l-1 17l-1 9l-6 15l-9 12l-9 10l-6 4l-11 7l-13 5l-7 3
l-15 3l-26 4l-15 1l-29 -2l-9 -1l-16 -4l-7 -4l-13 -8l-11 -11l-9 -12l-4 -6l-6 -24l1 -16l3 -15l6 -13l9 -13l11 -11l13 -8l23 -11l14 -4l23 -3h15l31 3l16 4l16 6l14 8l11 11l9 13l4 7z" />
    <glyph glyph-name="colon" unicode=":" horiz-adv-x="259" 
d="M191 368l1 -17l-1 -6l-2 -15l-6 -16l-9 -14l-11 -11l-15 -10l-16 -6l-17 -4h-18l-17 4l-16 6l-15 10l-11 11l-9 14l-6 16l-2 15l-1 6l1 17l2 18l6 16l8 13l12 11l15 9l17 5l17 3h17l16 -3l16 -6l15 -9l11 -12l9 -13l6 -15zM191 83l1 -6v-16l-3 -18l-6 -16l-9 -14l-11 -11
l-15 -11l-16 -7l-17 -3h-17l-17 4l-17 7l-14 10l-12 11l-8 14l-6 16l-3 18l-1 16l1 6l2 16l6 16l8 13l12 11l14 9l17 5l17 3l18 -1l17 -3l16 -5l14 -9l11 -11l9 -13l7 -16z" />
    <glyph glyph-name="semicolon" unicode=";" horiz-adv-x="264" 
d="M196 366v-19l-3 -18l-7 -16l-9 -14l-12 -11l-14 -9l-16 -6l-16 -3h-18l-17 2l-16 6l-15 8l-12 11l-9 13l-6 16l-3 15l-1 6l1 17l4 17l6 15l9 13l12 12l15 9l15 7l17 3h18l16 -3l16 -6l14 -9l12 -11l9 -13l7 -15zM193 82v-21l-2 -14l-2 -8l-3 -15l-3 -9l-4 -15l-4 -14
l-4 -16l-2 -9l-4 -19l-4 -18l-7 -16l-3 -9l-5 -11l-3 -4l-3 -2l-5 -1l-10 -1l-7 -2l-14 -2h-15l-14 1l-7 2l-11 2l-6 2l-4 5l-1 6l2 13l1 9l5 18l5 19l3 18l1 9l1 12v4l-7 7l-8 7l-12 12l-10 15l-5 15l-1 7l-1 14l1 7l2 16l6 16l9 14l12 12l15 9l17 6l18 3h18l17 -3l16 -6
l15 -9l11 -12l8 -13l5 -15z" />
    <glyph glyph-name="less" unicode="&#x3c;" horiz-adv-x="431" 
d="M321 247l33 -33l8 -9v-6l-8 -9l-80 -82l-9 -8l-6 -2l-9 6l-44 51l-12 12l-47 46l-12 12l-46 47l-12 12l-24 22l-11 13l-10 13l-7 9l-4 8l1 8l7 9l11 13l12 12l36 33l45 48l12 12l48 46l11 12l27 28l10 11l11 9l8 7h6l9 -8l33 -37l11 -11l36 -33l8 -9v-8l-8 -10l-34 -33
l-48 -44l-11 -11l-32 -35l-7 -9l-2 -7l7 -9l34 -33l12 -11l35 -31z" />
    <glyph glyph-name="equal" unicode="=" horiz-adv-x="528" 
d="M450 494l4 -38v-16l-3 -38l-2 -13l-7 -8l-14 -3l-24 -1h-16l-24 2h-174l-24 -1h-40l-16 -1l-24 -1l-16 -1l-23 1l-13 3l-8 9l-3 14l-2 38v16l4 38l3 14l6 8l13 2l24 1h55l24 -1h56l63 -2h56l23 1h16l24 2l16 -1l23 -1l14 -2l7 -7zM450 296l4 -39v-16l-3 -39l-2 -13l-7 -8
l-14 -2l-24 -2l-16 1l-24 1l-16 1l-23 -1h-135l-24 -1h-40l-16 -1l-24 -1l-16 -1l-23 2l-13 3l-8 8l-3 14l-2 39v16l4 39l3 14l6 8l13 2l24 1h95l103 -3h16l24 1h55l24 2h16l23 -2l14 -2l7 -7z" />
    <glyph glyph-name="greater" unicode="&#x3e;" horiz-adv-x="428" 
d="M361 361l2 -8l-3 -7l-8 -9l-44 -49l-12 -12l-59 -58l-59 -59l-45 -48l-10 -6l-6 1l-8 7l-35 31l-12 11l-33 33l-7 9l1 6l7 9l33 37l11 12l33 34l12 12l36 33l7 9v7l-7 9l-36 33l-11 12l-33 37l-12 12l-35 34l-7 9l1 6l8 8l33 35l11 12l41 39h6l11 -7l47 -46l12 -12
l116 -120l46 -47z" />
    <glyph glyph-name="question" unicode="?" horiz-adv-x="649" 
d="M586 534v-37l-2 -17l-4 -16l-6 -15l-8 -14l-10 -13l-12 -12l-12 -11l-13 -11l-13 -9l-44 -32l-13 -9l-13 -12l-22 -24l-9 -14l-8 -16l-7 -28l-3 -4l-3 -2l-5 -1l-11 -2l-9 -1l-33 -2h-46l-8 -1l-36 -2l-17 1l-9 1l-12 2l-6 3l-3 4l-2 6l1 11v7l2 15l2 7l4 17l6 18l6 15
l4 7l7 13l3 6l11 14l13 14l12 11l5 5l12 8l6 3l12 7l6 3l15 8l16 10l7 5l13 10l6 6l10 13l7 17l2 15l-3 14l-7 14l-9 12l-11 9l-11 6l-14 5l-16 3h-16l-15 -3l-14 -6l-13 -6l-12 -8l-9 -9l-8 -11l-5 -15l-3 -10l-3 -5l-4 -3l-6 -1l-11 -2l-7 -1l-16 -1h-64l-47 3l-15 3l-9 2
l-3 2l-3 4l-1 10v8l1 14v6l3 17l4 19l5 15l2 7l6 12l3 7l8 15l12 16l14 14l12 10l6 4l11 7l6 4l12 6l7 3l30 14l7 2l16 6l16 5l6 1l14 3l6 1l15 2l24 2l15 1h23l35 -4l53 -7l17 -3l17 -4l17 -6l16 -7l16 -8l30 -18l14 -10l14 -11l13 -12l10 -14l8 -16l7 -16l10 -34l3 -16z
M403 100l-1 -17l-3 -16l-5 -16l-8 -15l-9 -14l-13 -12l-14 -8l-15 -7l-17 -4l-18 -2l-19 1l-18 2l-16 5l-15 7l-14 8l-12 11l-10 13l-8 15l-5 16l-3 16v16l3 16l5 16l8 14l10 13l13 10l14 9l15 6l15 4l18 3h19l18 -2l16 -4l15 -5l14 -9l13 -11l11 -13l8 -14l5 -16z" />
    <glyph glyph-name="at" unicode="@" horiz-adv-x="946" 
d="M887 392l2 -22v-16l-2 -23l-1 -15l-3 -23l-3 -14l-7 -23l-5 -15l-7 -17l-7 -15l-11 -20l-7 -13l-14 -17l-9 -12l-16 -16l-11 -10l-19 -13l-13 -6l-21 -5l-15 -2l-23 -1l-29 2l-14 4l-14 5l-14 9l-7 5l-11 12l-9 13l-11 9h-12l-12 -7l-17 -14l-13 -8l-21 -9l-16 -5l-17 -4
l-17 -2l-24 -2l-16 1l-24 1l-16 2l-22 5l-15 4l-23 9l-14 7l-19 12l-13 9l-20 13l-11 11l-17 18l-9 13l-10 21l-6 15l-8 23l-3 16l-3 22l-1 16l-1 25v16l1 25l1 16l4 22l4 15l11 22l7 13l13 20l9 12l14 19l27 27l32 22l14 7l22 8l15 5l22 7l16 3l23 3h17l17 -2l16 -3l15 -5
l16 -6l15 -6l15 -7l13 -9l14 -6l12 4l4 9l1 7l6 5h7l12 -3l25 -3l16 -3l25 -6l14 -3l8 -6l3 -13l-1 -24l-1 -16l-2 -24l-1 -16l-2 -64v-135l-1 -24l3 -14l5 -13l11 -10l13 -1l20 11l9 10l17 33l4 15l4 23l2 16l2 33v38l-2 34l-3 16l-5 22l-5 15l-7 17l-6 15l-9 21l-8 14
l-9 15l-10 12l-14 17l-11 10l-17 13l-14 10l-15 9l-15 7l-20 8l-15 5l-17 5l-16 3l-23 4l-14 2l-22 1l-14 1h-37l-22 -1l-16 -1l-34 -6l-17 -5l-16 -6l-50 -22l-16 -8l-15 -9l-14 -11l-13 -12l-12 -12l-35 -43l-9 -12l-11 -19l-7 -14l-7 -16l-6 -15l-6 -21l-3 -16l-3 -17
l-2 -16l-2 -23l1 -14l2 -22l3 -15l3 -17l3 -16l5 -22l3 -15l5 -17l5 -15l10 -19l8 -14l9 -15l10 -12l16 -15l12 -10l15 -11l15 -10l15 -9l15 -8l16 -7l17 -6l17 -4l16 -3l54 -8l15 -1l22 -1h28l15 1l16 2l30 6l28 10l14 4l11 -3l8 -10l10 -20l6 -13l7 -22l4 -14l-1 -11
l-9 -8l-28 -11l-15 -5l-41 -11l-30 -6l-16 -2l-25 -1h-15l-23 3l-14 2l-23 5l-15 1l-22 2l-15 1l-23 4l-14 4l-20 9l-14 7l-32 18l-20 10l-12 8l-19 12l-12 8l-18 14l-12 9l-16 15l-10 11l-13 18l-8 13l-11 19l-8 13l-12 19l-7 13l-11 20l-5 14l-4 22l-3 15l-4 22l-2 15
l-3 22l-2 15l-1 22v16l3 23l2 15l5 22l2 15l4 22l3 15l5 22l5 14l10 21l7 13l11 20l8 12l13 20l9 12l14 16l10 12l27 27l16 15l12 9l18 14l13 8l19 12l14 7l21 8l14 5l35 13l22 7l14 5l23 5l15 3l22 1l16 1l22 1l16 -1l22 -1l53 -7l22 -4l15 -3l22 -4l14 -4l23 -5l14 -4
l21 -8l14 -6l20 -10l13 -8l19 -13l12 -9l17 -14l11 -10l17 -17l9 -11l14 -18l8 -13l11 -19l7 -14l9 -20l6 -14l7 -22l5 -14l7 -21l4 -15l4 -22l3 -15l2 -23zM536 279l9 13l7 13l5 15l3 15l2 17l1 16l-1 16l-3 15l-5 14l-8 13l-9 13l-11 11l-13 9l-14 7l-13 5l-15 5l-17 3
h-17l-17 -2l-16 -4l-14 -5l-13 -8l-12 -11l-10 -13l-8 -14l-7 -14l-6 -15l-4 -15l-3 -16v-16l1 -16l3 -16l5 -15l7 -14l10 -13l12 -11l13 -9l14 -7l14 -5l16 -4l17 -3l16 1l17 3l15 6l13 7l13 8l13 9z" />
    <glyph glyph-name="A" unicode="A" 
d="M806 78l20 -50l3 -14l-7 -11l-11 -5l-13 -2h-14l-23 2l-15 1h-45l-62 -4l-13 4l-6 8l-5 11l-31 84l-7 10l-9 2l-12 1l-60 4h-16l-75 2l-60 1h-15l-15 -1h-46l-13 -2l-8 -5l-6 -12l-23 -68l-6 -16l-11 -13l-15 -6l-16 1l-58 3h-16l-62 -4l-13 -1l-12 6l-8 11l1 13l2 8
l6 16l14 31l6 15l25 56l6 14l26 56l6 15l23 54l6 15l27 56l6 14l36 82l28 60l7 16l22 45l7 16l19 46l6 15l18 41l5 11l10 6l15 3l46 2h78l46 -1l17 -3l11 -8l5 -13l14 -39l6 -15l25 -47l6 -14l22 -49l6 -14l18 -51l6 -14l22 -48l6 -14l22 -49l6 -14l20 -50l6 -14l31 -62
l24 -47l7 -14zM489 300l3 10l-4 13l-22 68l-5 15l-20 59l-5 13l-10 7l-13 3l-11 -3l-10 -10l-27 -68l-6 -15l-26 -67l-3 -15l3 -12l11 -5l14 -2h63l47 -3l13 4z" />
    <glyph glyph-name="B" unicode="B" horiz-adv-x="763" 
d="M695 229l1 -9l-1 -16l-2 -26l-3 -15l-7 -21l-6 -14l-10 -19l-9 -13l-16 -19l-11 -11l-25 -18l-13 -8l-14 -7l-15 -7l-16 -5l-15 -5l-45 -9l-23 -3l-16 -1l-24 -2h-16l-55 -2h-87l-56 3h-16l-55 -2h-15l-38 1l-16 2l-14 2l-8 3l-5 5l-2 11l-1 14l1 15v16l1 8v17l3 53
l-1 16l-1 25l-1 15l-1 14v15l1 25v44l4 53v16l-2 53v16l-1 53l1 16l3 53l1 16l-4 53l-1 16l-3 30v23l4 13l10 6l14 2l16 1l109 3l87 -5l54 2h16l55 -1h16l58 -4l17 -2l17 -3l38 -12l15 -7l19 -10l13 -9l17 -14l10 -11l14 -17l7 -13l11 -19l6 -14l5 -15l3 -16l4 -26l1 -16
l-1 -17l-3 -17l-6 -23l-6 -14l-11 -19l-10 -11l-16 -15l-8 -8l-3 -7l3 -8l9 -10l12 -11l12 -13l15 -21l9 -15l7 -16l4 -8l5 -16l4 -17zM242 509l-1 -16l1 -8l1 -16l2 -11l4 -6l8 -4l12 -1h40l17 1h17l23 -2l34 -2h22l13 3l12 6l10 7l7 8l6 10l3 14v17l-3 13l-9 13l-14 10
l-6 2l-15 4l-7 1l-17 2h-9l-39 5h-15l-25 -1l-16 -1h-21l-10 -2l-9 -1l-6 -3l-4 -5l-3 -13zM460 166l11 5l8 7l4 6l7 15l3 16l1 6l-1 14l-3 14l-8 14l-6 7l-13 13l-16 9l-15 5l-7 2l-14 1l-45 -2l-17 -1h-59l-15 -1l-18 -3l-9 -3l-3 -5l-1 -12v-17l1 -16v-22l-2 -17v-20
l2 -11l4 -6l7 -4l13 -2l141 3l34 2z" />
    <glyph glyph-name="C" unicode="C" horiz-adv-x="735" 
d="M689 97v-6l-8 -8l-18 -16l-12 -9l-19 -14l-12 -8l-20 -11l-13 -7l-23 -11l-15 -5l-17 -5l-17 -3l-25 -5l-35 -4l-18 -1l-25 -2h-52l-17 1l-17 2l-17 3l-17 4l-15 5l-45 12l-22 8l-13 6l-19 11l-12 9l-13 9l-14 9l-26 22l-12 12l-11 13l-11 15l-9 14l-8 14l-7 14l-10 21
l-15 42l-7 20l-10 30l-2 15l-1 23l1 15l1 16v17l2 34l1 16l3 15l4 22l4 15l5 15l5 14l7 20l7 14l7 15l8 15l9 15l9 14l10 13l11 14l12 13l12 11l13 11l12 10l32 22l13 8l14 8l30 14l17 6l16 5l34 8l17 3l17 2l31 2l22 2l15 -1l22 -1l37 -5l14 -3l23 -4l35 -10l14 -6l22 -13
l14 -8l26 -18l31 -22l11 -8l6 -5l7 -7l2 -8l-1 -8l-6 -8l-9 -11l-11 -11l-11 -10l-11 -9l-11 -11l-17 -20l-11 -12l-5 -5l-9 -8l-7 -3l-7 -1l-7 2l-11 6l-19 14l-13 7l-22 10l-14 5l-22 6l-15 3l-25 2h-16l-22 -2l-16 -4l-22 -7l-15 -6l-13 -5l-20 -10l-14 -10l-7 -6
l-12 -13l-9 -14l-7 -13l-7 -14l-6 -15l-5 -16l-3 -17l-2 -15l-2 -30v-16l1 -25l1 -15l5 -23l5 -15l7 -17l8 -15l15 -22l11 -12l19 -16l13 -9l20 -10l15 -6l22 -6l16 -3l24 -1h23l14 3l8 2l15 5l25 9l16 7l15 7l13 7l19 12l13 10l10 7l6 2l9 -2l11 -7l11 -10l4 -6l10 -11
l16 -20l10 -12l27 -31l9 -12l5 -5z" />
    <glyph glyph-name="D" unicode="D" horiz-adv-x="788" 
d="M730 359l1 -17l-1 -17l-1 -24l-3 -16l-7 -23l-5 -16l-6 -15l-6 -16l-6 -17l-6 -15l-11 -22l-8 -13l-14 -16l-10 -11l-17 -16l-22 -22l-13 -11l-19 -15l-13 -8l-20 -11l-13 -6l-22 -8l-15 -5l-16 -4l-16 -3l-61 -9l-15 -1l-22 -2h-16l-32 1l-26 2h-16l-32 -2l-25 -1
l-17 -1l-15 1h-70l-15 1l-43 4l-8 4l-5 5l-2 11l-1 16l1 8l2 30v14l1 23v15l1 16v16l-1 53v16l-2 53l1 15l1 22l2 15l1 17v16l-2 26l-1 17v9l-1 17l4 53v16l-1 53v16l-3 53v39l1 16l3 15l2 11l4 6l11 3l17 2l15 2l16 1l88 -1h16l48 -3l8 -1h18l42 2l15 1h16l25 -2l32 -2
l16 -2l26 -4l16 -3l15 -4l36 -13l15 -7l15 -8l14 -8l33 -23l13 -11l12 -10l22 -21l10 -10l9 -11l7 -13l11 -22l6 -15l5 -16l6 -16l5 -16l4 -16l4 -22l3 -16l3 -17l2 -16l1 -24zM491 237l12 19l7 15l6 17l4 15l4 22l1 14l1 23v32l-1 16l-3 23l-4 15l-2 6l-8 15l-15 21l-5 5
l-10 11l-11 11l-12 9l-22 13l-14 6l-14 3l-16 3l-25 1l-17 1h-25l-22 1l-15 -1l-22 -3l-11 -3l-5 -5l-3 -12l-1 -9l-1 -15l2 -30l1 -16l2 -22l2 -16l1 -16v-16l-1 -22v-48l-1 -17l-1 -16l-2 -22v-14l-1 -23l1 -15l3 -24l4 -11l6 -5l12 -1l93 6l23 1l16 3l17 5l16 6l15 7
l13 9l18 16z" />
    <glyph glyph-name="E" unicode="E" horiz-adv-x="699" 
d="M620 149l3 -55l-1 -16l-4 -54l-1 -10l-4 -7l-5 -4l-131 -4h-16l-53 4l-16 -1l-52 -4l-16 -1h-69l-52 4h-16l-86 -5l-34 2l-12 2l-7 5l-3 7l-2 11l-2 23l-1 16l1 15v15l4 53v16l1 53l-1 16l-3 53l-1 16l2 54v85l4 53l-1 16l-3 53l-1 16v24l2 30v15l3 52l1 14l3 8l5 4l8 1
l13 2l65 -4l61 1h16l60 -4h16l60 4h16l136 -2l17 1l34 3h25l14 -3l6 -5l2 -7l2 -13v-27l-2 -25v-17l1 -25l1 -15l-1 -15l-2 -12l-4 -7l-5 -4l-12 -2h-8l-16 -1l-94 2h-16l-51 -2h-16l-52 2l-45 3h-15l-8 -1l-10 -2l-5 -5l-1 -6l-2 -11l-2 -24v-16l1 -17l1 -11l2 -7l4 -5
l11 -3l32 -2l32 2h95l112 6l31 -2l11 -2l6 -5l3 -6l1 -11l2 -17l1 -17v-33l2 -23l-2 -30l-2 -12l-4 -7l-7 -5l-10 -2h-20l-45 5l-16 1l-80 -5l-64 2h-16l-40 3l-17 -1l-12 -1l-5 -3l-3 -7l-1 -15l-3 -25l-1 -16v-22l1 -10l3 -7l4 -4l11 -1l55 -2h16l54 4l71 -4h16l71 4h15
l15 -1l36 -4l6 -3l4 -6z" />
    <glyph glyph-name="F" unicode="F" horiz-adv-x="673" 
d="M594 628l2 -24l1 -16l-1 -15l-1 -11l-3 -7l-6 -5l-11 -3h-21l-30 4l-16 1h-65l-114 -4l-45 3h-22l-10 -3l-4 -7l-1 -14l-2 -89l1 -11l1 -6l5 -4l12 -3h26l34 3l16 1l60 -2h76l15 1l38 3h24l11 -2l6 -5l4 -8l2 -12l1 -8l1 -15l-2 -30v-15l1 -23l-1 -15l-1 -16l-2 -12
l-3 -8l-5 -4l-12 -3h-24l-37 5l-16 1l-60 -2h-16l-108 2l-15 -1l-14 -2l-10 -3l-4 -6v-13l-1 -57v-16l-4 -56v-16l1 -22l-1 -16l-1 -17l-1 -12l-3 -6l-6 -3l-11 -2l-17 -2l-16 -1l-37 1h-16l-41 -3l-30 2l-11 2l-6 4l-2 7l-1 11l-3 53l-1 16l-1 53l1 16l4 53l1 16l-3 53v16
l-3 54v16l2 53v85l2 53v85l2 53l1 12l2 7l6 3l10 2h22l38 -3h16l59 3h16l58 -3h16l59 3l16 1l59 -3h16l59 3h16l25 -1l16 -1l17 -2l11 -1l6 -3l4 -6l1 -11l1 -9v-15l-2 -30v-16z" />
    <glyph glyph-name="G" unicode="G" horiz-adv-x="800" 
d="M721 418l1 -8l1 -17l-4 -65v-94l-2 -42v-59l-1 -11l-6 -10l-8 -13l-9 -13l-17 -17l-12 -11l-6 -6l-13 -9l-7 -4l-13 -8l-20 -10l-15 -6l-14 -5l-23 -7l-15 -4l-16 -3l-15 -3l-23 -3l-14 -2l-15 -3l-40 -5l-15 -1l-31 2l-23 2l-16 2l-16 3l-15 4l-35 10l-15 4l-15 5l-20 7
l-13 7l-20 11l-12 9l-13 9l-12 10l-12 9l-11 10l-16 16l-10 12l-11 15l-9 14l-25 45l-7 16l-7 15l-5 16l-5 17l-3 16l-3 17l-2 16l-4 22l-2 16l-1 15v15l3 45l2 8l3 17l4 17l5 16l5 17l5 16l5 15l7 16l7 17l7 14l13 18l9 12l11 13l11 12l12 11l26 22l13 10l12 9l12 8l33 19
l15 9l17 7l17 5l16 4l37 6l29 4l15 3l15 2l23 2l16 1l22 -2l15 -1l23 -3l14 -3l22 -4l15 -4l22 -7l15 -5l36 -18l15 -9l13 -9l5 -3l11 -7l11 -8l5 -5l11 -8l6 -5l6 -7v-7l-3 -7l-6 -9l-9 -13l-10 -11l-28 -28l-18 -16l-12 -10l-11 -8l-8 -6l-6 -4l-8 -1l-11 7l-13 9l-13 8
l-14 8l-16 7l-16 6l-17 4l-17 3l-47 3h-7l-16 -1l-26 -2l-16 -4l-30 -14l-13 -9l-13 -10l-11 -11l-10 -13l-9 -13l-8 -14l-6 -15l-5 -16l-4 -15l-6 -30l-3 -16l-1 -17v-17l2 -24l3 -16l5 -23l5 -16l10 -24l7 -14l12 -18l10 -12l18 -17l13 -10l20 -11l15 -6l30 -7l17 -2
l17 -1h16l16 2l15 3l54 13l16 6l15 7l10 7l3 6v11l1 9v15l-2 30v17l-4 6l-11 2h-24l-16 -1l-23 -3l-16 -1h-23l-16 1l-34 6l-6 2l-4 5l-2 12l-1 8l-1 16l1 25l-2 30l-2 15v21l3 11l5 5l12 2l25 3l17 1h46l65 3l80 -5h16l41 5l16 1l8 -1l15 -3l7 -4l2 -6z" />
    <glyph glyph-name="H" unicode="H" horiz-adv-x="810" 
d="M708 161v-69l1 -16l2 -25l1 -15l-1 -14l-5 -13l-7 -7l-11 -1l-16 -2l-54 3h-16l-53 -4h-16l-14 3l-6 8l-2 14l-4 65l-1 16l2 65v16l-2 64v14l-4 8l-11 4h-24l-40 -3l-16 -1l-80 2l-54 3l-13 -1l-9 -3l-5 -9l-1 -14l1 -64v-16l-2 -65l1 -16l4 -43v-23l-4 -14l-9 -8l-13 -3
l-15 -1l-15 1l-42 4l-16 1l-47 -3l-16 1h-8l-11 2l-8 4l-4 5l-2 11l-1 9v16l2 30v84l2 53v16l1 53v16l-3 53v16l-1 53v69l1 16l3 53l1 16l-1 53l-1 16l-5 34v21l4 12l9 7l13 3l15 1h15l42 -2h16l40 3h16l15 -1l13 -2l8 -8l4 -13l1 -7v-15l-3 -45l-1 -16l-1 -65v-82l1 -12
l3 -8l5 -4l10 -1l14 -1h14l38 6l15 1l64 -2l59 -4h15l7 1l11 6l4 8l1 11l4 65v16l-2 65v16l-1 65l3 16l8 9l12 2h16l54 -3h16l45 3l16 -1h9l13 -2l8 -8l4 -14v-15l-3 -40l-1 -16l3 -53v-16l-2 -53v-16l4 -53v-16l-4 -53v-16l-2 -53v-16l1 -53v-16z" />
    <glyph glyph-name="I" unicode="I" horiz-adv-x="345" 
d="M246 213l3 -54v-16l-4 -54v-16l-1 -55v-11l-3 -5l-8 -3l-14 -1l-51 1h-62l-50 4l-6 2l-3 3v10l-2 25v16l-1 15v15l-3 54l1 16l3 54l1 16l-3 55v16l-1 54v86l-1 55v16l1 54v86l-2 55l3 11l6 4l10 1h8l15 1l24 -1h16l46 2h62l11 -2l2 -6l1 -11l2 -26l1 -16v-98l1 -54v-16
l-1 -55v-16l1 -54v-16l-2 -54v-87z" />
    <glyph glyph-name="J" unicode="J" horiz-adv-x="759" 
d="M672 434l-5 -51l-1 -16l2 -51v-17l-2 -34l-3 -25l-3 -15l-6 -23l-5 -14l-7 -21l-7 -15l-8 -15l-9 -15l-15 -19l-10 -13l-15 -16l-11 -11l-17 -15l-12 -9l-19 -12l-13 -8l-21 -10l-14 -6l-23 -7l-14 -4l-23 -4l-15 -3l-25 -2l-34 -2l-17 1l-23 1l-51 7l-37 8l-35 11
l-36 13l-19 10l-13 8l-18 14l-11 10l-15 17l-9 11l-12 19l-7 13l-10 21l-5 15l-10 32l-4 25l-3 16l-1 23l-1 17v17l4 13l11 4l15 1h45l45 -2l16 1l30 3l16 1l12 -6l5 -11l1 -13l1 -7l3 -14l7 -23l6 -14l7 -13l10 -13l19 -17l14 -9l15 -7l16 -4l24 -3l15 1l30 6l14 5l14 7
l14 8l19 16l11 12l9 15l6 15l5 22l2 15l1 23v15l1 60v16l1 61v16l1 60l1 14l-8 4l-46 -3h-16l-45 3h-16l-32 -3h-14l-12 5l-6 12v6l-1 15l3 42v16l-3 47l1 15l6 11l12 4h21l40 -2h16l60 5l16 1l59 -2h92l46 2h15l10 -3l4 -6l1 -11l1 -14l1 -15l1 -23l-1 -16l-3 -50v-16
l3 -51l1 -16l1 -51z" />
    <glyph glyph-name="K" unicode="K" horiz-adv-x="741" 
d="M655 64l44 -44l5 -9l-3 -5l-3 -6l-7 -4h-13l-54 4h-16l-63 1h-16l-64 -3l-12 1l-9 7l-35 39l-9 12l-31 44l-9 11l-39 39l-10 12l-33 39l-8 11l-5 9l-7 3l-6 -4l-2 -13v-69l-2 -54v-16l1 -24v-15l-1 -15l-1 -10l-5 -4l-12 -2l-31 -2h-31l-46 4l-16 -1l-50 -4l-8 3l-4 6
l-1 9l-1 14v16l1 25l1 17l-4 54v70l1 16l3 55l1 16v70l-2 54v16l2 55v16l-2 124v16l3 54l1 12l3 5l10 2l15 -1l31 -3h16l46 4h16l46 -3l11 -1l5 -3l3 -8l1 -10l-1 -13l-3 -33l-1 -16l3 -53v-16l1 -53l2 -11l8 -2l11 7l31 43l54 65l31 43l10 12l35 40l8 8l10 2l46 3h16l61 -4
l38 -1h16l38 1l11 -1l5 -4l2 -2l-1 -3l-8 -9l-38 -42l-10 -12l-35 -46l-10 -12l-39 -43l-10 -12l-37 -44l-10 -12l-36 -44l-11 -12l-25 -23l-11 -12l-5 -6l-5 -8l2 -6l7 -9l37 -49l11 -12l44 -44l10 -12l39 -48l10 -12l41 -46l10 -12l43 -45z" />
    <glyph glyph-name="L" unicode="L" horiz-adv-x="664" 
d="M597 78l2 -31l-1 -16v-9l-3 -12l-6 -7l-7 -3l-10 -2h-8l-14 -1l-111 6h-75l-90 -6l-58 4h-74l-46 -3h-15l-14 1l-11 2l-7 4l-5 6l-2 12v16l5 38l1 15l-4 53v16l2 53v16l2 122v16l-4 122v16l-1 53v85l-2 30v15l1 9l3 13l4 6l7 3l11 2h8l15 1l49 -3h16l71 1h10l7 -4l5 -7
v-87l2 -58v-16l-3 -58v-16l2 -58v-16l3 -58v-16l-6 -132l1 -10l1 -5l2 -5l5 -4l12 -2l34 -2l30 2h16l144 2l16 1l34 4l16 1h15l12 -3l7 -6l3 -7l1 -11l1 -56z" />
    <glyph glyph-name="M" unicode="M" horiz-adv-x="950" 
d="M847 144l-2 -53l1 -16l4 -31l1 -15l-1 -8l-1 -11l-5 -8l-6 -5l-11 -2l-15 -1h-16l-40 3l-17 1h-25l-18 1l-37 5l-7 2l-4 5l-1 10l-1 14l-1 15l2 34v94l-3 63v16l4 62v78l-2 12l-6 4h-6l-7 -9l-10 -14l-42 -48l-61 -73l-40 -50l-9 -8l-7 -3h-8l-11 2l-12 3l-11 8l-50 60
l-37 49l-10 12l-52 58l-13 13l-6 -2l-2 -11l-3 -63v-16l4 -63v-16l2 -63v-16l-1 -62v-15l1 -30l-1 -16l-1 -17l-2 -13l-4 -6l-7 -2l-26 -3l-16 -1l-39 3l-16 -1l-48 -4h-23l-12 2l-6 6l-2 7l-2 10v23l2 31v154l-2 53v16l1 53l-1 16l-3 54v16l3 53l1 16l-4 53l1 16l4 53v16
l-4 37v16l2 13l4 7l6 5l8 2l13 1l17 -2l22 -5h16l31 3l17 2l15 1l38 -1h13l11 -5l10 -11l35 -39l10 -13l29 -41l10 -13l33 -39l10 -14l31 -39l10 -11l9 -5h10l9 5l9 10l30 40l10 14l32 39l10 13l35 39l10 13l26 32l8 11l8 8l10 5l13 -1l53 -3l47 -1h16l30 2l17 -1l12 -2
l7 -2l6 -5l2 -8l-1 -12l-4 -45l-1 -16l2 -53v-16l-1 -53v-16l1 -53v-16l4 -54v-16l-4 -53v-16l3 -53v-16l-4 -53v-16z" />
    <glyph glyph-name="N" unicode="N" horiz-adv-x="821" 
d="M723 624l-3 -59l-1 -16v-148l3 -58v-16l2 -132v-17l-1 -8l-1 -17l-3 -48l1 -58l-1 -14l-4 -12l-8 -11l-10 -7l-9 -3l-14 -1l-51 -2l-16 -1l-25 -1h-16l-13 3l-12 5l-12 9l-9 13l-15 29l-9 13l-39 49l-10 12l-39 48l-9 13l-35 52l-9 12l-39 48l-10 12l-37 49l-9 8l-7 -3
l-3 -12l-2 -50v-16l1 -50v-16l1 -56v-16l-3 -56l1 -16l6 -40l1 -16l-3 -13l-7 -7l-7 -2l-12 -2l-8 -1l-17 -1l-46 1h-16l-41 -2h-16l-15 1l-11 2l-8 5l-4 7l-2 10l-1 7v15l2 33l1 16l-3 53v16l2 122l1 16l3 53l1 16v69l-4 53v16l4 53l-1 16l-4 54l-1 16v23l1 15l2 15l2 11
l3 7l6 3l11 2l30 2l30 -2h75l12 -1l5 -4l6 -9l42 -45l10 -12l37 -48l10 -12l37 -49l10 -12l36 -50l9 -12l38 -48l10 -12l36 -50l8 -7l8 -1l7 5v11l-7 42l-1 16l3 43v16l-4 61v16l4 61l-1 16l-3 37v25l3 13l4 8l7 4l12 2h9l17 1l45 -3h16l34 2l15 -1l23 -1l11 -2l7 -3l6 -7
l2 -14l1 -9l1 -17l-2 -31z" />
    <glyph glyph-name="O" unicode="O" horiz-adv-x="873" 
d="M812 403l2 -34l-1 -16l-2 -23l-2 -15l-6 -30l-2 -23l-2 -15l-3 -16l-4 -15l-10 -21l-7 -14l-27 -45l-9 -13l-10 -13l-10 -11l-16 -17l-11 -10l-13 -10l-12 -9l-18 -12l-13 -8l-15 -8l-14 -6l-20 -8l-15 -4l-32 -10l-17 -5l-16 -4l-17 -4l-17 -3l-17 -1h-54l-34 2l-33 4
l-14 3l-15 4l-54 18l-16 5l-17 7l-32 14l-15 8l-15 9l-13 10l-13 11l-12 13l-11 13l-27 27l-10 12l-10 13l-8 13l-8 20l-15 45l-6 21l-3 15l-3 16l-3 15l-3 22l-1 15l-1 17v17l1 17l1 18l2 17l3 17l4 17l5 17l5 15l6 16l7 23l7 16l4 9l8 15l14 22l10 14l5 8l12 12l17 14
l13 10l13 9l30 20l13 8l14 8l14 7l21 9l14 5l15 5l15 4l38 7l15 3l50 6l32 2l30 -2l24 -1l17 -2l17 -3l17 -4l17 -3l16 -4l15 -4l15 -5l21 -8l14 -6l33 -19l13 -9l13 -10l17 -16l11 -10l11 -11l9 -12l14 -19l8 -13l7 -13l8 -13l11 -20l8 -13l7 -15l5 -14l5 -23l6 -30l2 -17z
M557 223l13 16l9 14l10 22l6 15l5 23l2 15l2 24v17l-1 17l-1 16l-6 30l-4 14l-11 22l-8 13l-14 18l-10 11l-15 16l-11 9l-26 15l-14 6l-16 5l-16 3l-32 2l-15 -1l-22 -1l-15 -3l-26 -7l-16 -6l-23 -12l-14 -9l-16 -14l-11 -12l-11 -15l-8 -13l-3 -6l-9 -21l-5 -15l-3 -7
l-3 -14l-2 -14l-1 -14l-1 -15v-15l1 -16l3 -16l1 -9l4 -15l2 -7l5 -14l4 -8l8 -14l5 -8l11 -14l6 -7l12 -12l20 -17l14 -9l16 -8l15 -6l21 -7l15 -3l25 -3l17 -1l25 2l16 2l22 5l14 6l22 14l12 9l16 16z" />
    <glyph glyph-name="P" unicode="P" horiz-adv-x="742" 
d="M684 473v-8l1 -15l-1 -15l-1 -17l-5 -25l-3 -16l-8 -20l-6 -14l-10 -19l-9 -13l-14 -19l-11 -12l-13 -12l-13 -11l-13 -9l-14 -9l-22 -10l-15 -7l-17 -7l-15 -5l-22 -6l-15 -3l-15 -2l-16 -1l-26 -2h-84l-17 1l-17 -1l-17 -2l-12 -2l-3 -7l-1 -13l-4 -67v-16l1 -30
l-1 -15l-1 -22l-2 -11l-3 -6l-5 -2l-11 -2l-32 -2l-39 2h-16l-32 -2l-16 1l-23 1l-13 4l-6 6l-2 12l-2 15l-1 16v107l4 53v16l-4 53v16l-2 122v16l4 54v16l-3 53v16l4 53v15l-2 30l1 15l1 8l2 11l3 6l5 5l11 1l29 2l23 -1h15l67 1h67l67 -4h66l38 2l14 -1h8l15 -3l23 -6
l16 -5l16 -6l15 -7l15 -9l13 -10l18 -16l12 -10l5 -6l18 -18l10 -13l5 -6l7 -12l4 -6l6 -13l5 -15l4 -14l1 -7l4 -14l2 -8l4 -14zM317 363l68 4l18 2l17 4l8 3l14 8l6 4l10 10l4 6l7 13l3 7l4 16l1 7v25l-3 15l-3 8l-6 13l-4 6l-11 12l-8 5l-15 8l-26 7l-16 2h-23l-30 -2
l-44 3h-15l-8 -1l-11 -2l-4 -3l-3 -7l-2 -12v-23l3 -37l1 -16l1 -58l1 -12l3 -7l11 -4z" />
    <glyph glyph-name="Q" unicode="Q" horiz-adv-x="874" 
d="M824 64l1 -8l-8 -9l-50 -49l-12 -11l-51 -50l-11 -7l-8 -1l-8 8l-27 33l-11 12l-29 28l-10 6l-12 -2l-15 -5l-16 -5l-15 -3l-32 -8l-16 -3l-15 -3l-17 -1l-9 -1h-38l-15 -1l-23 -1l-15 -1h-15l-16 1l-30 6l-23 5l-15 4l-32 12l-17 7l-15 8l-30 18l-39 28l-13 10l-17 16
l-10 11l-13 18l-8 13l-8 15l-8 14l-11 20l-7 14l-6 13l-5 15l-7 23l-6 30l-1 15l1 23l1 16l1 15v15l-1 16l-1 15v23l2 16l3 17l4 17l5 17l6 16l7 17l7 15l16 28l21 34l18 22l29 24l13 10l34 22l14 7l43 20l15 6l32 10l22 5l16 3l47 7l17 2l17 1h16l23 -1h15l16 -1l16 -3
l23 -4l15 -4l14 -4l36 -13l14 -6l13 -7l13 -6l15 -5l34 -17l13 -10l12 -12l12 -13l22 -26l12 -13l11 -14l9 -13l9 -14l7 -15l6 -14l7 -21l6 -15l5 -17l4 -16l4 -17l3 -16l1 -17v-18l-1 -17v-47l-2 -25l-2 -15l-5 -22l-5 -15l-6 -17l-6 -16l-5 -16l-6 -15l-10 -21l-4 -10v-7
l8 -10l55 -57zM375 158l25 -5h16l25 4l15 3l23 7l37 16l13 9l18 14l10 12l13 19l7 14l9 23l5 15l5 16l3 16l3 30v16l-1 22l-3 16l-7 24l-5 15l-14 26l-8 14l-11 13l-11 11l-17 16l-13 9l-20 12l-14 6l-23 7l-15 3l-24 3h-17l-17 -1l-16 -3l-29 -9l-14 -5l-15 -7l-13 -9
l-25 -19l-11 -12l-14 -19l-8 -14l-10 -22l-5 -15l-4 -17l-2 -15l-3 -45l1 -23l2 -15l5 -25l5 -15l8 -22l8 -14l14 -21l11 -12l20 -13l14 -8l37 -15l22 -7z" />
    <glyph glyph-name="R" unicode="R" horiz-adv-x="759" 
d="M713 13l-4 -9l-13 -4h-70l-55 1h-16l-45 -2h-13l-9 4l-8 8l-32 45l-9 12l-32 43l-9 12l-28 46l-9 12l-32 43l-7 8l-6 3l-12 1l-32 2l-13 -1l-8 -6l-3 -13l-2 -55l1 -16l4 -56l1 -16l1 -24v-16l-1 -16l-2 -12l-5 -5l-11 -3h-16l-48 3l-46 -3h-16l-46 3l-12 2l-6 4l-2 10
l-1 14l-1 15l2 26l1 16l4 54v16l-3 54l-1 16l-1 53v16l3 54v16l-3 54v16l3 54v16l2 53v16l-1 54v16l-2 33l1 15l1 6l3 13l6 8l12 3l8 1l15 1l45 -2l119 -4l68 4h16l66 -4h38l17 -1l15 -3l21 -6l15 -5l15 -6l16 -6l15 -7l13 -8l19 -13l11 -9l10 -10l10 -12l14 -20l9 -13
l12 -19l7 -14l7 -15l5 -16l3 -16l1 -16l2 -22v-16l-1 -16l-2 -17l-3 -17l-4 -16l-6 -15l-7 -15l-9 -15l-9 -13l-9 -12l-9 -11l-16 -16l-11 -9l-20 -11l-12 -7l-13 -7l-13 -3l-8 -3l4 -8l36 -51l9 -12l36 -49l10 -12l36 -50l10 -12l31 -36l9 -11zM340 385l66 4l22 4l13 5
l12 7l10 12l7 15l4 16l1 16l-1 17l-2 17l-4 15l-7 15l-9 12l-11 9l-14 6l-22 5l-16 2l-50 1h-16l-51 -3l-12 -1l-7 -3l-6 -6l-1 -11l1 -23l2 -16l2 -17l1 -17l-2 -55l1 -11l2 -6l7 -3l12 -2l52 -4h16z" />
    <glyph glyph-name="S" unicode="S" horiz-adv-x="721" 
d="M654 241l1 -17l-1 -17l-2 -17l-3 -16l-5 -22l-5 -14l-9 -20l-7 -13l-12 -18l-10 -12l-12 -12l-12 -11l-20 -13l-13 -9l-15 -8l-14 -7l-23 -8l-30 -10l-16 -3l-25 -4l-15 -2l-22 -2l-14 -1l-23 -1l-48 -3h-22l-14 1l-23 2l-15 2l-17 3l-15 5l-22 7l-14 7l-15 7l-14 7
l-13 8l-32 22l-12 10l-18 14l-12 10l-11 11l-8 9l-1 7l5 9l4 5l10 11l28 26l9 11l17 26l9 11l10 11l11 6l11 -2l11 -8l32 -22l15 -8l14 -7l23 -11l15 -5l16 -5l16 -3l23 -1l16 -1l63 4l16 2l8 2l15 6l13 8l10 10l5 7l6 15l-1 17l-2 8l-8 14l-5 6l-13 10l-8 3l-15 6l-17 4
l-17 3l-95 9l-30 6l-16 4l-22 8l-15 5l-15 7l-34 17l-13 9l-15 9l-13 9l-17 14l-9 13l-9 15l-6 15l-7 21l-3 15l-3 22l-2 32l1 16l2 24l3 15l4 13l5 15l10 22l7 14l8 12l10 11l16 15l13 10l13 9l14 7l19 11l30 12l15 5l23 4l16 3l30 4l22 4l16 2l15 1h16l30 -3l15 -2l7 -2
l16 -2l34 -6l17 -4l16 -5l17 -5l16 -6l15 -7l15 -6l19 -11l14 -7l13 -9l9 -9v-10l-6 -11l-11 -20l-8 -12l-38 -50l-11 -14l-12 -10l-8 -3l-7 1l-10 5l-15 9l-15 6l-7 3l-15 5l-8 2l-17 4l-23 5l-16 1l-26 2h-26l-17 -1l-17 -3l-16 -5l-6 -3l-12 -9l-5 -6l-7 -14l-2 -16
l3 -13l8 -13l11 -10l12 -6l7 -3l15 -3l25 -3l34 -2l17 -3l34 -8l32 -10l23 -5l15 -4l28 -10l20 -9l14 -7l14 -8l13 -8l29 -24l11 -12l10 -12l12 -18l8 -13l7 -15l4 -15l4 -22z" />
    <glyph glyph-name="T" unicode="T" horiz-adv-x="688" 
d="M631 675l-2 -32l-1 -15l1 -30l-1 -16l-1 -8l-2 -12l-3 -7l-6 -5l-12 -2h-16l-30 3l-16 1l-46 -3h-16l-25 2h-15l-7 -1l-10 -3l-4 -6l-1 -13l-4 -59v-16l4 -60l-1 -16l-4 -60l-1 -16l2 -59v-92l-2 -59l1 -15l5 -45l1 -16l-3 -12l-5 -5l-13 -2l-19 1l-25 3l-17 1l-45 -3
h-16l-45 3l-12 1l-6 3l-2 11v17l3 42l1 16v75l1 60v16l1 59v16l-4 60l-1 16v76l-2 59v14l-3 8l-10 2h-15l-32 -2h-18l-27 2l-17 1l-17 -1l-23 -1h-15l-8 1l-11 2l-6 4l-4 6l-2 10v7l-1 16l2 30v15l-3 38l1 16l3 13l4 7l6 3l10 2h23l37 -3h16l58 4h16l59 -5h16l74 5l58 -1h16
l75 1h74l33 2l17 -1l8 -1l12 -2l7 -4l5 -7l2 -12v-7z" />
    <glyph glyph-name="U" unicode="U" horiz-adv-x="804" 
d="M710 397l3 -45l2 -32l-1 -15l-1 -23l-2 -15l-4 -24l-3 -16l-4 -23l-4 -15l-8 -21l-5 -14l-9 -21l-7 -14l-13 -20l-10 -13l-12 -13l-13 -11l-20 -16l-13 -9l-20 -12l-13 -7l-21 -10l-15 -5l-22 -8l-15 -4l-23 -4l-15 -3l-31 -2h-46l-23 2l-15 1l-55 6l-16 3l-9 1l-16 5
l-8 3l-16 7l-22 10l-15 9l-15 10l-26 22l-11 11l-13 17l-9 12l-16 26l-9 14l-8 15l-7 16l-6 15l-4 14l-4 15l-4 22l-3 17l-2 17l-2 34l-1 16l3 61v16l-2 61v16l3 61v93l-2 32v17l1 17l3 16l7 9l13 3l33 2l38 -3h16l33 1l15 -1l23 -1l13 -3l8 -8l3 -13l1 -14v-15l-2 -39v-16
l3 -61v-16l-1 -61v-16l-3 -61v-16l-1 -61l1 -16l2 -25l3 -16l6 -22l6 -15l10 -23l10 -12l16 -17l13 -8l22 -8l15 -4l26 -2h16l26 5l15 4l19 9l13 8l16 14l10 12l11 21l7 15l5 16l3 16l4 30l1 16l-4 61v16l3 62v16l2 61v16l-2 62l-1 16l-3 42v25l4 14l9 8l13 3h21l51 -4h16
l40 3h16l15 -1l13 -3l8 -7l1 -12l1 -30v-15l-1 -23v-16l3 -62v-16l-2 -61v-16z" />
    <glyph glyph-name="V" unicode="V" horiz-adv-x="824" 
d="M777 714l3 -9l-3 -13l-3 -9l-6 -16l-14 -27l-7 -15l-18 -56l-7 -15l-26 -53l-7 -15l-18 -55l-6 -16l-21 -54l-6 -16l-22 -54l-7 -15l-27 -53l-7 -15l-22 -54l-6 -16l-24 -52l-6 -16l-23 -54l-4 -11l-6 -4l-12 -1l-73 1l-16 -1l-56 -5l-17 -1l-13 2l-7 7l-6 12l-22 53
l-6 15l-26 55l-6 15l-22 53l-6 16l-18 55l-6 16l-24 53l-6 15l-26 55l-6 15l-20 54l-7 16l-24 52l-6 16l-18 56l-6 15l-18 29l-6 15l-3 9l-2 13l3 9l7 6l11 3l6 1h15l45 -3l48 1l64 -4l13 -1l8 -2l6 -8l4 -10l4 -14l10 -33l5 -16l24 -52l6 -16l20 -53l6 -16l20 -63l6 -16
l22 -62l25 -80l5 -11l7 -4l9 4l6 11l24 62l5 16l16 65l5 16l28 60l5 16l17 55l5 15l25 53l5 15l10 37l6 17l8 13l7 4l12 2h7l16 1l25 -2h64l46 3l18 -2l12 -3z" />
    <glyph glyph-name="W" unicode="W" horiz-adv-x="1150" 
d="M1113 716l-1 -10l-48 -126l-6 -15l-17 -56l-6 -15l-24 -56l-5 -15l-16 -56l-6 -16l-25 -52l-6 -16l-16 -57l-5 -15l-26 -55l-5 -15l-18 -56l-5 -16l-17 -56l-4 -10l-5 -5l-7 -1l-67 2l-78 5l-10 2l-5 8l-25 49l-5 14l-18 52l-4 14l-18 51l-5 14l-20 51l-6 14l-18 50l-5 9
h-3l-4 -9l-18 -51l-5 -14l-24 -48l-5 -14l-16 -53l-5 -14l-17 -51l-6 -14l-19 -50l-5 -11l-11 -5l-62 5h-16l-62 -5l-9 5l-4 12l-28 54l-5 15l-14 57l-5 15l-25 56l-6 15l-21 54l-5 16l-17 57l-5 15l-50 126l-6 15l-18 56l-7 16l-25 52l-7 15l-23 57l-1 12l6 7l11 3h15
l39 -3h16l69 -1h54l13 -1l4 -4l2 -10l23 -66l5 -15l20 -64l5 -15l26 -60l5 -15l20 -61l3 -16l12 -63l4 -9l6 -1l6 8l17 51l5 14l13 53l4 15l15 49l4 15l17 52l4 14l16 52l5 14l15 43l4 11l5 5l11 2l50 4l15 1l22 -1h15l15 -1l10 -4l6 -10l3 -8l6 -14l11 -28l5 -14l15 -52
l4 -14l16 -52l4 -14l12 -53l5 -14l24 -49l4 -14l3 -23l3 -16l4 -15l6 -8l6 1l5 11l12 58l4 15l8 21l5 15l8 22l5 16l10 47l5 16l17 45l6 15l19 45l5 15l10 38l4 12l6 7l12 2l53 -4h16l54 3h16l53 -4h11z" />
    <glyph glyph-name="X" unicode="X" horiz-adv-x="806" 
d="M740 11v-12l-8 -4l-15 1l-41 2l-16 1l-55 -2h-16l-55 1l-9 2l-6 7l-9 10l-18 25l-9 13l-21 37l-8 14l-74 118h-8l-39 -61l-8 -14l-24 -48l-9 -14l-24 -32l-10 -14l-30 -43l-10 -3h-15l-111 6l-16 -1l-43 -4l-14 -1l-7 6l1 10l8 12l104 151l9 14l32 45l8 13l32 45l8 13
l31 45l5 10l-1 5l-5 7l-31 44l-8 13l-26 46l-8 13l-32 43l-8 13l-36 56l-29 46l-8 12l-32 43l-2 9l2 2v5l8 5h30l16 -1l128 2l16 -1l14 -3l9 -8l12 -18l3 -6l8 -14l29 -47l8 -14l24 -50l8 -14l28 -48l8 -6l8 7l27 42l8 14l21 45l8 14l27 41l8 14l14 26l7 11l9 8l13 5l17 2
l16 -1l41 -3l16 -1l46 2h48l14 -3l6 -8l-5 -13l-9 -15l-9 -14l-36 -48l-35 -52l-8 -13l-32 -53l-8 -13l-36 -52l-8 -12l-33 -52l-5 -10l4 -11l26 -32l9 -13l43 -65l34 -52l8 -12l35 -52l9 -13l47 -66l9 -13l5 -7z" />
    <glyph glyph-name="Y" unicode="Y" horiz-adv-x="800" 
d="M764 715l-1 -4l-6 -9l-72 -106l-10 -13l-34 -46l-9 -13l-28 -49l-9 -14l-31 -46l-10 -14l-32 -46l-10 -13l-33 -46l-4 -8v-81l4 -54l-1 -16l-4 -54v-16l4 -42l1 -14l-3 -8l-4 -4l-9 -2h-66l-117 4l-4 3l-2 10v123l-1 16l-4 54l-1 16l4 54l-2 9l-7 7l-27 48l-9 14l-32 45
l-9 14l-29 48l-8 14l-70 106l-8 14l-30 47l-8 14l-29 48l-3 9l1 5l6 4h134l16 -1l58 -3l11 -1l4 -3l29 -50l8 -13l30 -45l8 -13l26 -46l9 -14l27 -43l7 -9l6 -2l7 7l25 48l9 13l31 44l9 13l25 47l8 14l28 46l8 10l8 2l11 -1l50 -3h16l58 3h16l57 -4l12 -2z" />
    <glyph glyph-name="Z" unicode="Z" horiz-adv-x="682" 
d="M614 162v-82l-2 -66l-2 -12l-9 -4l-8 -1h-14l-38 3h-15l-58 -3l-74 5h-16l-58 -3l-16 -1l-58 -1l-16 1l-58 3l-16 1h-58l-17 -1l-25 -2l-17 -1h-15l-9 4l-2 12l-2 40v10l4 9l32 45l9 14l30 47l8 14l32 45l8 14l29 48l8 14l31 47l8 14l40 58l34 46l41 59v11l-12 4l-56 4
h-16l-56 -1h-16l-56 -3h-37l-33 2l-11 4l-4 12v8l-1 17l-1 34v16l-2 61l5 10l13 1l125 4h16l55 -1h16l54 1h16l55 -3l71 4h16l71 -4l54 1l13 -2l5 -11v-7l1 -17l-1 -9l-1 -11l-6 -9l-31 -46l-40 -58l-8 -14l-32 -45l-8 -14l-27 -48l-9 -13l-32 -45l-9 -13l-37 -60l-30 -47
l-8 -13l-31 -46l-4 -10l3 -7l11 -3l17 -1h17l102 7h16l61 -2h16l39 3h15l8 -1l10 -4z" />
    <glyph glyph-name="bracketleft" unicode="[" horiz-adv-x="362" 
d="M295 22v-15l-1 -15l-1 -8l-2 -14l-2 -8l-1 -14l-4 -13l-10 -6h-16l-16 1l-58 -2h-16l-73 -5l-23 -1h-14l-23 1l-13 3l-8 9l-2 14l-2 22l1 14l1 22l1 15l2 56v51l1 22l-1 14l-1 22l-1 14l-2 22v14l2 22v15l3 92v16l-4 56v15l1 22v50l-2 22v14l-1 22v14l1 22v50l1 22v70
l1 15l2 22l3 14l6 9l12 2l25 2h58l66 -2l16 1l26 1l16 1l25 -1l13 -3l7 -10l3 -15l1 -15l-2 -32v-16l4 -24l-1 -15l-8 -13l-12 -7l-14 -1h-15l-15 2l-14 1l-15 -1l-12 -3l-6 -9l-2 -15l-1 -17v-16l1 -22v-14l-2 -22l-2 -16l-1 -17l-1 -16l1 -22v-16l1 -17v-16l-1 -22v-16
l-1 -17v-16l2 -22l1 -16l1 -17l1 -16l-1 -22v-105l-1 -15l-1 -22l-1 -14l2 -22l3 -13l8 -9l13 -3l66 2l14 -2l7 -7l3 -13l3 -15z" />
    <glyph glyph-name="backslash" unicode="\" horiz-adv-x="583" 
d="M486 -63l-3 -6l-12 -2l-17 -2l-17 -1l-55 2l-17 1l-17 2l-11 1l-7 8l-11 22l-7 15l-9 20l-5 15l-18 56l-5 15l-15 35l-9 20l-6 14l-7 21l-6 14l-8 21l-6 14l-7 21l-5 14l-8 21l-5 14l-15 35l-9 20l-5 15l-18 56l-4 15l-8 22l-5 14l-7 21l-7 15l-24 52l-7 15l-7 21l-6 14
l-8 21l-5 15l-16 56l-5 15l-11 20l-6 14l-7 21l-2 13l4 9l13 3l17 1l53 -3l17 1h18l17 -1l12 -1l4 -5l4 -10l8 -21l6 -14l7 -21l5 -14l8 -21l5 -14l7 -22l6 -14l9 -20l15 -35l5 -14l8 -21l4 -14l7 -22l6 -15l24 -52l6 -16l18 -56l5 -15l10 -20l6 -14l9 -20l6 -15l18 -56
l6 -15l9 -20l15 -35l5 -14l6 -22l4 -14l7 -22l5 -14l8 -20l6 -14l8 -21l15 -35l5 -14l6 -21z" />
    <glyph glyph-name="bracketright" unicode="]" horiz-adv-x="368" 
d="M299 -29l1 -22l-3 -13l-9 -8l-15 -2l-26 -1l-16 -1l-26 -1h-16l-26 1h-58l-26 -1l-16 1l-26 2l-12 3l-7 8l-3 13l-1 14v14l1 15l-1 15l-2 15l-1 14v15l3 13l9 7l14 2l67 -4l14 3l9 10l2 13v22l-1 14l-2 22v16l1 17l2 16l1 22l1 16v33l-1 22l-1 16l-1 17l-2 16l-1 22v16
l1 17v16l1 22v16l1 17v54l-1 17v16l-1 22v16l1 17l-1 18l-1 17l-2 14l-7 6l-13 2l-25 1l-16 1l-25 2l-14 2l-9 7l-3 12v15l1 15l2 15v15l-3 15l-1 14v15l4 12l10 7l14 2l25 1l16 1l26 -2h58l26 -1l16 1l26 4l16 1h26l13 -3l5 -10l1 -14l2 -22v-14l-2 -22v-14l1 -22v-15
l4 -56v-15l1 -22v-16l-1 -17v-16l-1 -22v-86l2 -22v-14l1 -22l-1 -15l-4 -56l-1 -15l1 -22v-86l-1 -22v-14l1 -22v-107l1 -15l3 -22z" />
    <glyph glyph-name="asciicircum" unicode="^" horiz-adv-x="656" 
d="M548 423l33 -45l5 -11l-3 -11l-7 -9l-10 -3h-23l-32 2h-16l-26 -1l-15 -1h-14l-10 2l-6 4l-7 10l-28 47l-9 13l-33 44l-9 13l-11 22l-9 13l-9 11l-8 9l-7 2l-8 -2l-19 -19l-9 -13l-13 -20l-8 -14l-27 -48l-8 -14l-31 -45l-7 -9l-7 -2h-12l-7 -1h-16l-26 2h-15l-30 -2h-22
l-10 2l-6 7l-3 10l4 11l31 45l8 14l30 46l8 14l30 45l9 13l33 45l9 13l30 46l8 14l15 26l9 14l5 6l8 10l6 4l11 1l58 -4h11l8 -7l39 -49l9 -13l31 -46l9 -13l31 -46l9 -13l32 -45l8 -14l30 -47z" />
    <glyph glyph-name="underscore" unicode="_" horiz-adv-x="571" 
d="M503 -27l4 -37v-16l-3 -38l-3 -14l-8 -8l-14 -3l-22 -1h-16l-22 1l-16 1l-22 1h-54l-22 1h-54l-99 -3h-54l-22 -2h-16l-22 2l-13 2l-7 9l-3 14l-4 38v16l2 37l3 14l8 9l14 3l22 -1h16l22 -2h16l22 1h16l22 2h16l23 -1h92l22 1h16l60 -2l16 1l23 1l16 1l22 -1l13 -3l7 -9z
" />
    <glyph glyph-name="grave" unicode="`" horiz-adv-x="378" 
d="M275 610l-4 -9l-13 -4l-7 -1h-16l-45 3l-30 -2h-16l-8 1l-13 2l-9 4l-8 9l-51 61l-27 31l-9 13l-4 6l-4 13l4 8l13 3l9 1h17l47 -3l67 4l15 -1h8l13 -2l10 -6l7 -12l4 -8l7 -15l10 -23l7 -15l16 -28l7 -16z" />
    <glyph glyph-name="a" unicode="a" 
d="M806 79l20 -50l3 -14l-7 -11l-11 -5l-13 -2h-14l-23 2l-15 1h-45l-62 -4l-13 5l-6 7l-5 11l-31 84l-7 10l-9 2l-12 1l-60 4h-16l-75 2l-60 1h-15l-15 -1h-46l-13 -2l-8 -5l-6 -12l-23 -68l-6 -16l-11 -13l-15 -5h-16l-58 3h-16l-62 -4l-13 -1l-12 6l-8 11l1 13l2 8l6 16
l14 31l6 15l25 56l6 14l26 56l6 15l23 54l6 15l27 56l6 14l36 82l28 60l7 16l22 45l7 16l19 46l6 15l18 41l5 11l10 6l15 3l46 2h78l46 -1l17 -3l11 -8l5 -13l14 -39l6 -15l25 -47l6 -14l22 -49l6 -14l18 -51l6 -14l22 -48l6 -14l22 -49l6 -14l20 -50l6 -14l31 -62l24 -47
l7 -14zM489 301l3 10l-4 13l-22 68l-5 15l-20 59l-5 13l-10 7l-13 3l-11 -3l-10 -10l-27 -68l-6 -15l-26 -67l-3 -15l3 -12l11 -5l14 -2h63l47 -3l13 4z" />
    <glyph glyph-name="b" unicode="b" horiz-adv-x="762" 
d="M695 227l1 -9l-1 -16l-2 -26l-3 -15l-7 -21l-6 -14l-10 -19l-9 -13l-16 -18l-11 -11l-25 -18l-13 -9l-14 -7l-15 -7l-16 -5l-15 -5l-45 -9l-23 -3l-16 -1l-24 -2h-16l-55 -2h-87l-56 3h-16l-70 -1h-38l-16 2l-14 2l-8 3l-5 5l-2 11l-1 15l1 14v16l1 8v17l3 53l-1 16
l-1 26l-1 17l-1 9v17l1 26v43l4 53v16l-2 53v16l-1 53l1 16l3 53l1 16l-4 53l-1 16l-3 30v24l4 12l10 6l14 3l16 1h54l55 2l87 -5l54 2h16l55 -1h16l58 -4l17 -2l17 -3l16 -4l22 -8l15 -6l19 -11l13 -9l17 -14l12 -12l11 -14l8 -14l11 -20l6 -14l5 -15l3 -16l4 -26l1 -16
l-1 -17l-3 -17l-6 -23l-7 -15l-9 -15l-11 -13l-24 -24l-3 -7l3 -8l9 -9l12 -11l12 -13l5 -8l10 -14l9 -15l7 -15l4 -9l5 -16l4 -17zM241 491l1 -7l1 -16l2 -11l4 -7l8 -4l12 -1h23l34 2l17 -1l23 -1l34 -2h22l13 3l12 5l10 7l7 9l6 10l3 13v17l-3 14l-9 12l-14 10l-6 3
l-15 4l-7 1l-17 2h-9l-16 2l-23 2l-15 1l-49 -3h-13l-10 -1l-9 -2l-6 -3l-4 -5l-3 -13l-3 -24zM493 213l1 6l-1 14l-3 14l-8 14l-6 7l-13 13l-16 10l-15 5l-7 1l-14 1l-45 -2l-17 -1h-59l-15 -1h-6l-12 -2l-9 -4l-3 -4l-1 -10v-22l1 -16v-18l-2 -24v-15l2 -11l4 -6l7 -4
l13 -1l79 1l62 2l34 2l16 2l11 5l8 7l4 6l7 15z" />
    <glyph glyph-name="c" unicode="c" horiz-adv-x="735" 
d="M689 97v-6l-8 -8l-18 -16l-12 -9l-19 -14l-12 -8l-20 -11l-13 -7l-23 -11l-15 -5l-17 -5l-17 -3l-25 -5l-35 -4l-18 -1l-25 -2h-52l-17 1l-17 2l-17 3l-17 4l-15 5l-45 12l-22 8l-13 6l-19 11l-12 9l-13 9l-14 9l-26 22l-12 12l-11 13l-11 15l-9 14l-8 14l-7 14l-10 21
l-15 42l-7 20l-10 30l-2 15l-1 23l1 15l1 16v17l2 34l1 16l3 15l4 22l4 15l5 15l5 14l7 20l7 14l7 15l8 15l9 15l9 14l10 13l11 14l12 13l12 11l13 11l12 10l32 22l13 8l14 8l30 14l17 6l16 5l34 8l17 3l17 2l31 2l22 2l15 -1l22 -1l37 -5l14 -3l23 -4l35 -10l14 -6l22 -13
l14 -8l26 -18l31 -22l11 -8l6 -5l7 -7l2 -8l-1 -8l-6 -8l-9 -11l-11 -11l-11 -10l-11 -9l-11 -11l-17 -20l-11 -12l-5 -5l-9 -8l-7 -3l-7 -1l-7 2l-11 6l-19 14l-13 7l-22 10l-14 5l-22 6l-15 3l-25 2h-16l-22 -2l-16 -4l-22 -7l-15 -6l-13 -5l-20 -10l-14 -10l-7 -6
l-12 -13l-9 -14l-7 -13l-7 -14l-6 -15l-5 -16l-3 -17l-2 -15l-2 -30v-16l1 -25l1 -15l5 -23l5 -15l7 -17l8 -15l15 -22l11 -12l19 -16l13 -9l20 -10l15 -6l22 -6l16 -3l24 -1h23l14 3l8 2l15 5l25 9l16 7l15 7l13 7l19 12l13 10l10 7l6 2l9 -2l11 -7l11 -10l4 -6l10 -11
l16 -20l10 -12l27 -31l9 -12l5 -5z" />
    <glyph glyph-name="d" unicode="d" horiz-adv-x="788" 
d="M730 359l1 -17l-1 -17l-1 -24l-3 -16l-7 -23l-5 -16l-6 -15l-6 -16l-6 -17l-6 -15l-11 -22l-8 -13l-14 -16l-10 -11l-17 -16l-22 -22l-13 -11l-19 -15l-13 -8l-20 -11l-13 -6l-22 -8l-15 -5l-16 -4l-16 -3l-61 -9l-15 -1l-22 -2h-16l-32 1l-26 2h-16l-32 -2l-25 -1
l-17 -1l-15 1h-70l-15 1l-43 4l-8 4l-5 5l-2 11l-1 16l1 8l2 30v14l1 23v15l1 16v16l-1 53v16l-2 53l1 15l1 22l2 15l1 17v16l-2 26l-1 17v9l-1 17l4 53v16l-1 53v16l-3 53v39l1 16l3 15l2 11l4 6l11 3l17 2l15 2l16 1l88 -1h16l48 -3l8 -1h18l42 2l15 1h16l25 -2l32 -2
l16 -2l26 -4l16 -3l15 -4l36 -13l15 -7l15 -8l14 -8l33 -23l13 -11l12 -10l22 -21l10 -10l9 -11l7 -13l11 -22l6 -15l5 -16l6 -16l5 -16l4 -16l4 -22l3 -16l3 -17l2 -16l1 -24zM491 237l12 19l7 15l6 17l4 15l4 22l1 14l1 23v32l-1 16l-3 23l-4 15l-2 6l-8 15l-15 21l-5 5
l-10 11l-11 11l-12 9l-22 13l-14 6l-14 3l-16 3l-25 1l-17 1h-25l-22 1l-15 -1l-22 -3l-11 -3l-5 -5l-3 -12l-1 -9l-1 -15l2 -30l1 -16l2 -22l2 -16l1 -16v-16l-1 -22v-48l-1 -17l-1 -16l-2 -22v-14l-1 -23l1 -15l3 -24l4 -11l6 -5l12 -1l93 6l23 1l16 3l17 5l16 6l15 7
l13 9l18 16z" />
    <glyph glyph-name="e" unicode="e" horiz-adv-x="699" 
d="M620 149l3 -55l-1 -16l-4 -54l-1 -10l-4 -7l-5 -4l-131 -4h-16l-53 4l-16 -1l-52 -4l-16 -1h-69l-52 4h-16l-86 -5l-34 2l-12 2l-7 5l-3 7l-2 11l-2 23l-1 16l1 15v15l4 53v16l1 53l-1 16l-3 53l-1 16l2 54v85l4 53l-1 16l-3 53l-1 16v24l2 30v15l3 52l1 14l3 8l5 4l8 1
l13 2l65 -4l61 1h16l60 -4h16l60 4h16l136 -2l17 1l34 3h25l14 -3l6 -5l2 -7l2 -13v-27l-2 -25v-17l1 -25l1 -15l-1 -15l-2 -12l-4 -7l-5 -4l-12 -2h-8l-16 -1l-94 2h-16l-51 -2h-16l-52 2l-45 3h-15l-8 -1l-10 -2l-5 -5l-1 -6l-2 -11l-2 -24v-16l1 -17l1 -11l2 -7l4 -5
l11 -3l32 -2l32 2h95l112 6l31 -2l11 -2l6 -5l3 -6l1 -11l2 -17l1 -17v-33l2 -23l-2 -30l-2 -12l-4 -7l-7 -5l-10 -2h-20l-45 5l-16 1l-80 -5l-64 2h-16l-40 3l-17 -1l-12 -1l-5 -3l-3 -7l-1 -15l-3 -25l-1 -16v-22l1 -10l3 -7l4 -4l11 -1l55 -2h16l54 4l71 -4h16l71 4h15
l15 -1l36 -4l6 -3l4 -6z" />
    <glyph glyph-name="f" unicode="f" horiz-adv-x="673" 
d="M594 628l2 -24l1 -16l-1 -15l-1 -11l-3 -7l-6 -5l-11 -3h-21l-30 4l-16 1h-65l-114 -4l-45 3h-22l-10 -3l-4 -7l-1 -14l-2 -89l1 -11l1 -6l5 -4l12 -3h26l34 3l16 1l60 -2h76l15 1l38 3h24l11 -2l6 -5l4 -8l2 -12l1 -8l1 -15l-2 -30v-15l1 -23l-1 -15l-1 -16l-2 -12
l-3 -8l-5 -4l-12 -3h-24l-37 5l-16 1l-60 -2h-16l-108 2l-15 -1l-14 -2l-10 -3l-4 -6v-13l-1 -57v-16l-4 -56v-16l1 -22l-1 -16l-1 -17l-1 -12l-3 -6l-6 -3l-11 -2l-17 -2l-16 -1l-37 1h-16l-41 -3l-30 2l-11 2l-6 4l-2 7l-1 11l-3 53l-1 16l-1 53l1 16l4 53l1 16l-3 53v16
l-3 54v16l2 53v85l2 53v85l2 53l1 12l2 7l6 3l10 2h22l38 -3h16l59 3h16l58 -3h16l59 3l16 1l59 -3h16l59 3h16l25 -1l16 -1l17 -2l11 -1l6 -3l4 -6l1 -11l1 -9v-15l-2 -30v-16z" />
    <glyph glyph-name="g" unicode="g" horiz-adv-x="800" 
d="M721 418l1 -8l1 -17l-4 -65v-94l-2 -42v-59l-1 -11l-6 -10l-8 -13l-9 -13l-17 -17l-12 -11l-6 -6l-13 -9l-7 -4l-13 -8l-20 -10l-15 -6l-14 -5l-23 -7l-15 -4l-16 -3l-15 -3l-23 -3l-14 -2l-15 -3l-40 -5l-15 -1l-31 2l-23 2l-16 2l-16 3l-15 4l-35 10l-15 4l-15 5l-20 7
l-13 7l-20 11l-12 9l-13 9l-12 10l-12 9l-11 10l-16 16l-10 12l-11 15l-9 14l-25 45l-7 16l-7 15l-5 16l-5 17l-3 16l-3 17l-2 16l-4 22l-2 16l-1 15v15l3 45l2 8l3 17l4 17l5 16l5 17l5 16l5 15l7 16l7 17l7 14l13 18l9 12l11 13l11 12l12 11l26 22l13 10l12 9l12 8l33 19
l15 9l17 7l17 5l16 4l37 6l29 4l15 3l15 2l23 2l16 1l22 -2l15 -1l23 -3l14 -3l22 -4l15 -4l22 -7l15 -5l36 -18l15 -9l13 -9l5 -3l11 -7l11 -8l5 -5l11 -8l6 -5l6 -7v-7l-3 -7l-6 -9l-9 -13l-10 -11l-28 -28l-18 -16l-12 -10l-11 -8l-8 -6l-6 -4l-8 -1l-11 7l-13 9l-13 8
l-14 8l-16 7l-16 6l-17 4l-17 3l-47 3h-7l-16 -1l-26 -2l-16 -4l-30 -14l-13 -9l-13 -10l-11 -11l-10 -13l-9 -13l-8 -14l-6 -15l-5 -16l-4 -15l-6 -30l-3 -16l-1 -17v-17l2 -24l3 -16l5 -23l5 -16l10 -24l7 -14l12 -18l10 -12l18 -17l13 -10l20 -11l15 -6l30 -7l17 -2
l17 -1h16l16 2l15 3l54 13l16 6l15 7l10 7l3 6v11l1 9v15l-2 30v17l-4 6l-11 2h-24l-16 -1l-23 -3l-16 -1h-23l-16 1l-34 6l-6 2l-4 5l-2 12l-1 8l-1 16l1 25l-2 30l-2 15v21l3 11l5 5l12 2l25 3l17 1h46l65 3l80 -5h16l41 5l16 1l8 -1l15 -3l7 -4l2 -6z" />
    <glyph glyph-name="h" unicode="h" horiz-adv-x="810" 
d="M708 161v-69l1 -16l2 -25l1 -15l-1 -14l-5 -13l-7 -7l-11 -1l-16 -2l-54 3h-16l-53 -4h-16l-14 3l-6 8l-2 14l-4 65l-1 16l2 65v16l-2 64v14l-4 8l-11 4h-24l-40 -3l-16 -1l-80 2l-54 3l-13 -1l-9 -3l-5 -9l-1 -14l1 -64v-16l-2 -65l1 -16l4 -43v-23l-4 -14l-9 -8l-13 -3
l-15 -1l-15 1l-42 4l-16 1l-47 -3l-16 1h-8l-11 2l-8 4l-4 5l-2 11l-1 9v16l2 30v84l2 53v16l1 53v16l-3 53v16l-1 53v69l1 16l3 53l1 16l-1 53l-1 16l-5 34v21l4 12l9 7l13 3l15 1h15l42 -2h16l40 3h16l15 -1l13 -2l8 -8l4 -13l1 -7v-15l-3 -45l-1 -16l-1 -65v-82l1 -12
l3 -8l5 -4l10 -1l14 -1h14l38 6l15 1l64 -2l59 -4h15l7 1l11 6l4 8l1 11l4 65v16l-2 65v16l-1 65l3 16l8 9l12 2h16l54 -3h16l45 3l16 -1h9l13 -2l8 -8l4 -14v-15l-3 -40l-1 -16l3 -53v-16l-2 -53v-16l4 -53v-16l-4 -53v-16l-2 -53v-16l1 -53v-16z" />
    <glyph glyph-name="i" unicode="i" horiz-adv-x="345" 
d="M246 211l3 -54v-16l-4 -54v-16l-1 -55v-11l-3 -6l-8 -2l-14 -1l-51 1h-62l-50 4l-6 2l-3 3v10l-2 25v16l-1 15v15l-3 54l1 16l3 54l1 16l-3 55v16l-1 54v86l-1 55v16l1 54v86l-2 55l3 11l6 4l10 1h8l15 1l24 -1h16l46 2h62l11 -2l2 -6l1 -11l2 -26l1 -16v-98l1 -54v-16
l-1 -55v-16l1 -54v-16l-2 -54v-87z" />
    <glyph glyph-name="j" unicode="j" horiz-adv-x="769" 
d="M682 434l-5 -51l-1 -16l2 -51v-17l-2 -34l-3 -25l-3 -15l-6 -23l-5 -14l-7 -21l-7 -15l-8 -15l-9 -15l-15 -19l-10 -13l-15 -16l-11 -11l-17 -15l-12 -9l-19 -12l-13 -8l-21 -10l-14 -6l-23 -7l-14 -4l-23 -4l-15 -3l-25 -2l-34 -2l-17 1l-23 1l-51 7l-37 8l-35 11
l-36 13l-19 10l-13 8l-18 14l-11 10l-15 17l-9 11l-12 19l-7 13l-10 21l-5 15l-10 32l-4 25l-3 16l-1 23l-1 17v17l4 13l11 4l15 1h45l45 -2l16 1l30 3l16 1l12 -6l5 -11l1 -13l1 -7l3 -14l7 -23l6 -14l7 -13l10 -13l19 -17l14 -9l15 -7l16 -4l24 -3l15 1l30 6l14 5l14 7
l14 8l19 16l11 12l9 15l6 15l5 22l2 15l1 23v15l1 60v16l1 61v16l1 60l1 14l-8 4l-46 -3h-16l-45 3h-16l-32 -3h-14l-12 5l-6 12v6l-1 15l3 42v16l-3 47l1 15l6 11l12 4h21l40 -2h16l60 5l16 1l59 -2h92l46 2h15l10 -3l4 -6l1 -11l1 -14l1 -15l1 -23l-1 -16l-3 -50v-16
l3 -51l1 -16l1 -51z" />
    <glyph glyph-name="k" unicode="k" horiz-adv-x="741" 
d="M655 64l44 -44l5 -9l-3 -5l-3 -6l-7 -4h-13l-54 4h-16l-63 1h-16l-64 -3l-12 1l-9 7l-35 39l-9 12l-31 44l-9 11l-39 39l-10 12l-33 39l-8 11l-5 9l-7 3l-6 -4l-2 -13v-69l-2 -54v-16l1 -24v-15l-1 -15l-1 -10l-5 -4l-12 -2l-31 -2h-31l-46 4l-16 -1l-50 -4l-8 3l-4 6
l-1 9l-1 14v16l1 25l1 17l-4 54v70l1 16l3 55l1 16v70l-2 54v16l2 55v16l-2 124v16l3 54l1 12l3 5l10 2l15 -1l31 -3h16l46 4h16l46 -3l11 -1l5 -3l3 -8l1 -10l-1 -13l-3 -33l-1 -16l3 -53v-16l1 -53l2 -11l8 -2l11 7l31 43l54 65l31 43l10 12l35 40l8 8l10 2l46 3h16l61 -4
l38 -1h16l38 1l11 -1l5 -4l2 -2l-1 -3l-8 -9l-38 -42l-10 -12l-35 -46l-10 -12l-39 -43l-10 -12l-37 -44l-10 -12l-36 -44l-11 -12l-25 -23l-11 -12l-5 -6l-5 -8l2 -6l7 -9l37 -49l11 -12l44 -44l10 -12l39 -48l10 -12l41 -46l10 -12l43 -45z" />
    <glyph glyph-name="l" unicode="l" horiz-adv-x="664" 
d="M597 78l2 -31l-1 -16v-9l-3 -12l-6 -7l-7 -3l-10 -2h-8l-14 -1l-111 6h-75l-90 -6l-58 4h-74l-46 -3h-15l-14 1l-11 2l-7 4l-5 6l-2 12v16l5 38l1 15l-4 53v16l2 53v16l2 122v16l-4 122v16l-1 53v85l-2 30v15l1 9l3 13l4 6l7 3l11 2h8l15 1l49 -3h16l71 1h10l7 -4l5 -7
v-87l2 -58v-16l-3 -58v-16l2 -58v-16l3 -58v-16l-6 -132l1 -10l1 -5l2 -5l5 -4l12 -2l34 -2l30 2h16l144 2l16 1l34 4l16 1h15l12 -3l7 -6l3 -7l1 -11l1 -56z" />
    <glyph glyph-name="m" unicode="m" horiz-adv-x="950" 
d="M847 144l-2 -53l1 -16l4 -31l1 -15l-1 -8l-1 -11l-5 -8l-6 -5l-11 -2l-15 -1h-16l-40 3l-17 1h-25l-18 1l-37 5l-7 2l-4 5l-1 10l-1 14l-1 15l2 34v94l-3 63v16l4 62v78l-2 12l-6 4h-6l-7 -9l-10 -14l-42 -48l-61 -73l-40 -50l-9 -8l-7 -3h-8l-11 2l-12 3l-11 8l-50 60
l-37 49l-10 12l-52 58l-13 13l-6 -2l-2 -11l-3 -63v-16l4 -63v-16l2 -63v-16l-1 -62v-15l1 -30l-1 -16l-1 -17l-2 -13l-4 -6l-7 -2l-26 -3l-16 -1l-39 3l-16 -1l-48 -4h-23l-12 2l-6 6l-2 7l-2 10v23l2 31v154l-2 53v16l1 53l-1 16l-3 54v16l3 53l1 16l-4 53l1 16l4 53v16
l-4 37v16l2 13l4 7l6 5l8 2l13 1l17 -2l22 -5h16l31 3l17 2l15 1l38 -1h13l11 -5l10 -11l35 -39l10 -13l29 -41l10 -13l33 -39l10 -14l31 -39l10 -11l9 -5h10l9 5l9 10l30 40l10 14l32 39l10 13l35 39l10 13l26 32l8 11l8 8l10 5l13 -1l53 -3l47 -1h16l30 2l17 -1l12 -2
l7 -2l6 -5l2 -8l-1 -12l-4 -45l-1 -16l2 -53v-16l-1 -53v-16l1 -53v-16l4 -54v-16l-4 -53v-16l3 -53v-16l-4 -53v-16z" />
    <glyph glyph-name="n" unicode="n" horiz-adv-x="821" 
d="M723 624l-3 -59l-1 -16v-148l3 -58v-16l2 -132v-17l-1 -8l-1 -17l-3 -48l1 -58l-1 -14l-4 -12l-8 -11l-10 -7l-9 -3l-14 -1l-51 -2l-16 -1l-25 -1h-16l-13 3l-12 5l-12 9l-9 13l-15 29l-9 13l-39 49l-10 12l-39 48l-9 13l-35 52l-9 12l-39 48l-10 12l-37 49l-9 8l-7 -3
l-3 -12l-2 -50v-16l1 -50v-16l1 -56v-16l-3 -56l1 -16l6 -40l1 -16l-3 -13l-7 -7l-7 -2l-12 -2l-8 -1l-17 -1l-46 1h-16l-41 -2h-16l-15 1l-11 2l-8 5l-4 7l-2 10l-1 7v15l2 33l1 16l-3 53v16l2 122l1 16l3 53l1 16v69l-4 53v16l4 53l-1 16l-4 54l-1 16v23l1 15l2 15l2 11
l3 7l6 3l11 2l30 2l30 -2h75l12 -1l5 -4l6 -9l42 -45l10 -12l37 -48l10 -12l37 -49l10 -12l36 -50l9 -12l38 -48l10 -12l36 -50l8 -7l8 -1l7 5v11l-7 42l-1 16l3 43v16l-4 61v16l4 61l-1 16l-3 37v25l3 13l4 8l7 4l12 2h9l17 1l45 -3h16l34 2l15 -1l23 -1l11 -2l7 -3l6 -7
l2 -14l1 -9l1 -17l-2 -31z" />
    <glyph glyph-name="o" unicode="o" horiz-adv-x="873" 
d="M812 403l2 -34l-1 -16l-2 -23l-2 -15l-6 -30l-2 -23l-2 -15l-3 -16l-4 -15l-10 -21l-7 -14l-27 -45l-9 -13l-10 -13l-10 -11l-16 -17l-11 -10l-13 -10l-12 -9l-18 -12l-13 -8l-15 -8l-14 -6l-20 -8l-15 -4l-32 -10l-17 -5l-16 -4l-17 -4l-17 -3l-17 -1h-54l-34 2l-33 4
l-14 3l-15 4l-54 18l-16 5l-17 7l-32 14l-15 8l-15 9l-13 10l-13 11l-12 13l-11 13l-27 27l-10 12l-10 13l-8 13l-8 20l-15 45l-6 21l-3 15l-3 16l-3 15l-3 22l-1 15l-1 17v17l1 17l1 18l2 17l3 17l4 17l5 17l5 15l6 16l7 23l7 16l4 9l8 15l14 22l10 14l5 8l12 12l17 14
l13 10l13 9l30 20l13 8l14 8l14 7l21 9l14 5l15 5l15 4l38 7l15 3l50 6l32 2l30 -2l24 -1l17 -2l17 -3l17 -4l17 -3l16 -4l15 -4l15 -5l21 -8l14 -6l33 -19l13 -9l13 -10l17 -16l11 -10l11 -11l9 -12l14 -19l8 -13l7 -13l8 -13l11 -20l8 -13l7 -15l5 -14l5 -23l6 -30l2 -17z
M602 328l2 24v17l-1 17l-1 16l-6 30l-4 14l-11 22l-8 13l-14 18l-10 11l-15 16l-11 9l-26 15l-14 6l-16 5l-16 3l-32 2l-15 -1l-22 -1l-15 -3l-26 -7l-16 -6l-23 -12l-14 -9l-16 -14l-11 -12l-11 -15l-8 -13l-3 -6l-9 -21l-5 -15l-3 -7l-3 -14l-2 -14l-1 -14l-1 -15v-15
l1 -16l3 -16l1 -9l4 -15l2 -7l5 -14l4 -8l8 -14l5 -8l11 -14l6 -7l12 -12l20 -17l14 -9l16 -8l15 -6l21 -7l15 -3l25 -3l17 -1l25 2l16 2l22 5l14 6l22 14l12 9l16 16l10 11l13 16l9 14l10 22l6 15l5 23z" />
    <glyph glyph-name="p" unicode="p" horiz-adv-x="742" 
d="M684 473v-8l1 -15l-1 -15l-1 -17l-5 -25l-3 -16l-8 -20l-6 -14l-10 -19l-9 -13l-14 -19l-11 -12l-13 -12l-13 -11l-13 -9l-14 -9l-22 -10l-15 -7l-17 -7l-15 -5l-22 -6l-15 -3l-15 -2l-16 -1l-26 -2h-84l-17 1l-17 -1l-17 -2l-12 -2l-3 -7l-1 -13l-4 -67v-16l1 -30
l-1 -15l-1 -22l-2 -11l-3 -6l-5 -2l-11 -2l-32 -2l-39 2h-16l-32 -2l-16 1l-23 1l-13 4l-6 6l-2 12l-2 15l-1 16v107l4 53v16l-4 53v16l-2 122v16l4 54v16l-3 53v16l4 53v15l-2 30l1 15l1 8l2 11l3 6l5 5l11 1l29 2l23 -1h15l67 1h67l67 -4h66l38 2l14 -1h8l15 -3l23 -6
l16 -5l16 -6l15 -7l15 -9l13 -10l18 -16l12 -10l5 -6l18 -18l10 -13l5 -6l7 -12l4 -6l6 -13l5 -15l4 -14l1 -7l4 -14l2 -8l4 -14zM476 440l1 7v25l-3 15l-3 8l-6 13l-4 6l-11 12l-8 5l-15 8l-26 7l-16 2h-23l-30 -2l-44 3h-15l-8 -1l-11 -2l-4 -3l-3 -7l-2 -12v-23l3 -37
l1 -16l1 -58l1 -12l3 -7l11 -4l52 -4l68 4l18 2l17 4l8 3l14 8l6 4l10 10l4 6l7 13l3 7z" />
    <glyph glyph-name="q" unicode="q" horiz-adv-x="884" 
d="M824 64l1 -8l-8 -9l-50 -49l-12 -11l-51 -50l-11 -7l-8 -1l-8 8l-27 33l-11 12l-29 28l-10 6l-12 -2l-15 -5l-16 -5l-15 -3l-32 -8l-16 -3l-15 -3l-17 -1l-9 -1h-38l-15 -1l-23 -1l-15 -1h-15l-16 1l-30 6l-23 5l-15 4l-32 12l-17 7l-15 8l-30 18l-39 28l-13 10l-17 16
l-10 11l-13 18l-8 13l-8 15l-8 14l-11 20l-7 14l-6 13l-5 15l-7 23l-6 30l-1 15l1 23l1 16l1 15v15l-1 16l-1 15v23l2 16l3 17l4 17l5 17l6 16l7 17l7 15l16 28l21 34l18 22l29 24l13 10l34 22l14 7l43 20l15 6l32 10l22 5l16 3l47 7l17 2l17 1h16l23 -1h15l16 -1l16 -3
l23 -4l15 -4l14 -4l36 -13l14 -6l13 -7l13 -6l15 -5l34 -17l13 -10l12 -12l12 -13l22 -26l12 -13l11 -14l9 -13l9 -14l7 -15l6 -14l7 -21l6 -15l5 -17l4 -16l4 -17l3 -16l1 -17v-18l-1 -17v-47l-2 -25l-2 -15l-5 -22l-5 -15l-6 -17l-6 -16l-5 -16l-6 -15l-10 -21l-4 -10v-7
l8 -10l55 -57zM599 321l3 30v16l-1 22l-3 16l-7 24l-5 15l-14 26l-8 14l-11 13l-11 11l-17 16l-13 9l-20 12l-14 6l-23 7l-15 3l-24 3h-17l-17 -1l-16 -3l-29 -9l-14 -5l-15 -7l-13 -9l-25 -19l-11 -12l-14 -19l-8 -14l-10 -22l-5 -15l-4 -17l-2 -15l-3 -45l1 -23l2 -15
l5 -25l5 -15l8 -22l8 -14l14 -21l11 -12l20 -13l14 -8l37 -15l22 -7l15 -4l25 -5h16l25 4l15 3l23 7l37 16l13 9l18 14l10 12l13 19l7 14l9 23l5 15l5 16z" />
    <glyph glyph-name="r" unicode="r" horiz-adv-x="759" 
d="M713 13l-4 -9l-13 -4h-70l-55 1h-16l-45 -2h-13l-9 4l-8 8l-32 45l-9 12l-32 43l-9 12l-28 46l-9 12l-32 43l-7 8l-6 3l-12 1l-32 2l-13 -1l-8 -6l-3 -13l-2 -55l1 -16l4 -56l1 -16l1 -24v-16l-1 -16l-2 -12l-5 -5l-11 -3h-16l-48 3l-46 -3h-16l-46 3l-12 2l-6 4l-2 10
l-1 14l-1 15l2 26l1 16l4 54v16l-3 54l-1 16l-1 53v16l3 54v16l-3 54v16l3 54v16l2 53v16l-1 54v16l-2 33l1 15l1 6l3 13l6 8l12 3l8 1l15 1l45 -2l119 -4l68 4h16l66 -4h38l17 -1l15 -3l21 -6l15 -5l15 -6l16 -6l15 -7l13 -8l19 -13l11 -9l10 -10l10 -12l14 -20l9 -13
l12 -19l7 -14l7 -15l5 -16l3 -16l1 -16l2 -22v-16l-1 -16l-2 -17l-3 -17l-4 -16l-6 -15l-7 -15l-9 -15l-9 -13l-9 -12l-9 -11l-16 -16l-11 -9l-20 -11l-12 -7l-13 -7l-13 -3l-8 -3l4 -8l36 -51l9 -12l36 -49l10 -12l36 -50l10 -12l31 -36l9 -11zM406 389l22 4l13 5l12 7
l10 12l7 15l4 16l1 16l-1 17l-2 17l-4 15l-7 15l-9 12l-11 9l-14 6l-22 5l-16 2l-50 1h-16l-51 -3l-12 -1l-7 -3l-6 -6l-1 -11l1 -23l2 -16l2 -17l1 -17l-2 -55l1 -11l2 -6l7 -3l12 -2l52 -4h16z" />
    <glyph glyph-name="s" unicode="s" horiz-adv-x="701" 
d="M644 241l1 -17l-1 -17l-2 -17l-3 -16l-5 -22l-5 -14l-9 -20l-7 -13l-12 -18l-10 -12l-12 -12l-12 -11l-20 -13l-13 -9l-15 -8l-14 -7l-23 -8l-30 -10l-16 -3l-25 -4l-15 -2l-22 -2l-14 -1l-23 -1l-48 -3h-22l-14 1l-23 2l-15 2l-17 3l-15 5l-22 7l-14 7l-15 7l-14 7
l-13 8l-32 22l-12 10l-18 14l-12 10l-11 11l-8 9l-1 7l5 9l4 5l10 11l28 26l9 11l17 26l9 11l10 11l11 6l11 -2l11 -8l32 -22l15 -8l14 -7l23 -11l15 -5l16 -5l16 -3l23 -1l16 -1l63 4l16 2l8 2l15 6l13 8l10 10l5 7l6 15l-1 17l-2 8l-8 14l-5 6l-13 10l-8 3l-15 6l-17 4
l-17 3l-95 9l-30 6l-16 4l-22 8l-15 5l-15 7l-34 17l-13 9l-15 9l-13 9l-17 14l-9 13l-9 15l-6 15l-7 21l-3 15l-3 22l-2 32l1 16l2 24l3 15l4 13l5 15l10 22l7 14l8 12l10 11l16 15l13 10l13 9l14 7l19 11l30 12l15 5l23 4l16 3l30 4l22 4l16 2l15 1h16l30 -3l15 -2l7 -2
l16 -2l34 -6l17 -4l16 -5l17 -5l16 -6l15 -7l15 -6l19 -11l14 -7l13 -9l9 -9v-10l-6 -11l-11 -20l-8 -12l-38 -50l-11 -14l-12 -10l-8 -3l-7 1l-10 5l-15 9l-15 6l-7 3l-15 5l-8 2l-17 4l-23 5l-16 1l-26 2h-26l-17 -1l-17 -3l-16 -5l-6 -3l-12 -9l-5 -6l-7 -14l-2 -16
l3 -13l8 -13l11 -10l12 -6l7 -3l15 -3l25 -3l34 -2l17 -3l34 -8l32 -10l23 -5l15 -4l28 -10l20 -9l14 -7l14 -8l13 -8l29 -24l11 -12l10 -12l12 -18l8 -13l7 -15l4 -15l4 -22z" />
    <glyph glyph-name="t" unicode="t" horiz-adv-x="688" 
d="M631 675l-2 -32l-1 -15l1 -30l-1 -16l-1 -8l-2 -12l-3 -7l-6 -5l-12 -2h-16l-30 3l-16 1l-46 -3h-16l-25 2h-15l-7 -1l-10 -3l-4 -6l-1 -13l-4 -59v-16l4 -60l-1 -16l-4 -60l-1 -16l2 -59v-92l-2 -59l1 -15l5 -45l1 -16l-3 -12l-5 -5l-13 -2l-19 1l-25 3l-17 1l-45 -3
h-16l-45 3l-12 1l-6 3l-2 11v17l3 42l1 16v75l1 60v16l1 59v16l-4 60l-1 16v76l-2 59v14l-3 8l-10 2h-15l-32 -2h-18l-27 2l-17 1l-17 -1l-23 -1h-15l-8 1l-11 2l-6 4l-4 6l-2 10v7l-1 16l2 30v15l-3 38l1 16l3 13l4 7l6 3l10 2h23l37 -3h16l58 4h16l59 -5h16l74 5l58 -1h16
l75 1h74l33 2l17 -1l8 -1l12 -2l7 -4l5 -7l2 -12v-7z" />
    <glyph glyph-name="u" unicode="u" horiz-adv-x="804" 
d="M710 397l3 -45l2 -32l-1 -15l-1 -23l-2 -15l-4 -24l-3 -16l-4 -23l-4 -15l-8 -21l-5 -14l-9 -21l-7 -14l-13 -20l-10 -13l-12 -13l-13 -11l-20 -16l-13 -9l-20 -12l-13 -7l-21 -10l-15 -5l-22 -8l-15 -4l-23 -4l-15 -3l-31 -2h-46l-23 2l-15 1l-55 6l-16 3l-9 1l-16 5
l-8 3l-16 7l-22 10l-15 9l-15 10l-26 22l-11 11l-13 17l-9 12l-16 26l-9 14l-8 15l-7 16l-6 15l-4 14l-4 15l-4 22l-3 17l-2 17l-2 34l-1 16l3 61v16l-2 61v16l3 61v93l-2 32v17l1 17l3 16l7 9l13 3l33 2l38 -3h16l33 1l15 -1l23 -1l13 -3l8 -8l3 -13l1 -14v-15l-2 -39v-16
l3 -61v-16l-1 -61v-16l-3 -61v-16l-1 -61l1 -16l2 -25l3 -16l6 -22l6 -15l10 -23l10 -12l16 -17l13 -8l22 -8l15 -4l26 -2h16l26 5l15 4l19 9l13 8l16 14l10 12l11 21l7 15l5 16l3 16l4 30l1 16l-4 61v16l3 62v16l2 61v16l-2 62l-1 16l-3 42v25l4 14l9 8l13 3h21l51 -4h16
l40 3h16l15 -1l13 -3l8 -7l1 -12l1 -30v-15l-1 -23v-16l3 -62v-16l-2 -61v-16z" />
    <glyph glyph-name="v" unicode="v" horiz-adv-x="824" 
d="M777 714l3 -9l-3 -13l-3 -9l-6 -16l-14 -27l-7 -15l-18 -56l-7 -15l-26 -53l-7 -15l-18 -55l-6 -16l-21 -54l-6 -16l-22 -54l-7 -15l-27 -53l-7 -15l-22 -54l-6 -16l-24 -52l-6 -16l-23 -54l-4 -11l-6 -4l-12 -1l-73 1l-16 -1l-56 -5l-17 -1l-13 2l-7 7l-6 12l-22 53
l-6 15l-26 55l-6 15l-22 53l-6 16l-18 55l-6 16l-24 53l-6 15l-26 55l-6 15l-20 54l-7 16l-24 52l-6 16l-18 56l-6 15l-18 29l-6 15l-3 9l-2 13l3 9l7 6l11 3l6 1h15l45 -3l48 1l64 -4l13 -1l8 -2l6 -8l4 -10l4 -14l10 -33l5 -16l24 -52l6 -16l20 -53l6 -16l20 -63l6 -16
l22 -62l25 -80l5 -11l7 -4l9 4l6 11l24 62l5 16l16 65l5 16l28 60l5 16l17 55l5 15l25 53l5 15l10 37l6 17l8 13l7 4l12 2h7l16 1l25 -2h64l46 3l18 -2l12 -3z" />
    <glyph glyph-name="w" unicode="w" horiz-adv-x="1150" 
d="M1113 716l-1 -10l-48 -126l-6 -15l-17 -56l-6 -15l-24 -56l-5 -15l-16 -56l-6 -16l-25 -52l-6 -16l-16 -57l-5 -15l-26 -55l-5 -15l-18 -56l-5 -16l-17 -56l-4 -10l-5 -5l-7 -1l-67 2l-78 5l-10 2l-5 8l-25 49l-5 14l-18 52l-4 14l-18 51l-5 14l-20 51l-6 14l-18 50l-5 9
h-3l-4 -9l-18 -51l-5 -14l-24 -48l-5 -14l-16 -53l-5 -14l-17 -51l-6 -14l-19 -50l-5 -11l-11 -5l-62 5h-16l-62 -5l-9 5l-4 12l-28 54l-5 15l-14 57l-5 15l-25 56l-6 15l-21 54l-5 16l-17 57l-5 15l-50 126l-6 15l-18 56l-7 16l-25 52l-7 15l-23 57l-1 12l6 7l11 3h15
l39 -3h16l69 -1h54l13 -1l4 -4l2 -10l23 -66l5 -15l20 -64l5 -15l26 -60l5 -15l20 -61l3 -16l12 -63l4 -9l6 -1l6 8l17 51l5 14l13 53l4 15l15 49l4 15l17 52l4 14l16 52l5 14l15 43l4 11l5 5l11 2l50 4l15 1l22 -1h15l15 -1l10 -4l6 -10l3 -8l6 -14l11 -28l5 -14l15 -52
l4 -14l16 -52l4 -14l12 -53l5 -14l24 -49l4 -14l3 -23l3 -16l4 -15l6 -8l6 1l5 11l12 58l4 15l8 21l5 15l8 22l5 16l10 47l5 16l17 45l6 15l19 45l5 15l10 38l4 12l6 7l12 2l53 -4h16l54 3h16l53 -4h11z" />
    <glyph glyph-name="x" unicode="x" horiz-adv-x="806" 
d="M740 11v-12l-8 -4l-15 1l-41 2l-16 1l-55 -2h-16l-55 1l-9 2l-6 7l-9 10l-18 25l-9 13l-21 37l-8 14l-74 118h-8l-39 -61l-8 -14l-24 -48l-9 -14l-24 -32l-10 -14l-30 -43l-10 -3h-15l-111 6l-16 -1l-43 -4l-14 -1l-7 6l1 10l8 12l104 151l9 14l32 45l8 13l32 45l8 13
l31 45l5 10l-1 5l-5 7l-31 44l-8 13l-26 46l-8 13l-32 43l-8 13l-36 56l-29 46l-8 12l-32 43l-2 9l2 2v5l8 5h30l16 -1l128 2l16 -1l14 -3l9 -8l12 -18l3 -6l8 -14l29 -47l8 -14l24 -50l8 -14l28 -48l8 -6l8 7l27 42l8 14l21 45l8 14l27 41l8 14l14 26l7 11l9 8l13 5l17 2
l16 -1l41 -3l16 -1l46 2h48l14 -3l6 -8l-5 -13l-9 -15l-9 -14l-36 -48l-35 -52l-8 -13l-32 -53l-8 -13l-36 -52l-8 -12l-33 -52l-5 -10l4 -11l26 -32l9 -13l43 -65l34 -52l8 -12l35 -52l9 -13l47 -66l9 -13l5 -7z" />
    <glyph glyph-name="y" unicode="y" horiz-adv-x="800" 
d="M764 715l-1 -4l-6 -9l-72 -106l-10 -13l-34 -46l-9 -13l-28 -49l-9 -14l-31 -46l-10 -14l-32 -46l-10 -13l-33 -46l-4 -8v-81l4 -54l-1 -16l-4 -54v-16l4 -42l1 -14l-3 -8l-4 -4l-9 -2h-66l-117 4l-4 3l-2 10v123l-1 16l-4 54l-1 16l4 54l-2 9l-7 7l-27 48l-9 14l-32 45
l-9 14l-29 48l-8 14l-70 106l-8 14l-30 47l-8 14l-29 48l-3 9l1 5l6 4h134l16 -1l58 -3l11 -1l4 -3l29 -50l8 -13l30 -45l8 -13l26 -46l9 -14l27 -43l7 -9l6 -2l7 7l25 48l9 13l31 44l9 13l25 47l8 14l28 46l8 10l8 2l11 -1l50 -3h16l58 3h16l57 -4l12 -2z" />
    <glyph glyph-name="z" unicode="z" horiz-adv-x="682" 
d="M614 162v-82l-2 -66l-2 -12l-9 -4l-8 -1h-14l-38 3h-15l-58 -3l-74 5h-16l-58 -3l-16 -1l-58 -1l-16 1l-58 3l-16 1h-58l-17 -1l-25 -2l-17 -1h-15l-9 4l-2 12l-2 40v10l4 9l32 45l9 14l30 47l8 14l32 45l8 14l29 48l8 14l31 47l8 14l40 58l34 46l41 59v11l-12 4l-56 4
h-16l-56 -1h-16l-56 -3h-37l-33 2l-11 4l-4 12v8l-1 17l-1 34v16l-2 61l5 10l13 1l125 4h16l55 -1h16l54 1h16l55 -3l71 4h16l71 -4l54 1l13 -2l5 -11v-7l1 -17l-1 -9l-1 -11l-6 -9l-31 -46l-40 -58l-8 -14l-32 -45l-8 -14l-27 -48l-9 -13l-32 -45l-9 -13l-37 -60l-30 -47
l-8 -13l-31 -46l-4 -10l3 -7l11 -3l17 -1h17l102 7h16l61 -2h16l39 3h15l8 -1l10 -4z" />
    <glyph glyph-name="braceleft" unicode="{" horiz-adv-x="414" 
d="M354 52l1 -15v-23l-2 -14l-2 -7l-2 -15l-2 -16l-1 -11l-1 -4l-2 -3l-4 -2l-18 -3l-15 -3l-8 -2l-14 -2l-6 -1l-15 -2h-38l-18 2l-17 4l-16 6l-16 9l-14 11l-12 12l-12 13l-11 14l-11 15l-8 16l-5 17l-2 15v22l1 17v38l-1 15v93l-1 17l-4 18l-9 12l-6 5l-12 6l-14 4l-10 3
l-5 3l-4 3l-3 5l-2 11l-2 30l-1 7l1 14v7l4 30l2 10l2 5l4 3l5 2l23 7l12 7l5 4l8 14l4 18v16l1 7l1 14l2 14v13l1 7v14l-1 6v14l-2 14l-1 14l-1 6v14l1 6l2 16l3 18l4 18l10 36l7 16l9 15l11 14l13 11l15 10l17 8l17 6l17 4l18 4l16 1l7 1h32l23 -3l16 -3l9 -2l12 -3l4 -2
l2 -3l1 -5l1 -10l2 -14l3 -16l2 -17l1 -6l-1 -16v-9l-2 -12l-4 -6l-5 -4l-6 -3h-27l-13 -3l-12 -5l-10 -8l-7 -10l-6 -13l-4 -16l-1 -16v-7l1 -14l1 -15v-36l1 -7l1 -14l2 -30l1 -7v-14l-1 -15l-1 -16l-2 -9l-4 -17l-4 -8l-8 -13l-9 -11l-7 -10l-2 -7l2 -6l6 -10l6 -7l8 -14
l2 -7l4 -17l1 -8l1 -17v-61l-1 -16v-25l1 -15v-29l1 -7l2 -15l3 -16l8 -14l5 -6l14 -8l7 -2l15 -2h25l7 -2l6 -2l3 -5z" />
    <glyph glyph-name="bar" unicode="|" horiz-adv-x="329" 
d="M228 -7l2 -23v-37l-1 -14l-2 -23l-2 -13l-7 -7l-13 -2h-38l-23 2l-16 -1l-23 -2l-16 -1l-22 2l-13 2l-8 7l-3 12l-2 23l1 15l1 22l1 15l1 23v14l2 23v14l-2 23v15l-3 95v90l-2 58l1 15l2 23l2 14l1 23v14l-2 23l-2 14l-1 23l-1 15v58l1 16l4 58l1 15l-2 23v14l2 23l2 12
l7 5l12 2l22 2l16 1h23l16 1l23 2l16 1l23 -1l13 -3l7 -9l2 -13l2 -23l1 -14l1 -23l-1 -14l-2 -23l-2 -14l-1 -23l-1 -15v-73l2 -23l1 -14l1 -23l1 -15l-4 -58v-126l1 -23v-51l1 -23v-14l-1 -23v-51l1 -23v-14z" />
    <glyph glyph-name="braceright" unicode="}" horiz-adv-x="415" 
d="M342 349l1 -11l-5 -12l-13 -10l-8 -2l-15 -10l-9 -17l-2 -18l-1 -16v-21l-1 -15v-36l-1 -8v-28l-1 -15v-24l-2 -19l-3 -17l-4 -17l-5 -17l-6 -17l-8 -15l-10 -15l-12 -12l-13 -10l-15 -9l-16 -8l-17 -6l-16 -4l-18 -4l-18 -3h-18l-16 2l-20 4l-8 2l-14 3l-8 1l-10 3l-5 1
l-5 2l-3 4l-2 11l-1 15l-2 15l-1 8l-1 14l1 8l2 30l2 12l3 5l5 3l8 2h11l14 -1l15 2l7 3l14 8l5 5l8 14l3 17l1 15l1 7l1 14v28l1 7v14l-1 7v28l-1 14l-1 7v14l1 14l1 15l2 9l4 15l3 8l8 14l6 6l7 11l4 6l1 6l-1 7l-8 10l-7 6l-10 15l-3 7l-6 16l-1 9l-2 15l-1 15v36l1 15
v41l1 16l1 15v21l-1 16l-3 17l-5 13l-7 10l-9 8l-12 7l-14 4l-14 1l-12 1l-6 1l-5 2l-3 4l-2 10l-2 14l-1 17v16l1 6l1 14l2 14l2 10l2 4l3 2l5 1l11 2l7 2l15 2h7l14 1l23 2h20l17 -1l18 -2l16 -3l14 -4l21 -9l16 -10l13 -11l11 -14l9 -15l7 -17l6 -18l4 -17l4 -36v-36
l-1 -7v-62l1 -6l2 -14l3 -14l1 -14l1 -6l1 -16l3 -18l10 -15l14 -9l13 -4l9 -4l2 -4v-5l-1 -7l-1 -12v-56z" />
    <glyph glyph-name="asciitilde" unicode="~" horiz-adv-x="624" 
d="M557 389l-2 -10l-1 -7l-4 -14l-3 -6l-6 -16l-9 -17l-9 -15l-4 -5l-9 -11l-5 -4l-11 -9l-5 -4l-12 -7l-6 -4l-15 -7l-18 -6l-17 -4l-7 -2l-14 -1l-8 -1l-15 1l-16 3l-16 6l-45 21l-45 24l-16 7l-16 4l-15 1l-14 -3l-13 -6l-13 -10l-10 -12l-5 -5l-6 -8l-8 -6h-5l-27 5
l-15 4l-8 2l-14 5l-6 3l-14 8l-13 9l-9 6l-4 4l-2 3l-1 5l1 10l1 6l4 14l3 6l6 16l9 18l9 13l5 6l9 10l4 5l10 9l6 4l11 8l6 3l15 8l19 7l16 4l7 2l14 2h23l16 -4l16 -5l16 -7l31 -14l30 -16l16 -8l16 -6l16 -5l16 -2h14l13 5l12 9l9 12l3 7l6 9l5 4l4 1h6l41 -11l6 -2
l14 -5l20 -10l15 -7l10 -5l4 -3l2 -4z" />
    <glyph glyph-name="exclamdown" unicode="&#xa1;" horiz-adv-x="329" 
d="M251 424l1 -6v-14l-1 -6l-4 -13l-2 -7l-7 -12l-4 -6l-9 -11l-4 -5l-12 -11l-16 -11l-16 -7l-6 -3l-15 -3l-7 -1h-17l-18 2l-17 5l-15 6l-13 9l-12 12l-9 14l-7 15l-5 16l-4 17l-2 16l2 17l6 16l8 14l10 12l14 12l14 9l14 6l16 4l18 3l17 -1h7l15 -3l7 -2l13 -5l6 -3
l13 -8l12 -11l5 -6l9 -11l3 -6l6 -13l3 -6zM238 -93l2 -22v-38l-1 -15l-3 -23l-2 -13l-6 -7l-13 -3l-26 -1l-16 -1l-26 1l-17 -1l-25 -2l-17 -1l-26 1l-12 3l-6 10l-3 14l-2 23l-1 15l1 22v16l-1 22v15l-1 23l1 15l1 22l2 16l2 22v16l-1 22l-1 15l-2 23v113l1 15l4 23l3 14
l6 9l13 2l24 2l16 -1l25 -2h16l25 1l16 1l24 -2l15 -2l9 -8l3 -14l-2 -60v-54l1 -22v-15l1 -23v-15l1 -22l-1 -16l-1 -22l-1 -16l-2 -22l1 -15l1 -23z" />
    <glyph glyph-name="cent" unicode="&#xa2;" horiz-adv-x="555" 
d="M498 76l-2 -8l-10 -10l-6 -5l-14 -11l-7 -5l-15 -10l-15 -8l-15 -6l-16 -5l-8 -2l-25 -5l-3 -4l-1 -10l1 -30l-1 -16l-3 -14l-6 -8l-7 -4l-11 -2h-26l-25 3h-16l-30 -2l-15 1h-7l-13 2l-7 5l-3 7l-2 12v26l1 17l1 13l-2 7l-5 1l-11 3l-15 5l-14 7l-28 15l-15 10l-12 9
l-12 11l-6 7l-11 13l-5 6l-9 14l-7 13l-7 14l-5 15l-6 16l-4 18l-3 17l-3 15l-1 15l-1 16v16l2 30v8l3 16l1 9l5 16l5 15l5 14l14 26l3 6l18 24l9 11l10 11l11 10l6 4l13 9l13 7l15 7l24 10l8 2l11 4l5 2l1 10l-1 38l2 18l2 15l4 8l5 3l11 2l29 2l23 -2h14l30 1l15 -1l8 -1
l12 -2l7 -5l4 -7l2 -11l1 -16l-1 -25l1 -10l2 -5l5 -3l27 -8l15 -5l13 -6l14 -8l15 -9l13 -10l11 -9l6 -7l2 -6l-1 -9l-7 -11l-4 -8l-10 -13l-22 -24l-13 -17l-16 -16l-9 -6l-7 -1l-8 2l-12 7l-13 8l-14 5l-8 3l-14 3l-14 1h-22l-14 -3l-14 -5l-14 -7l-6 -4l-11 -9l-10 -12
l-10 -14l-8 -16l-2 -9l-4 -15l-1 -14v-22l3 -16l1 -7l6 -16l8 -14l4 -5l11 -10l5 -4l13 -6l13 -5l15 -4l22 -3l15 1h7l16 3l9 2l16 6l7 3l15 9l12 8l7 3l6 -1l12 -7l12 -14l17 -19l10 -13l31 -35l7 -9z" />
    <glyph glyph-name="sterling" unicode="&#xa3;" horiz-adv-x="673" 
d="M608 31v-11l-2 -7l-8 -7l-12 -5l-14 -1h-15l-16 1h-9l-16 2l-29 2h-64l-64 -4h-32l-16 1h-16l-16 -1h-47l-47 -2h-16l-47 2h-16l-70 -2l-12 3l-9 9l-5 14v17l1 17l2 17l1 16l-1 17l2 32l2 14l5 8l13 6l16 6l13 8l11 11l10 13l8 15l6 15l3 17l3 13l1 8l-10 4l-17 2l-33 2
l-15 -1l-12 3l-7 9l-2 14l1 16l2 15l1 17l1 18l1 17l2 13l8 8l12 2l15 1h15l7 4v10l-2 13l-3 14l-2 15v8l-1 15v22l1 15l2 17l3 17l5 17l6 16l7 16l8 15l10 14l11 13l13 12l13 11l15 9l15 8l16 7l32 12l17 5l17 4l16 3l34 4l17 1l17 -1l23 -1l38 -5l15 -3l23 -4l15 -4l21 -7
l14 -6l20 -13l13 -9l16 -16l10 -11l13 -19l7 -13l10 -23l4 -14l5 -22l2 -15l1 -24l-2 -13l-9 -6l-13 -3l-23 -1l-14 -1l-23 1h-15l-22 -1h-15l-23 2l-12 2l-7 6l-5 11l-5 15l-7 12l-4 6l-11 9l-13 4l-22 5l-14 1l-14 -2h-7l-15 -4l-13 -8l-9 -11l-6 -13l-2 -15l-2 -23v-28
l1 -15l3 -15l3 -12l7 -6l13 -2l38 -2h16l73 4l15 1l7 -1l13 -2l9 -8l4 -13l1 -15l-1 -15v-16l-2 -50l-1 -10l-7 -6l-12 -5l-23 -2l-15 -1l-58 2h-15l-23 -1l-10 -2l-2 -8l-1 -13l-4 -23l-4 -15l-8 -23l-7 -13l-2 -10l9 -4h101l30 -1h15l74 2h16l51 -3l12 -1l6 -1l9 -4l8 -7
l3 -13v-7l1 -15v-44l-1 -6v-21z" />
    <glyph glyph-name="currency" unicode="&#xa4;" horiz-adv-x="629" 
d="M552 217l8 -13v-11l-7 -12l-5 -5l-10 -12l-78 -73l-10 -8l-11 -1l-13 6l-5 4l-12 11l-23 26l-11 10l-7 3l-10 -1l-8 -2l-30 -4l-15 -1l-6 -1h-16l-9 1l-18 1l-24 3l-8 2h-10l-7 -3l-9 -9l-39 -40l-12 -7l-11 2l-11 8l-41 39l-12 11l-40 39l-8 12l1 11l8 12l18 21l7 6
l9 11l2 7l-3 13l-5 17l-1 9l-3 17v7l-2 34l1 7v15l1 6l2 15l1 8l5 17l4 15v9l-8 9l-31 28l-8 12l1 10l9 11l39 39l33 39l11 12l5 4l12 7l11 -2l12 -9l6 -5l13 -12l23 -24l10 -8l7 -1l14 2l16 3l30 2l9 1h16l15 -1l14 -2l14 -1l27 -5l7 3l9 8l43 44l12 6l10 -1l10 -8l53 -49
l23 -22l11 -13l5 -6l8 -13l1 -11l-8 -12l-11 -13l-16 -15l-8 -9l-4 -7l2 -11l4 -14l4 -15l3 -15l1 -9l2 -17v-18l-1 -9l-1 -15v-7l-3 -16l-1 -8l-7 -28l-1 -9l8 -9l14 -11zM354 298l4 6l6 13l3 7l3 17l-1 16l-2 15l-4 13l-3 7l-8 11l-5 6l-12 9l-16 6l-17 3h-17l-8 -1
l-14 -4l-13 -5l-13 -8l-11 -14l-7 -16l-4 -16v-21l5 -22l6 -14l4 -7l12 -12l14 -9l21 -6h8l16 1l17 3l15 5l11 8z" />
    <glyph glyph-name="yen" unicode="&#xa5;" horiz-adv-x="814" 
d="M762 719l4 -7l-4 -11l-4 -7l-8 -12l-21 -26l-9 -13l-26 -46l-9 -13l-35 -42l-9 -13l-26 -47l-8 -13l-31 -45l-5 -9l2 -4l11 -2l51 -4l6 -6l2 -13l3 -34v-16l-3 -34l-1 -11l-6 -6l-14 -4h-131l-7 -4l-2 -11v-15l1 -12l6 -4h13l46 4l15 1h23l14 -1l23 -3l12 -3l6 -7l2 -13
l6 -33l1 -15l-2 -30l-3 -11l-9 -6l-14 -2l-58 -4h-16l-49 3h-13l-5 -4l-1 -11l-2 -76l-1 -14l-6 -8l-13 -3l-69 2h-16l-69 -3l-12 1l-8 6l-5 8l-1 11l2 76l1 9l-8 1l-131 2l-13 2l-8 4l-4 7l-2 12l-1 17v17l5 42l3 15l7 9l13 2l62 -1h15l38 -2h17l9 8l-2 25l-8 8l-57 -1
l-74 5l-12 3l-6 3l-3 8l-2 15l-1 15v16l-1 46l5 12l9 6l14 2h17l24 -1h13l4 4l-3 7l-8 10l-27 42l-10 14l-29 41l-9 14l-25 44l-9 14l-30 40l-9 13l-30 45l-4 11l3 8l8 5l13 3l22 4l17 1l9 -1l67 -4h16l34 3l16 1l14 -6l10 -8l7 -10l21 -38l8 -14l36 -56l7 -14l35 -69l7 -14
l21 -39h8l28 53l8 14l28 51l8 14l32 53l8 13l28 46l7 10l5 5l7 2h11l53 1l16 1l53 4l31 2l16 -1l22 -3z" />
    <glyph glyph-name="brokenbar" unicode="&#xa6;" horiz-adv-x="337" 
d="M239 494l-4 -52l1 -16l1 -17v-17l-1 -17l-3 -13l-7 -6l-14 -3l-24 -2l-16 -1l-24 1h-16l-24 -1l-16 1l-24 2l-13 3l-6 6l-3 13l-2 17l-2 34v17l4 34l1 17l1 16l-4 52v17l1 17v18l1 17l-1 17l-2 17l-1 17v17l3 14l8 8l14 2h24l16 -1l25 -2h16l25 1l16 1l24 -2l13 -2l5 -7
l3 -13l3 -17l2 -16l1 -17l-2 -34l-2 -18l-1 -17v-17zM235 -12l2 -17l1 -18v-17l-2 -14l-9 -8l-14 -2l-24 -1l-16 1l-25 3h-16l-25 -1l-16 -1l-36 3l-6 7l-2 14l-3 17l-2 17l-1 17v17l4 54l1 17l-1 17l-2 18l-1 17l-1 16l4 54v17l-1 17v18l1 17l2 13l8 6l13 2l24 2l16 1
l24 -1h16l24 1l16 -1l24 -2l13 -2l7 -6l2 -14l4 -34l1 -17l-1 -18l-2 -17l-2 -18l-1 -17v-17l1 -17l1 -18l1 -17v-17l-2 -54z" />
    <glyph glyph-name="section" unicode="&#xa7;" horiz-adv-x="673" 
d="M600 385l1 -17v-6l-2 -14l-3 -8l-9 -21l-9 -14l-5 -6l-11 -13l-6 -6l-8 -9l-2 -6v-6l2 -6l18 -18l9 -10l7 -12l6 -13l6 -14l4 -13l2 -13l-1 -14v-7l-2 -14l-1 -6l-3 -15l-6 -17l-9 -17l-11 -15l-13 -15l-14 -13l-16 -11l-16 -9l-18 -8l-18 -7l-18 -6l-18 -3l-22 -4
l-17 -2l-58 -6l-16 -1h-37l-39 3l-15 1l-38 7l-53 13l-17 6l-34 14l-30 17l-18 14l-8 6l-3 5v6l2 6l6 11l8 12l7 9l10 11l10 15l11 22l8 14l8 9l5 3l6 1l5 -2l11 -6l16 -9l30 -14l16 -7l18 -5l16 -5l16 -3l15 -3l23 -4l16 -2l16 -1h15l15 1l14 2l12 2l15 4l15 5l10 7l4 9
l-2 13l-11 12l-16 7l-14 3l-15 1l-23 2h-17l-16 1l-22 2l-34 5l-38 7l-15 5l-17 5l-34 14l-15 8l-14 10l-15 11l-12 13l-10 14l-8 15l-6 15l-4 17l-2 19l1 16l1 7l4 15l3 7l8 15l5 8l10 12l11 9l8 8l3 5l1 6l-3 5l-8 9l-11 11l-10 11l-7 12l-7 14l-2 8l-4 15l-1 7l-1 14l1 6
l2 17l5 18l6 18l8 16l12 14l13 14l15 12l15 11l15 9l17 8l18 8l17 6l18 4l57 10l36 4h35l45 3l15 -1h7l17 -3l16 -4l6 -2l13 -5l7 -2l13 -6l6 -2l16 -7l17 -9l14 -9l5 -3l12 -8l6 -5l8 -6l3 -5l1 -5l-2 -6l-7 -10l-22 -24l-5 -5l-10 -11l-6 -6l-23 -21l-8 -7l-5 -2l-5 1
l-14 8l-15 6l-17 5l-18 4l-17 4l-52 6l-17 -1l-25 -2l-15 -3l-15 -5l-13 -6l-7 -4l-9 -11v-13l9 -11l6 -3l13 -6l28 -6l23 -1l15 -1h56l16 -2l22 -2l16 -2l18 -4l16 -4l22 -8l16 -5l16 -8l15 -10l14 -12l12 -14l11 -15l7 -16l5 -17zM414 341l5 11v11l-6 10l-10 9l-14 8
l-15 5l-14 3l-14 2l-15 1h-16l-30 -2l-13 -2l-15 -5l-15 -8l-10 -10l-6 -11l1 -12l5 -10l11 -9l16 -6l15 -4l14 -3l15 -2l15 -1h30l14 1l14 2l14 5l14 8z" />
    <glyph glyph-name="dieresis" unicode="&#xa8;" horiz-adv-x="571" 
d="M205 670v-15l-3 -16l-5 -14l-7 -12l-8 -11l-12 -9l-13 -8l-14 -6l-17 -4l-9 -1h-23l-13 3l-13 4l-12 6l-11 7l-10 10l-10 12l-8 13l-4 13l-2 14v15l2 14l3 11l6 13l11 14l12 12l13 9l15 6l7 3l15 3h6l15 1l15 -2l6 -2l16 -4l14 -8l6 -4l11 -9l8 -11l7 -16l5 -17zM510 670
v-15l-3 -16l-5 -14l-7 -12l-8 -11l-12 -9l-13 -8l-14 -6l-17 -4l-9 -1h-23l-13 3l-13 4l-13 6l-10 7l-10 10l-10 12l-8 13l-4 13l-2 14v15l2 14l3 11l6 13l11 14l12 12l13 9l15 6l7 3l15 3h6l15 1l15 -2l6 -2l16 -4l14 -8l6 -4l11 -9l8 -11l7 -16l5 -17z" />
    <glyph glyph-name="copyright" unicode="&#xa9;" horiz-adv-x="833" 
d="M768 429l1 -23l1 -15v-38l-1 -22l-1 -15l-2 -22l-3 -14l-4 -23l-4 -14l-7 -21l-5 -14l-8 -21l-6 -14l-10 -19l-7 -13l-12 -20l-9 -12l-14 -17l-11 -11l-17 -13l-13 -9l-19 -12l-15 -8l-15 -9l-15 -8l-21 -10l-14 -5l-21 -8l-14 -4l-23 -4l-14 -3l-23 -2l-15 -1l-22 -1
h-16l-23 1l-15 1l-23 2l-14 3l-23 4l-14 4l-22 7l-14 5l-22 9l-14 6l-19 11l-13 7l-20 13l-12 9l-17 14l-11 11l-14 17l-9 12l-13 20l-8 12l-11 20l-7 13l-10 21l-5 14l-8 21l-4 15l-5 22l-3 15l-3 23l-1 15l-2 22l1 16l2 22l3 15l4 23l3 14l4 23l3 14l6 22l5 14l17 34
l11 19l8 13l14 19l9 12l15 16l11 11l17 14l12 9l19 14l13 8l19 10l14 7l21 9l14 5l22 6l15 3l22 5l15 2l23 2l15 1l22 2h54l22 -2l14 -2l23 -6l71 -25l14 -6l19 -10l13 -8l18 -13l11 -10l17 -16l10 -11l15 -16l9 -12l13 -19l7 -12l11 -20l6 -13l7 -22l5 -14l8 -21l4 -14
l5 -22zM657 368l1 23l-1 16l-1 17l-3 16l-5 21l-5 15l-7 17l-8 16l-9 15l-11 15l-11 13l-12 13l-13 12l-13 10l-18 12l-14 8l-15 8l-15 7l-21 7l-16 4l-33 2h-37l-23 -2l-16 -1l-17 -3l-16 -3l-21 -8l-15 -6l-15 -7l-33 -19l-28 -23l-11 -12l-11 -13l-10 -13l-11 -19l-8 -14
l-7 -16l-6 -15l-8 -21l-3 -16l-3 -17l-1 -16l-2 -23v-14l1 -23l1 -14l2 -22l3 -14l6 -22l6 -15l7 -17l7 -14l12 -19l23 -28l12 -10l14 -11l13 -10l20 -11l12 -7l20 -11l13 -6l20 -7l14 -4l22 -2l14 -1l23 -1l14 1l23 1l16 3l17 3l15 3l21 6l15 6l16 7l14 9l16 13l13 10
l14 11l13 11l13 12l9 13l9 21l6 15l6 16l5 15l6 22l3 16l2 17l1 15v37zM561 232v-6l-1 -6l-8 -7l-6 -5l-12 -7l-6 -4l-12 -6l-7 -3l-15 -6l-16 -6l-22 -7l-17 -4l-6 -1l-14 -2h-7l-15 -1l-24 2l-17 2l-19 5l-19 6l-15 7l-6 4l-14 9l-15 12l-15 13l-13 15l-10 13l-3 5l-7 12
l-3 7l-5 15l-4 18l-3 16v6l-1 14l-1 8v8l1 7v7l3 15l6 22l6 17l6 15l2 7l8 15l9 13l4 6l10 12l14 14l13 10l20 12l14 7l7 3l15 6l19 5l16 3l6 1l14 1l6 1h20l14 -1l6 -1l16 -3l36 -12l18 -8l15 -7l6 -4l11 -7l6 -5l7 -7l1 -5l-1 -5l-3 -6l-6 -9l-4 -5l-8 -11l-10 -9l-12 -9
l-5 -4l-8 -5l-4 -2l-4 -1l-5 1l-11 6l-16 8l-18 5l-19 3l-16 1l-8 -1l-14 -1l-6 -2l-13 -3l-7 -3l-14 -7l-13 -13l-10 -15l-7 -16l-1 -7l-3 -15v-29l3 -13l3 -7l7 -14l11 -14l14 -12l17 -9l19 -6l16 -4h26l17 4l18 6l17 10l10 6l5 2h4l5 -2l8 -6l5 -4l12 -8l10 -10l9 -11
l4 -5l6 -9z" />
    <glyph glyph-name="guillemetleft" unicode="&#xab;" horiz-adv-x="550" 
d="M301 137l-6 -10l-13 -5l-15 -3l-15 -1l-15 1h-15l-15 -1h-15l-15 1l-12 1l-7 4l-9 10l-13 21l-9 14l-14 22l-8 14l-13 23l-8 14l-13 22l-9 14l-13 22l-9 14l-12 22l-6 12l-1 8l4 11l14 21l9 14l15 20l9 14l58 94l9 14l14 20l7 11l6 5l11 1l15 1h15l15 -1h15l15 1l31 -2
l10 -2l4 -5l3 -10l-1 -13l-7 -14l-32 -46l-18 -30l-9 -14l-10 -20l-8 -12l-13 -18l-8 -12l-11 -19l-5 -10v-8l5 -12l12 -19l8 -14l13 -19l8 -14l12 -19l8 -14l13 -19l9 -13l13 -19l8 -13l11 -21zM480 172l11 -21l3 -14l-6 -10l-13 -5l-15 -3l-15 -1l-15 1h-15l-15 -1h-15
l-15 1l-12 1l-7 4l-8 10l-14 21l-9 14l-13 22l-8 14l-14 23l-8 14l-13 22l-8 14l-14 22l-8 14l-13 22l-6 12l-1 8l4 11l14 21l9 14l15 20l9 14l58 94l9 14l14 20l7 11l6 4l10 1l14 1h83l12 -1l7 -5l4 -4l2 -3l3 -7v-10l-6 -12l-13 -18l-8 -12l-14 -18l-8 -12l-10 -20l-8 -12
l-11 -20l-8 -12l-13 -18l-8 -12l-15 -30v-8l5 -12l11 -19l8 -14l13 -19l8 -14l12 -19l8 -14l13 -19l9 -13l13 -19z" />
    <glyph glyph-name="logicalnot" unicode="&#xac;" horiz-adv-x="546" 
d="M469 304l2 -41v-25l-3 -13l-5 -5l-11 -1h-24l-31 2h-15l-30 -1l-16 1h-8l-13 2l-5 3l-2 10l-1 15v15l1 66l-1 12l-3 4h-11l-51 -1h-16l-52 2h-135l-11 2l-5 4l-2 11l3 45l-1 16l-2 25v18l3 12l4 4l11 1h72l71 1h143l55 1h16l56 -4h11l4 -3l1 -11v-151z" />
    <glyph glyph-name="registered" unicode="&#xae;" horiz-adv-x="829" 
d="M767 405v-95l-2 -18l-2 -17l-4 -22l-3 -15l-6 -22l-5 -15l-8 -17l-10 -17l-19 -32l-9 -14l-14 -18l-10 -13l-13 -13l-14 -13l-14 -12l-16 -11l-32 -18l-17 -7l-22 -8l-52 -15l-16 -4l-17 -2l-22 -2l-16 -2h-77l-19 2l-18 3l-19 4l-16 4l-22 8l-16 6l-34 14l-17 9l-16 10
l-15 11l-15 12l-14 13l-12 11l-17 17l-11 12l-11 15l-10 13l-12 20l-8 15l-7 18l-7 17l-5 18l-4 19l-3 19l-3 18l-3 19l-1 17l-2 22l1 16v9l1 12l1 19l3 18l3 19l4 18l5 18l6 18l6 15l8 22l7 16l9 17l10 16l10 13l16 16l12 13l13 13l15 11l32 21l14 9l20 10l15 9l17 8l18 6
l17 6l18 6l57 10l18 2l17 1h41l16 -2l23 -2l17 -3l18 -4l36 -12l17 -6l17 -8l17 -9l16 -10l15 -10l14 -9l31 -24l14 -13l13 -14l12 -14l12 -15l9 -16l8 -16l6 -17l12 -38l6 -16l6 -18l4 -19zM510 102l16 7l16 8l28 22l13 13l12 13l12 14l10 15l9 15l8 16l12 34l8 36l3 17
l2 17l1 19v19l-4 36l-3 17l-4 15l-6 22l-5 15l-6 16l-16 32l-9 16l-11 14l-12 13l-13 12l-13 10l-18 12l-14 8l-35 14l-16 4l-17 4l-17 3l-16 1l-23 2h-16l-19 -2l-34 -8l-16 -4l-22 -6l-15 -5l-16 -6l-16 -8l-16 -10l-15 -10l-14 -11l-13 -13l-11 -14l-10 -13l-10 -20
l-8 -14l-7 -16l-5 -17l-5 -18l-4 -17l-2 -16l-2 -22v-55l2 -34l4 -18l5 -16l8 -20l7 -15l8 -14l10 -20l9 -13l11 -14l12 -13l14 -12l15 -10l32 -18l16 -7l15 -6l22 -6l16 -4l35 -6l37 -2l19 1l18 2l17 3l17 4l18 5zM564 411v-22l-3 -13l-5 -17l-7 -14l-11 -13l-15 -12
l-16 -9l-10 -6l-4 -6l-2 -8v-7l5 -10l48 -74l6 -10v-9l-4 -10l-8 -4h-14l-34 1l-9 1l-10 4l-4 2l2 -3l-2 -2l-9 3l-8 7l-7 11l-14 30l-8 14l-16 29l-7 9l-9 3l-9 1h-9l-5 -1l-6 -2l-7 -7l-2 -13l-4 -62l-2 -14l-7 -8l-12 -4l-25 -2l-8 1l-15 1l-7 1l-15 4l-10 10l-2 15l1 17
v15l-1 23v15l-1 22v167l-1 22l1 16l2 22l3 14l5 7l6 2l9 1l22 1l16 1l62 -2h16l60 -4l16 -2l16 -4l14 -6l20 -10l12 -10l13 -11l10 -14l8 -16l6 -15l4 -17zM427 362l15 7l11 13l4 15l-1 16l-5 15l-9 13l-14 7l-17 2l-39 -2l-13 -2l-8 -9l-2 -15v-8l1 -18l1 -8l2 -15l6 -8
l13 -3l40 -2z" />
    <glyph glyph-name="macron" unicode="&#xaf;" horiz-adv-x="472" 
d="M401 664l2 -23l1 -11l-1 -11l-2 -12l-5 -7l-6 -4l-13 -2l-9 -1h-16l-30 2h-16l-127 2h-16l-56 -1l-49 -3h-16l-7 1l-11 2l-6 4l-4 8l-2 13l-1 8v17l1 17v16l-1 17v17l2 9l2 13l3 7l6 4h11l56 -1h16l56 4h16l71 -1l56 -2l48 3h16l8 -1l12 -2l7 -5l4 -7l1 -9l2 -10l-3 -36
v-15z" />
    <glyph glyph-name="degree" unicode="&#xb0;" horiz-adv-x="421" 
d="M351 597l1 -6v-14l-1 -6l-1 -14l-2 -7l-4 -16l-6 -16l-3 -6l-9 -13l-12 -13l-5 -4l-11 -9l-5 -3l-13 -7l-6 -4l-16 -6l-18 -7l-17 -4l-22 -3h-7l-16 -1l-7 1l-15 1l-7 1l-14 3l-6 1l-15 5l-15 7l-7 3l-11 8l-6 5l-12 11l-12 15l-10 16l-3 6l-2 2l-5 11l-6 19l-4 16v26
l3 14l1 6l4 13l3 7l5 12l4 6l7 11l4 6l11 12l13 11l5 5l12 8l7 3l15 8l15 5l6 1l14 3l7 2l15 1l7 1h16l7 -1l15 -1l7 -2l17 -4l18 -6l15 -8l7 -3l12 -8l5 -3l11 -9l5 -4l11 -12l9 -14l4 -6l5 -13l2 -6l4 -16zM233 579v9l-2 10l-3 8l-4 7l-7 6l-8 5l-8 3l-9 1h-9l-9 -2l-9 -3
l-7 -5l-7 -6l-5 -6l-4 -8l-2 -10v-10l2 -9l4 -7l5 -7l14 -10l9 -3l9 -1h9l9 1l8 3l8 5l6 5l4 7l4 8z" />
    <glyph glyph-name="plusminus" unicode="&#xb1;" horiz-adv-x="565" 
d="M485 493l-1 -17v-16l1 -17l-2 -32l-3 -13l-8 -7l-14 -2l-93 -4l-13 -1l-8 -7l-2 -13l1 -38v-16l1 -37l-3 -13l-9 -7l-13 -3l-22 -2l-14 -1l-22 1h-14l-22 -1l-14 1l-22 1l-12 3l-6 8l-2 13l-1 38v16l-1 37l-2 14l-8 9l-14 2l-95 -2l-13 2l-8 8l-3 14l-1 16v16l1 17l1 16
l-1 16v16l1 17l3 13l8 7l13 1l39 -1h16l39 2l14 3l7 8l2 14v53l1 38l2 13l8 7l12 2l22 3l15 1h56l15 -1l22 -2l12 -3l6 -7l1 -14l2 -90l3 -14l8 -7l14 -2l93 -2l14 -1l9 -7l4 -14l1 -16zM485 105l2 -30l-1 -15l-3 -13l-9 -7l-13 -3l-22 -1l-14 -1h-22l-33 2h-17l-92 3h-16
l-55 -2h-72l-15 -1l-22 -1l-14 -1l-22 2l-12 2l-8 8l-3 14l-1 15v15l2 30l-1 15v15l1 15l3 13l8 7l14 2l17 1h53l56 -2h16l55 4h51l22 -1h85l22 1l14 -1l22 -2l13 -2l9 -7l3 -12l1 -15l-1 -16l-1 -15v-16z" />
    <glyph glyph-name="acute" unicode="&#xb4;" horiz-adv-x="327" 
d="M280 744l2 -7l-6 -10l-39 -52l-10 -12l-41 -50l-9 -10l-10 -5l-12 -2l-8 -1l-49 3h-74l-9 1l-3 1l-1 3v3l30 60l8 14l24 53l6 10l5 3h12l8 1h16l23 -1h15l47 1h15l22 2l28 -2z" />
    <glyph glyph-name="paragraph" unicode="&#xb6;" horiz-adv-x="919" 
d="M854 665l-2 -22l-1 -14l1 -22l-1 -16l-3 -17l-2 -14l-5 -8l-13 -3l-31 2l-7 1h-12l-10 -3l-8 -9l-3 -13l-2 -22l-1 -14l1 -23v-15l2 -56v-15l2 -22l1 -14l1 -22v-14l-1 -22l-2 -14l-2 -23l-1 -15v-143l2 -22v-14l1 -22v-14l2 -23v-14l1 -22v-86l1 -22l-1 -14l-3 -22
l-3 -13l-7 -7l-14 -3l-23 -2l-16 -1l-23 2h-39l-16 1l-23 2l-13 2l-8 7l-4 12l-2 22l-1 14v37l6 92v15l2 23v230l-1 23v36l-1 14l-2 22l-2 14l-1 22l-1 14l2 22v14l1 22v14l2 22l-1 14l-2 22l-2 12l-7 6l-44 7l-16 1l-31 -2l-13 -3l-8 -7l-4 -13l-2 -22l-1 -14l1 -23v-50
l-1 -22l1 -15l6 -56v-15l-1 -22l-1 -14l-2 -23v-50l-1 -22v-15l2 -56v-16l4 -56l-1 -15l-2 -23l-2 -14l-1 -22l-1 -15l6 -92l-1 -15l-2 -22l-2 -14l-7 -9l-14 -2l-22 2l-16 1l-22 2h-16l-22 -4l-16 -1l-23 -1l-14 2l-9 9l-3 14l-2 23l1 15l2 22l1 16v38l2 58v16l2 22l-1 15
l-1 23l-1 14l-2 23l1 15l1 22l2 15l1 23l-2 12l-9 6l-14 3l-23 3l-15 3l-21 7l-14 5l-20 10l-13 7l-18 13l-12 9l-18 13l-11 10l-16 17l-9 12l-11 19l-7 14l-9 21l-4 14l-5 23l-1 14l-2 23v37l1 15l3 22l3 14l4 23l5 14l8 21l7 13l12 18l9 12l27 27l16 13l12 9l20 12l13 7
l19 9l14 5l23 6l14 3l22 2l15 1h38l23 2l16 1l24 1h16l23 -1l16 -1l23 -2l16 1l23 2l16 2l23 1h16l63 -4h16l23 1l16 1l23 2h16l63 -4l16 1l23 3l16 1l23 -1l15 -2l9 -9l2 -15l1 -17z" />
    <glyph glyph-name="periodcentered" unicode="&#xb7;" horiz-adv-x="305" 
d="M232 354v-6l1 -14l-1 -6l-2 -14l-1 -6l-5 -13l-3 -7l-8 -11l-4 -5l-12 -10l-16 -9l-16 -5l-8 -2l-22 -3h-16l-22 3l-7 2l-16 5l-17 9l-13 10l-4 5l-8 11l-2 7l-5 13l-2 6l-2 14l-1 6v14l1 6l2 14l2 6l5 13l3 6l8 11l4 6l13 10l16 9l16 5l7 2l22 3l16 -1h7l15 -3l6 -3
l16 -6l15 -10l16 -15l10 -13l8 -18z" />
    <glyph glyph-name="cedilla" unicode="&#xb8;" horiz-adv-x="394" 
d="M342 -120v-20l-1 -8l-3 -15l-3 -8l-5 -16l-7 -15l-9 -14l-17 -18l-12 -12l-13 -11l-14 -9l-23 -10l-14 -5l-22 -4l-15 -1h-24l-16 1l-22 3l-15 3l-23 7l-14 6l-14 8l-12 9l-11 9l-18 18l-4 8v6l7 9l40 41l8 7l7 3l8 1l24 -11l7 -4l15 -4l7 -2l15 -1l8 1l13 1l10 5l8 6
l5 7l1 13l-4 12l-8 7l-13 7l-15 5l-13 3h-14l-12 -3l-11 -2l-8 2l-12 6l-10 8l-5 7l-1 8l3 9l7 13l6 12l11 20l5 13l3 6l5 9l11 1l17 1h16l34 -1l16 -1l23 -2l8 -4l-2 -7l-3 -11l-2 -7l3 -9l8 -1l10 -2l16 -5l16 -7l14 -8l14 -11l12 -11l12 -13l8 -15z" />
    <glyph glyph-name="guillemetright" unicode="&#xbb;" horiz-adv-x="552" 
d="M302 355v-8l-5 -12l-14 -22l-9 -14l-15 -20l-9 -14l-58 -94l-9 -14l-21 -30l-5 -5l-11 -1l-15 -1h-16l-15 1l-30 -2h-15l-15 2l-13 5l-7 12l3 14l10 21l8 13l13 20l9 12l14 20l8 12l13 20l8 12l14 20l8 13l12 20l5 11l-2 8l-6 11l-11 20l-8 14l-13 19l-8 14l-32 52l-9 13
l-14 19l-8 13l-11 20l-3 15l6 12l14 5l15 1h15l30 -2l15 1h16l15 -1l11 -1l7 -3l7 -10l13 -22l9 -14l14 -21l8 -14l14 -22l8 -14l13 -22l9 -14l14 -21l9 -14l14 -22zM499 355v-8l-5 -12l-14 -22l-9 -14l-15 -20l-9 -14l-58 -94l-9 -14l-21 -30l-5 -5l-11 -1l-15 -1h-15
l-15 1l-31 -2h-15l-15 2l-13 5l-7 12l3 14l10 21l8 13l13 20l9 12l36 52l8 12l13 20l8 13l12 20l5 11l-2 8l-6 11l-11 20l-8 14l-13 19l-8 14l-32 52l-9 13l-14 19l-8 13l-10 20l-3 15l5 12l14 5l15 1h15l31 -2l15 1h15l15 -1l11 -1l7 -3l7 -10l13 -22l9 -14l14 -21l8 -14
l14 -22l8 -14l13 -22l9 -14l14 -21l9 -14l14 -22z" />
    <glyph glyph-name="questiondown" unicode="&#xbf;" horiz-adv-x="653" 
d="M430 422v-17l-3 -16l-5 -16l-8 -15l-10 -13l-13 -12l-14 -8l-15 -6l-16 -4l-35 -2l-6 1l-15 1l-17 3l-15 5l-14 9l-13 12l-10 14l-8 15l-5 16l-4 17l-1 17l2 17l6 15l8 14l12 12l14 11l14 9l15 6l17 3l18 2h19l18 -1l16 -4l14 -5l15 -8l13 -12l10 -13l7 -15l6 -16z
M587 -3l1 -10l-1 -8l-1 -14v-6l-3 -17l-5 -18l-5 -15l-3 -7l-5 -12l-4 -6l-8 -14l-12 -16l-14 -14l-12 -11l-6 -4l-11 -8l-5 -3l-12 -7l-6 -4l-15 -7l-18 -8l-16 -5l-6 -2l-14 -4l-6 -1l-15 -3l-23 -4l-15 -2h-7l-14 -1l-6 -1h-34l-17 1l-34 4l-17 3l-17 4l-16 4l-34 10
l-16 5l-15 7l-15 8l-15 10l-13 12l-12 12l-10 13l-9 14l-8 16l-7 16l-5 16l-3 16l-2 18l-1 18l1 18l2 19l5 16l6 16l8 15l10 14l11 14l26 24l14 11l14 10l28 22l13 12l24 26l10 13l10 14l8 15l5 17l6 18l3 4l4 2l12 2h8l18 1l36 -4l8 -1h18l8 1l18 1h17l18 -1l21 -2l6 -2
l5 -3l2 -5l-1 -12l-1 -7l-3 -15l-2 -6l-5 -13l-2 -7l-6 -14l-7 -16l-3 -6l-7 -13l-3 -6l-10 -13l-12 -15l-13 -11l-5 -5l-12 -8l-5 -4l-13 -8l-20 -12l-14 -9l-8 -5l-12 -10l-5 -6l-9 -13l-6 -17l-1 -15l2 -14l5 -13l8 -12l11 -9l11 -5l14 -4l16 -2h16l29 4l14 5l12 8l10 9
l8 11l6 15l3 11l2 6l3 4l4 2l11 2h7l16 1l16 -2l16 -1l8 -1h16l40 5h24l11 -2l5 -3l2 -4z" />
    <glyph glyph-name="Agrave" unicode="&#xc0;" 
d="M486 830l-4 -9l-13 -4l-7 -1h-16l-45 3l-30 -2h-16l-8 1l-13 2l-9 4l-8 9l-51 61l-27 31l-9 13l-4 6l-4 13l4 8l13 3l9 1h17l47 -3l67 4l15 -1h8l13 -2l10 -6l7 -12l4 -8l7 -15l10 -23l7 -15l16 -28l7 -16zM806 78l20 -50l3 -14l-7 -11l-11 -5l-13 -2h-14l-23 2l-15 1
h-45l-62 -4l-13 4l-6 8l-5 11l-31 84l-7 10l-9 2l-12 1l-60 4h-16l-75 2l-60 1h-15l-15 -1h-46l-13 -2l-8 -5l-6 -12l-23 -68l-6 -16l-11 -13l-15 -6l-16 1l-58 3h-16l-62 -4l-13 -1l-12 6l-8 11l1 13l2 8l6 16l14 31l6 15l25 56l6 14l26 56l6 15l23 54l6 15l27 56l6 14
l36 82l28 60l7 16l22 45l7 16l19 46l6 15l18 41l5 11l10 6l15 3l46 2h78l46 -1l17 -3l11 -8l5 -13l14 -39l6 -15l25 -47l6 -14l22 -49l6 -14l18 -51l6 -14l22 -48l6 -14l22 -49l6 -14l20 -50l6 -14l31 -62l24 -47l7 -14zM489 300l3 10l-4 13l-22 68l-5 15l-20 59l-5 13
l-10 7l-13 3l-11 -3l-10 -10l-27 -68l-6 -15l-26 -67l-3 -15l3 -12l11 -5l14 -2h63l47 -3l13 4z" />
    <glyph glyph-name="Aacute" unicode="&#xc1;" 
d="M579 964l2 -7l-6 -10l-39 -52l-10 -12l-41 -50l-9 -10l-10 -5l-12 -2l-8 -1l-49 3h-74l-9 1l-3 1l-1 3v3l30 60l8 14l24 53l6 10l5 3h12l8 1h16l23 -1h15l47 1h15l22 2l28 -2zM806 78l20 -50l3 -14l-7 -11l-11 -5l-13 -2h-14l-23 2l-15 1h-45l-62 -4l-13 4l-6 8l-5 11
l-31 84l-7 10l-9 2l-12 1l-60 4h-16l-75 2l-60 1h-15l-15 -1h-46l-13 -2l-8 -5l-6 -12l-23 -68l-6 -16l-11 -13l-15 -6l-16 1l-58 3h-16l-62 -4l-13 -1l-12 6l-8 11l1 13l2 8l6 16l14 31l6 15l25 56l6 14l26 56l6 15l23 54l6 15l27 56l6 14l36 82l28 60l7 16l22 45l7 16
l19 46l6 15l18 41l5 11l10 6l15 3l46 2h78l46 -1l17 -3l11 -8l5 -13l14 -39l6 -15l25 -47l6 -14l22 -49l6 -14l18 -51l6 -14l22 -48l6 -14l22 -49l6 -14l20 -50l6 -14l31 -62l24 -47l7 -14zM489 300l3 10l-4 13l-22 68l-5 15l-20 59l-5 13l-10 7l-13 3l-11 -3l-10 -10
l-27 -68l-6 -15l-26 -67l-3 -15l3 -12l11 -5l14 -2h63l47 -3l13 4z" />
    <glyph glyph-name="Acircumflex" unicode="&#xc2;" 
d="M634 835l1 -6l-4 -7l-10 -3l-15 -1h-15l-33 2h-77l-10 2l-8 6l-39 32l-8 6h-2l-8 -6l-35 -29l-8 -7l-4 -1h-73l-16 -1l-34 -3h-15l-14 1l-9 2l-3 6l1 6l6 7l4 6l11 12l22 22l11 10l39 37l11 11l21 22l11 10l7 6l9 8l6 4l8 2l13 1l32 2h15l38 -3h11l6 -2l6 -4l7 -8l49 -49
l41 -36l11 -11l37 -38zM806 78l20 -50l3 -14l-7 -11l-11 -5l-13 -2h-14l-23 2l-15 1h-45l-62 -4l-13 4l-6 8l-5 11l-31 84l-7 10l-9 2l-12 1l-60 4h-16l-75 2l-60 1h-15l-15 -1h-46l-13 -2l-8 -5l-6 -12l-23 -68l-6 -16l-11 -13l-15 -6l-16 1l-58 3h-16l-62 -4l-13 -1l-12 6
l-8 11l1 13l2 8l6 16l14 31l6 15l25 56l6 14l26 56l6 15l23 54l6 15l27 56l6 14l36 82l28 60l7 16l22 45l7 16l19 46l6 15l18 41l5 11l10 6l15 3l46 2h78l46 -1l17 -3l11 -8l5 -13l14 -39l6 -15l25 -47l6 -14l22 -49l6 -14l18 -51l6 -14l22 -48l6 -14l22 -49l6 -14l20 -50
l6 -14l31 -62l24 -47l7 -14zM489 300l3 10l-4 13l-22 68l-5 15l-20 59l-5 13l-10 7l-13 3l-11 -3l-10 -10l-27 -68l-6 -15l-26 -67l-3 -15l3 -12l11 -5l14 -2h63l47 -3l13 4z" />
    <glyph glyph-name="Atilde" unicode="&#xc3;" 
d="M631 915l-1 -8l-5 -13l-4 -7l-8 -15l-9 -14l-10 -11l-11 -9l-5 -4l-13 -8l-15 -7l-15 -5l-14 -3l-8 -1h-15l-15 1l-16 2l-24 6l-16 7l-9 3l-8 4l-24 11l-24 6l-8 1h-14l-13 -4l-15 -9l-12 -12l-5 -7l-8 -7l-7 1l-11 6l-80 51l-4 5l1 8l6 12l7 13l5 6l9 13l4 6l12 12
l13 10l12 7l13 7l8 4l14 5l6 1l14 3l7 1l15 1h15l14 -1l6 -1l16 -4l24 -9l7 -4l16 -7l24 -9l14 -3h6l14 1l8 1l15 7l13 10l4 6l9 7h6l10 -6l75 -52zM806 78l20 -50l3 -14l-7 -11l-11 -5l-13 -2h-14l-23 2l-15 1h-45l-62 -4l-13 4l-6 8l-5 11l-31 84l-7 10l-9 2l-12 1l-60 4
h-16l-75 2l-60 1h-15l-15 -1h-46l-13 -2l-8 -5l-6 -12l-23 -68l-6 -16l-11 -13l-15 -6l-16 1l-58 3h-16l-62 -4l-13 -1l-12 6l-8 11l1 13l2 8l6 16l14 31l6 15l25 56l6 14l26 56l6 15l23 54l6 15l27 56l6 14l36 82l28 60l7 16l22 45l7 16l19 46l6 15l18 41l5 11l10 6l15 3
l46 2h78l46 -1l17 -3l11 -8l5 -13l14 -39l6 -15l25 -47l6 -14l22 -49l6 -14l18 -51l6 -14l22 -48l6 -14l22 -49l6 -14l20 -50l6 -14l31 -62l24 -47l7 -14zM489 300l3 10l-4 13l-22 68l-5 15l-20 59l-5 13l-10 7l-13 3l-11 -3l-10 -10l-27 -68l-6 -15l-26 -67l-3 -15l3 -12
l11 -5l14 -2h63l47 -3l13 4z" />
    <glyph glyph-name="Adieresis" unicode="&#xc4;" 
d="M356 890v-15l-3 -16l-5 -14l-7 -12l-8 -11l-12 -9l-13 -8l-14 -6l-17 -4l-9 -1h-23l-13 3l-13 4l-12 6l-11 7l-10 10l-10 12l-8 13l-4 13l-2 14v15l2 14l3 11l6 13l11 14l12 12l13 9l15 6l7 3l15 3h6l15 1l15 -2l6 -2l16 -4l14 -8l6 -4l11 -9l8 -11l7 -16l5 -17zM661 890
v-15l-3 -16l-5 -14l-7 -12l-8 -11l-12 -9l-13 -8l-14 -6l-17 -4l-9 -1h-23l-13 3l-13 4l-13 6l-10 7l-10 10l-10 12l-8 13l-4 13l-2 14v15l2 14l3 11l6 13l11 14l12 12l13 9l15 6l7 3l15 3h6l15 1l15 -2l6 -2l16 -4l14 -8l6 -4l11 -9l8 -11l7 -16l5 -17zM806 78l20 -50
l3 -14l-7 -11l-11 -5l-13 -2h-14l-23 2l-15 1h-45l-62 -4l-13 4l-6 8l-5 11l-31 84l-7 10l-9 2l-12 1l-60 4h-16l-75 2l-60 1h-15l-15 -1h-46l-13 -2l-8 -5l-6 -12l-23 -68l-6 -16l-11 -13l-15 -6l-16 1l-58 3h-16l-62 -4l-13 -1l-12 6l-8 11l1 13l2 8l6 16l14 31l6 15
l25 56l6 14l26 56l6 15l23 54l6 15l27 56l6 14l36 82l28 60l7 16l22 45l7 16l19 46l6 15l18 41l5 11l10 6l15 3l46 2h78l46 -1l17 -3l11 -8l5 -13l14 -39l6 -15l25 -47l6 -14l22 -49l6 -14l18 -51l6 -14l22 -48l6 -14l22 -49l6 -14l20 -50l6 -14l31 -62l24 -47l7 -14z
M489 300l3 10l-4 13l-22 68l-5 15l-20 59l-5 13l-10 7l-13 3l-11 -3l-10 -10l-27 -68l-6 -15l-26 -67l-3 -15l3 -12l11 -5l14 -2h63l47 -3l13 4z" />
    <glyph glyph-name="Aring" unicode="&#xc5;" 
d="M806 78l20 -50l3 -14l-7 -11l-11 -5l-13 -2h-14l-23 2l-15 1h-45l-62 -4l-13 4l-6 8l-5 11l-31 84l-7 10l-9 2l-12 1l-60 4h-16l-75 2l-60 1h-15l-15 -1h-46l-13 -2l-8 -5l-6 -12l-23 -68l-6 -16l-11 -13l-15 -6l-16 1l-58 3h-16l-62 -4l-13 -1l-12 6l-8 11l1 13l2 8
l6 16l14 31l6 15l25 56l6 14l26 56l6 15l23 54l6 15l27 56l6 14l36 82l28 60l7 16l22 45l7 16l19 46l6 15l6 13l-2 13l-9 14l-7 16l-6 16l-2 8l-3 14v27l3 15l5 15l2 8l8 16l11 16l10 13l4 5l10 9l6 4l14 9l15 8l15 5l22 5l14 3l14 1h16l17 -3l7 -1l15 -4l21 -7l15 -7l11 -7
l11 -8l11 -9l11 -11l4 -6l9 -14l3 -7l6 -17l3 -8l3 -18v-9l1 -17l-1 -7l-1 -16l-2 -7l-4 -16l-7 -15l-8 -14l-8 -9v-10l2 -8l6 -14l25 -47l6 -14l22 -49l6 -14l18 -51l6 -14l22 -48l6 -14l22 -49l6 -14l20 -50l6 -14l31 -62l24 -47l7 -14zM373 774l-1 -14l4 -12l7 -10l9 -8
l11 -5l10 -1l13 1l13 3l6 4l7 7l6 9l3 11v14l-3 12l-6 10l-8 7l-9 5l-11 2h-13l-11 -2l-12 -7l-10 -11zM489 300l3 10l-4 13l-22 68l-5 15l-20 59l-5 13l-10 7l-13 3l-11 -3l-10 -10l-27 -68l-6 -15l-26 -67l-3 -15l3 -12l11 -5l14 -2h63l47 -3l13 4z" />
    <glyph glyph-name="AE" unicode="&#xc6;" horiz-adv-x="1011" 
d="M939 81l-2 -34v-15l1 -7l1 -12l-3 -8l-6 -3l-11 -1l-43 -3h-16l-79 -2h-16l-77 2l-16 1l-58 3h-16l-47 -4h-16l-37 3l-12 2l-6 2l-2 9v29l2 48l1 12l-7 3h-75l-52 2h-16l-65 -3l-7 -7l-22 -35l-9 -14l-21 -37l-6 -9l-11 -3l-16 -2l-15 -1l-107 1l-26 1h-14l-9 4l-3 6
l4 10l32 49l8 14l27 52l8 14l29 50l8 14l30 50l9 14l33 47l9 14l26 52l8 14l31 50l9 14l33 47l9 14l27 51l8 14l31 50l40 62l7 11l5 4l10 1l6 1h15l47 -3l68 2l67 1h67l51 1h16l52 -4l16 1l30 3h14l8 -1l11 -2l5 -6l2 -7l1 -10l4 -50l2 -17l1 -25v-17l-1 -8l-3 -12l-5 -7
l-6 -3l-12 -1l-58 4h-16l-57 -2h-86l-6 -4l-2 -8l-1 -12l-1 -68l1 -12l2 -6l7 -3l13 -1l51 3h16l52 -2h16l24 1l17 -1l9 -1l13 -2l8 -2l6 -6l3 -12l1 -8v-16l-2 -25l-1 -17l1 -17l-1 -16l-2 -15l-3 -11l-5 -6l-6 -1l-11 -2l-9 -1l-16 -1l-26 2h-16l-52 -2h-17l-17 1l-33 -2
l-12 -2l-8 -4l-4 -5l-2 -11l-3 -37v-16l2 -33l1 -10l2 -4l6 -3l11 -1h65l48 -2h76l25 2l16 -1h8l10 -3l3 -6v-12l2 -41v-16zM487 459l4 25l-3 12l-10 2l-10 -9l-23 -44l-7 -14l-24 -51l-6 -14l-25 -51l-4 -10l-4 -8l1 -9l10 -3h82l10 3l2 8v13l1 25v17l4 91z" />
    <glyph glyph-name="Ccedilla" unicode="&#xc7;" horiz-adv-x="735" 
d="M684 106l5 -9v-6l-8 -8l-18 -16l-12 -9l-19 -14l-12 -8l-20 -11l-13 -7l-23 -11l-15 -5l-17 -5l-17 -3l-25 -5l-35 -4l-14 -1l-1 -2l-2 -7l3 -9l8 -1l10 -2l16 -5l16 -7l14 -8l14 -11l12 -11l12 -13l8 -15l3 -13v-20l-1 -8l-3 -15l-3 -8l-5 -16l-7 -15l-9 -14l-17 -18
l-12 -12l-13 -11l-14 -9l-23 -10l-14 -5l-22 -4l-15 -1h-24l-16 1l-22 3l-15 3l-23 7l-14 6l-14 8l-12 9l-11 9l-18 18l-4 8v6l7 9l40 41l8 7l7 3l8 1l24 -11l7 -4l15 -4l7 -2l15 -1l8 1l13 1l10 5l8 6l5 7l1 13l-4 12l-8 7l-13 7l-15 5l-13 3h-14l-12 -3l-11 -2l-8 2l-12 6
l-10 8l-5 7l-1 8l3 9l7 13l6 12l11 20l4 10h-2l-17 4l-15 5l-45 12l-22 8l-13 6l-19 11l-12 9l-13 9l-14 9l-26 22l-12 12l-11 13l-11 15l-9 14l-8 14l-7 14l-10 21l-15 42l-7 20l-10 30l-2 15l-1 23l1 15l1 16v17l2 34l1 16l3 15l4 22l4 15l5 15l5 14l7 20l7 14l7 15l8 15
l9 15l9 14l10 13l11 14l12 13l12 11l13 11l12 10l32 22l13 8l14 8l30 14l17 6l16 5l34 8l17 3l17 2l31 2l22 2l15 -1l22 -1l37 -5l14 -3l23 -4l35 -10l14 -6l22 -13l14 -8l26 -18l31 -22l11 -8l6 -5l7 -7l2 -8l-1 -8l-6 -8l-9 -11l-11 -11l-11 -10l-11 -9l-11 -11l-17 -20
l-11 -12l-5 -5l-9 -8l-7 -3l-7 -1l-7 2l-11 6l-19 14l-13 7l-22 10l-14 5l-22 6l-15 3l-25 2h-16l-22 -2l-16 -4l-22 -7l-15 -6l-13 -5l-20 -10l-14 -10l-7 -6l-12 -13l-9 -14l-7 -13l-7 -14l-6 -15l-5 -16l-3 -17l-2 -15l-2 -30v-16l1 -25l1 -15l5 -23l5 -15l7 -17l8 -15
l15 -22l11 -12l19 -16l13 -9l20 -10l15 -6l22 -6l16 -3l24 -1h23l14 3l8 2l15 5l25 9l16 7l15 7l13 7l19 12l13 10l10 7l6 2l9 -2l11 -7l11 -10l4 -6l10 -11l16 -20l10 -12l27 -31l9 -12z" />
    <glyph glyph-name="Egrave" unicode="&#xc8;" horiz-adv-x="699" 
d="M389 830l-4 -9l-13 -4l-7 -1h-16l-45 3l-30 -2h-16l-8 1l-13 2l-9 4l-8 9l-51 61l-27 31l-9 13l-4 6l-4 13l4 8l13 3l9 1h17l47 -3l67 4l15 -1h8l13 -2l10 -6l7 -12l4 -8l7 -15l10 -23l7 -15l16 -28l7 -16zM620 149l3 -55l-1 -16l-4 -54l-1 -10l-4 -7l-5 -4l-131 -4h-16
l-53 4l-16 -1l-52 -4l-16 -1h-69l-52 4h-16l-86 -5l-34 2l-12 2l-7 5l-3 7l-2 11l-2 23l-1 16l1 15v15l4 53v16l1 53l-1 16l-3 53l-1 16l2 54v85l4 53l-1 16l-3 53l-1 16v24l2 30v15l3 52l1 14l3 8l5 4l8 1l13 2l65 -4l61 1h16l60 -4h16l60 4h16l136 -2l17 1l34 3h25l14 -3
l6 -5l2 -7l2 -13v-27l-2 -25v-17l1 -25l1 -15l-1 -15l-2 -12l-4 -7l-5 -4l-12 -2h-8l-16 -1l-94 2h-16l-51 -2h-16l-52 2l-45 3h-15l-8 -1l-10 -2l-5 -5l-1 -6l-2 -11l-2 -24v-16l1 -17l1 -11l2 -7l4 -5l11 -3l32 -2l32 2h95l112 6l31 -2l11 -2l6 -5l3 -6l1 -11l2 -17l1 -17
v-33l2 -23l-2 -30l-2 -12l-4 -7l-7 -5l-10 -2h-20l-45 5l-16 1l-80 -5l-64 2h-16l-40 3l-17 -1l-12 -1l-5 -3l-3 -7l-1 -15l-3 -25l-1 -16v-22l1 -10l3 -7l4 -4l11 -1l55 -2h16l54 4l71 -4h16l71 4h15l15 -1l36 -4l6 -3l4 -6z" />
    <glyph glyph-name="Eacute" unicode="&#xc9;" horiz-adv-x="699" 
d="M482 964l2 -7l-6 -10l-39 -52l-10 -12l-41 -50l-9 -10l-10 -5l-12 -2l-8 -1l-49 3h-74l-9 1l-3 1l-1 3v3l30 60l8 14l24 53l6 10l5 3h12l8 1h16l23 -1h15l47 1h15l22 2l28 -2zM620 149l3 -55l-1 -16l-4 -54l-1 -10l-4 -7l-5 -4l-131 -4h-16l-53 4l-16 -1l-52 -4l-16 -1
h-69l-52 4h-16l-86 -5l-34 2l-12 2l-7 5l-3 7l-2 11l-2 23l-1 16l1 15v15l4 53v16l1 53l-1 16l-3 53l-1 16l2 54v85l4 53l-1 16l-3 53l-1 16v24l2 30v15l3 52l1 14l3 8l5 4l8 1l13 2l65 -4l61 1h16l60 -4h16l60 4h16l136 -2l17 1l34 3h25l14 -3l6 -5l2 -7l2 -13v-27l-2 -25
v-17l1 -25l1 -15l-1 -15l-2 -12l-4 -7l-5 -4l-12 -2h-8l-16 -1l-94 2h-16l-51 -2h-16l-52 2l-45 3h-15l-8 -1l-10 -2l-5 -5l-1 -6l-2 -11l-2 -24v-16l1 -17l1 -11l2 -7l4 -5l11 -3l32 -2l32 2h95l112 6l31 -2l11 -2l6 -5l3 -6l1 -11l2 -17l1 -17v-33l2 -23l-2 -30l-2 -12
l-4 -7l-7 -5l-10 -2h-20l-45 5l-16 1l-80 -5l-64 2h-16l-40 3l-17 -1l-12 -1l-5 -3l-3 -7l-1 -15l-3 -25l-1 -16v-22l1 -10l3 -7l4 -4l11 -1l55 -2h16l54 4l71 -4h16l71 4h15l15 -1l36 -4l6 -3l4 -6z" />
    <glyph glyph-name="Ecircumflex" unicode="&#xca;" horiz-adv-x="699" 
d="M537 835l1 -6l-4 -7l-10 -3l-15 -1h-15l-33 2h-77l-10 2l-8 6l-39 32l-8 6h-2l-8 -6l-35 -29l-8 -7l-4 -1h-73l-16 -1l-34 -3h-15l-14 1l-9 2l-3 6l1 6l6 7l4 6l11 12l22 22l11 10l39 37l11 11l21 22l11 10l7 6l9 8l6 4l8 2l13 1l32 2h15l38 -3h11l6 -2l6 -4l7 -8l49 -49
l41 -36l11 -11l37 -38zM620 149l3 -55l-1 -16l-4 -54l-1 -10l-4 -7l-5 -4l-131 -4h-16l-53 4l-16 -1l-52 -4l-16 -1h-69l-52 4h-16l-86 -5l-34 2l-12 2l-7 5l-3 7l-2 11l-2 23l-1 16l1 15v15l4 53v16l1 53l-1 16l-3 53l-1 16l2 54v85l4 53l-1 16l-3 53l-1 16v24l2 30v15
l3 52l1 14l3 8l5 4l8 1l13 2l65 -4l61 1h16l60 -4h16l60 4h16l136 -2l17 1l34 3h25l14 -3l6 -5l2 -7l2 -13v-27l-2 -25v-17l1 -25l1 -15l-1 -15l-2 -12l-4 -7l-5 -4l-12 -2h-8l-16 -1l-94 2h-16l-51 -2h-16l-52 2l-45 3h-15l-8 -1l-10 -2l-5 -5l-1 -6l-2 -11l-2 -24v-16
l1 -17l1 -11l2 -7l4 -5l11 -3l32 -2l32 2h95l112 6l31 -2l11 -2l6 -5l3 -6l1 -11l2 -17l1 -17v-33l2 -23l-2 -30l-2 -12l-4 -7l-7 -5l-10 -2h-20l-45 5l-16 1l-80 -5l-64 2h-16l-40 3l-17 -1l-12 -1l-5 -3l-3 -7l-1 -15l-3 -25l-1 -16v-22l1 -10l3 -7l4 -4l11 -1l55 -2h16
l54 4l71 -4h16l71 4h15l15 -1l36 -4l6 -3l4 -6z" />
    <glyph glyph-name="Edieresis" unicode="&#xcb;" horiz-adv-x="699" 
d="M259 890v-15l-3 -16l-5 -14l-7 -12l-8 -11l-12 -9l-13 -8l-14 -6l-17 -4l-9 -1h-23l-13 3l-13 4l-12 6l-11 7l-10 10l-10 12l-8 13l-4 13l-2 14v15l2 14l3 11l6 13l11 14l12 12l13 9l15 6l7 3l15 3h6l15 1l15 -2l6 -2l16 -4l14 -8l6 -4l11 -9l8 -11l7 -16l5 -17zM564 890
v-15l-3 -16l-5 -14l-7 -12l-8 -11l-12 -9l-13 -8l-14 -6l-17 -4l-9 -1h-23l-13 3l-13 4l-13 6l-10 7l-10 10l-10 12l-8 13l-4 13l-2 14v15l2 14l3 11l6 13l11 14l12 12l13 9l15 6l7 3l15 3h6l15 1l15 -2l6 -2l16 -4l14 -8l6 -4l11 -9l8 -11l7 -16l5 -17zM620 149l3 -55
l-1 -16l-4 -54l-1 -10l-4 -7l-5 -4l-131 -4h-16l-53 4l-16 -1l-52 -4l-16 -1h-69l-52 4h-16l-86 -5l-34 2l-12 2l-7 5l-3 7l-2 11l-2 23l-1 16l1 15v15l4 53v16l1 53l-1 16l-3 53l-1 16l2 54v85l4 53l-1 16l-3 53l-1 16v24l2 30v15l3 52l1 14l3 8l5 4l8 1l13 2l65 -4l61 1
h16l60 -4h16l60 4h16l136 -2l17 1l34 3h25l14 -3l6 -5l2 -7l2 -13v-27l-2 -25v-17l1 -25l1 -15l-1 -15l-2 -12l-4 -7l-5 -4l-12 -2h-8l-16 -1l-94 2h-16l-51 -2h-16l-52 2l-45 3h-15l-8 -1l-10 -2l-5 -5l-1 -6l-2 -11l-2 -24v-16l1 -17l1 -11l2 -7l4 -5l11 -3l32 -2l32 2h95
l112 6l31 -2l11 -2l6 -5l3 -6l1 -11l2 -17l1 -17v-33l2 -23l-2 -30l-2 -12l-4 -7l-7 -5l-10 -2h-20l-45 5l-16 1l-80 -5l-64 2h-16l-40 3l-17 -1l-12 -1l-5 -3l-3 -7l-1 -15l-3 -25l-1 -16v-22l1 -10l3 -7l4 -4l11 -1l55 -2h16l54 4l71 -4h16l71 4h15l15 -1l36 -4l6 -3l4 -6
z" />
    <glyph glyph-name="Igrave" unicode="&#xcc;" horiz-adv-x="345" 
d="M216 830l-4 -9l-13 -4l-7 -1h-16l-45 3l-30 -2h-16l-8 1l-13 2l-9 4l-8 9l-51 61l-27 31l-9 13l-4 6l-5 13l4 8l14 3l9 1h17l47 -3l67 4l15 -1h8l13 -2l10 -6l7 -12l4 -8l7 -15l10 -23l7 -15l16 -28l7 -16zM246 213l3 -54v-16l-4 -54v-16l-1 -55v-11l-3 -5l-8 -3l-14 -1
l-51 1h-62l-50 4l-6 2l-3 3v10l-2 25v16l-1 15v15l-3 54l1 16l3 54l1 16l-3 55v16l-1 54v86l-1 55v16l1 54v86l-2 55l3 11l6 4l10 1h8l15 1l24 -1h16l46 2h62l11 -2l2 -6l1 -11l2 -26l1 -16v-98l1 -54v-16l-1 -55v-16l1 -54v-16l-2 -54v-87z" />
    <glyph glyph-name="Iacute" unicode="&#xcd;" horiz-adv-x="345" 
d="M309 964l2 -7l-6 -10l-39 -52l-10 -12l-41 -50l-9 -10l-10 -5l-12 -2l-8 -1l-49 3h-74l-9 1l-3 1l-1 3v3l30 60l8 14l24 53l6 10l5 3h12l8 1h16l23 -1h15l47 1h15l22 2l28 -2zM246 213l3 -54v-16l-4 -54v-16l-1 -55v-11l-3 -5l-8 -3l-14 -1l-51 1h-62l-50 4l-6 2l-3 3v10
l-2 25v16l-1 15v15l-3 54l1 16l3 54l1 16l-3 55v16l-1 54v86l-1 55v16l1 54v86l-2 55l3 11l6 4l10 1h8l15 1l24 -1h16l46 2h62l11 -2l2 -6l1 -11l2 -26l1 -16v-98l1 -54v-16l-1 -55v-16l1 -54v-16l-2 -54v-87z" />
    <glyph glyph-name="Icircumflex" unicode="&#xce;" horiz-adv-x="345" 
d="M364 835l1 -6l-4 -7l-10 -3l-15 -1h-15l-33 2h-77l-10 2l-8 6l-39 32l-8 6h-2l-8 -6l-35 -29l-8 -7l-4 -1h-73l-16 -1l-34 -3h-15l-14 1l-10 2l-2 6l1 6l6 7l4 6l10 12l22 22l12 10l39 37l11 11l21 22l11 10l7 6l9 8l6 4l8 2l13 1l32 2h15l38 -3h11l6 -2l6 -4l7 -8
l49 -49l41 -36l11 -11l37 -38zM246 213l3 -54v-16l-4 -54v-16l-1 -55v-11l-3 -5l-8 -3l-14 -1l-51 1h-62l-50 4l-6 2l-3 3v10l-2 25v16l-1 15v15l-3 54l1 16l3 54l1 16l-3 55v16l-1 54v86l-1 55v16l1 54v86l-2 55l3 11l6 4l10 1h8l15 1l24 -1h16l46 2h62l11 -2l2 -6l1 -11
l2 -26l1 -16v-98l1 -54v-16l-1 -55v-16l1 -54v-16l-2 -54v-87z" />
    <glyph glyph-name="Idieresis" unicode="&#xcf;" horiz-adv-x="345" 
d="M86 890v-15l-3 -16l-5 -14l-7 -12l-8 -11l-12 -9l-13 -8l-14 -6l-17 -4l-9 -1h-23l-14 3l-13 4l-12 6l-10 7l-11 10l-10 12l-7 13l-5 13l-2 14v15l2 14l4 11l6 13l10 14l13 12l13 9l15 6l7 3l15 3h6l15 1l15 -2l6 -2l16 -4l14 -8l6 -4l11 -9l8 -11l7 -16l5 -17zM391 890
v-15l-3 -16l-5 -14l-7 -12l-8 -11l-12 -9l-13 -8l-14 -6l-17 -4l-9 -1h-23l-13 3l-13 4l-13 6l-10 7l-10 10l-10 12l-8 13l-4 13l-2 14v15l2 14l3 11l6 13l11 14l12 12l13 9l15 6l7 3l15 3h6l15 1l15 -2l6 -2l16 -4l14 -8l6 -4l11 -9l8 -11l7 -16l5 -17zM246 213l3 -54v-16
l-4 -54v-16l-1 -55v-11l-3 -5l-8 -3l-14 -1l-51 1h-62l-50 4l-6 2l-3 3v10l-2 25v16l-1 15v15l-3 54l1 16l3 54l1 16l-3 55v16l-1 54v86l-1 55v16l1 54v86l-2 55l3 11l6 4l10 1h8l15 1l24 -1h16l46 2h62l11 -2l2 -6l1 -11l2 -26l1 -16v-98l1 -54v-16l-1 -55v-16l1 -54v-16
l-2 -54v-87z" />
    <glyph glyph-name="Eth" unicode="&#xd0;" horiz-adv-x="832" 
d="M773 377l2 -34l-1 -17l-1 -23l-3 -16l-7 -23l-5 -16l-12 -32l-6 -17l-6 -15l-11 -21l-8 -13l-14 -17l-10 -11l-17 -15l-22 -22l-32 -27l-15 -9l-16 -8l-15 -7l-22 -8l-15 -5l-16 -4l-16 -3l-24 -5l-15 -2l-22 -2l-15 -1l-22 -2h-16l-32 1l-25 2h-17l-31 -2l-26 -2h-48
l-26 1h-15l-14 -1l-44 3l-13 2l-8 4l-5 5l-2 11l-1 16l1 8l2 30v15l1 22v16l1 15v85l-3 53l-5 8l-13 -1l-16 -1h-14l-11 2l-8 4l-5 5l-3 10v22l3 22l1 17l-2 25l1 17l2 11l3 7l6 4l30 -2l25 1l8 8l3 49v16l-1 53v16l-3 53v16l1 22l1 16l2 15l2 12l4 5l5 2l10 2l14 2l45 3h15
l58 -1l64 -4l9 -1h17l42 2l15 1h16l25 -1l32 -2l16 -2l57 -11l36 -13l15 -7l30 -16l19 -14l13 -9l13 -11l12 -11l22 -21l10 -10l9 -11l7 -13l11 -21l6 -15l5 -16l6 -16l5 -16l4 -16l4 -23l6 -32l2 -16zM535 237l12 19l6 14l8 20l3 14l4 22l1 14l1 23v31l-1 16l-3 23l-4 15
l-2 7l-8 15l-15 21l-5 5l-10 11l-11 11l-12 9l-22 13l-14 6l-14 3l-14 2l-45 3h-46l-30 -2l-10 -1l-8 -3l-5 -6l-3 -12l-1 -9l-1 -15l3 -45l1 -14l2 -7l41 -1h16l45 -3l12 -1l8 -3l5 -5l2 -11l1 -8v-15l-2 -22v-15l1 -17v-17l-2 -8l-1 -11l-3 -6l-8 -4l-12 -2l-29 -2l-51 2
h-16l-8 -8l-2 -32l-1 -22l1 -16l2 -16l2 -11l3 -8l6 -5l12 -1l116 7l16 3l16 5l16 6l15 8l14 9l18 15z" />
    <glyph glyph-name="Ntilde" unicode="&#xd1;" horiz-adv-x="821" 
d="M607 915l-1 -8l-5 -13l-4 -7l-8 -15l-9 -14l-10 -11l-11 -9l-5 -4l-13 -8l-15 -7l-15 -5l-14 -3l-8 -1h-15l-15 1l-16 2l-24 6l-16 7l-9 3l-8 4l-24 11l-24 6l-8 1h-14l-13 -4l-15 -9l-12 -12l-5 -7l-8 -7l-7 1l-11 6l-80 51l-4 5l1 8l6 12l7 13l5 6l9 13l4 6l12 12
l13 10l12 7l13 7l8 4l14 5l6 1l14 3l7 1l15 1h15l14 -1l6 -1l16 -4l24 -9l7 -4l16 -7l24 -9l14 -3h6l14 1l8 1l15 7l13 10l4 6l9 7h6l10 -6l75 -52zM723 624l-3 -59l-1 -16v-148l3 -58v-16l2 -132v-17l-1 -8l-1 -17l-3 -48l1 -58l-1 -14l-4 -12l-8 -11l-10 -7l-9 -3l-14 -1
l-51 -2l-16 -1l-25 -1h-16l-13 3l-12 5l-12 9l-9 13l-15 29l-9 13l-39 49l-10 12l-39 48l-9 13l-35 52l-9 12l-39 48l-10 12l-37 49l-9 8l-7 -3l-3 -12l-2 -50v-16l1 -50v-16l1 -56v-16l-3 -56l1 -16l6 -40l1 -16l-3 -13l-7 -7l-7 -2l-12 -2l-8 -1l-17 -1l-46 1h-16l-41 -2
h-16l-15 1l-11 2l-8 5l-4 7l-2 10l-1 7v15l2 33l1 16l-3 53v16l2 122l1 16l3 53l1 16v69l-4 53v16l4 53l-1 16l-4 54l-1 16v23l1 15l2 15l2 11l3 7l6 3l11 2l30 2l30 -2h75l12 -1l5 -4l6 -9l42 -45l10 -12l37 -48l10 -12l37 -49l10 -12l36 -50l9 -12l38 -48l10 -12l36 -50
l8 -7l8 -1l7 5v11l-7 42l-1 16l3 43v16l-4 61v16l4 61l-1 16l-3 37v25l3 13l4 8l7 4l12 2h9l17 1l45 -3h16l34 2l15 -1l23 -1l11 -2l7 -3l6 -7l2 -14l1 -9l1 -17l-2 -31z" />
    <glyph glyph-name="Ograve" unicode="&#xd2;" horiz-adv-x="873" 
d="M481 830l-4 -9l-13 -4l-7 -1h-16l-45 3l-30 -2h-16l-8 1l-13 2l-9 4l-8 9l-51 61l-27 31l-9 13l-4 6l-4 13l4 8l13 3l9 1h17l47 -3l67 4l15 -1h8l13 -2l10 -6l7 -12l4 -8l7 -15l10 -23l7 -15l16 -28l7 -16zM812 403l2 -34l-1 -16l-2 -23l-2 -15l-6 -30l-2 -23l-2 -15
l-3 -16l-4 -15l-10 -21l-7 -14l-27 -45l-9 -13l-10 -13l-10 -11l-16 -17l-11 -10l-13 -10l-12 -9l-18 -12l-13 -8l-15 -8l-14 -6l-20 -8l-15 -4l-32 -10l-17 -5l-16 -4l-17 -4l-17 -3l-17 -1h-54l-34 2l-33 4l-14 3l-15 4l-54 18l-16 5l-17 7l-32 14l-15 8l-15 9l-13 10
l-13 11l-12 13l-11 13l-27 27l-10 12l-10 13l-8 13l-8 20l-15 45l-6 21l-3 15l-3 16l-3 15l-3 22l-1 15l-1 17v17l1 17l1 18l2 17l3 17l4 17l5 17l5 15l6 16l7 23l7 16l4 9l8 15l14 22l10 14l5 8l12 12l17 14l13 10l13 9l30 20l13 8l14 8l14 7l21 9l14 5l15 5l15 4l38 7
l15 3l50 6l32 2l30 -2l24 -1l17 -2l17 -3l17 -4l17 -3l16 -4l15 -4l15 -5l21 -8l14 -6l33 -19l13 -9l13 -10l17 -16l11 -10l11 -11l9 -12l14 -19l8 -13l7 -13l8 -13l11 -20l8 -13l7 -15l5 -14l5 -23l6 -30l2 -17zM557 223l13 16l9 14l10 22l6 15l5 23l2 15l2 24v17l-1 17
l-1 16l-6 30l-4 14l-11 22l-8 13l-14 18l-10 11l-15 16l-11 9l-26 15l-14 6l-16 5l-16 3l-32 2l-15 -1l-22 -1l-15 -3l-26 -7l-16 -6l-23 -12l-14 -9l-16 -14l-11 -12l-11 -15l-8 -13l-3 -6l-9 -21l-5 -15l-3 -7l-3 -14l-2 -14l-1 -14l-1 -15v-15l1 -16l3 -16l1 -9l4 -15
l2 -7l5 -14l4 -8l8 -14l5 -8l11 -14l6 -7l12 -12l20 -17l14 -9l16 -8l15 -6l21 -7l15 -3l25 -3l17 -1l25 2l16 2l22 5l14 6l22 14l12 9l16 16z" />
    <glyph glyph-name="Oacute" unicode="&#xd3;" horiz-adv-x="873" 
d="M574 964l2 -7l-6 -10l-39 -52l-10 -12l-41 -50l-9 -10l-10 -5l-12 -2l-8 -1l-49 3h-74l-9 1l-3 1l-1 3v3l30 60l8 14l24 53l6 10l5 3h12l8 1h16l23 -1h15l47 1h15l22 2l28 -2zM812 403l2 -34l-1 -16l-2 -23l-2 -15l-6 -30l-2 -23l-2 -15l-3 -16l-4 -15l-10 -21l-7 -14
l-27 -45l-9 -13l-10 -13l-10 -11l-16 -17l-11 -10l-13 -10l-12 -9l-18 -12l-13 -8l-15 -8l-14 -6l-20 -8l-15 -4l-32 -10l-17 -5l-16 -4l-17 -4l-17 -3l-17 -1h-54l-34 2l-33 4l-14 3l-15 4l-54 18l-16 5l-17 7l-32 14l-15 8l-15 9l-13 10l-13 11l-12 13l-11 13l-27 27
l-10 12l-10 13l-8 13l-8 20l-15 45l-6 21l-3 15l-3 16l-3 15l-3 22l-1 15l-1 17v17l1 17l1 18l2 17l3 17l4 17l5 17l5 15l6 16l7 23l7 16l4 9l8 15l14 22l10 14l5 8l12 12l17 14l13 10l13 9l30 20l13 8l14 8l14 7l21 9l14 5l15 5l15 4l38 7l15 3l50 6l32 2l30 -2l24 -1
l17 -2l17 -3l17 -4l17 -3l16 -4l15 -4l15 -5l21 -8l14 -6l33 -19l13 -9l13 -10l17 -16l11 -10l11 -11l9 -12l14 -19l8 -13l7 -13l8 -13l11 -20l8 -13l7 -15l5 -14l5 -23l6 -30l2 -17zM557 223l13 16l9 14l10 22l6 15l5 23l2 15l2 24v17l-1 17l-1 16l-6 30l-4 14l-11 22
l-8 13l-14 18l-10 11l-15 16l-11 9l-26 15l-14 6l-16 5l-16 3l-32 2l-15 -1l-22 -1l-15 -3l-26 -7l-16 -6l-23 -12l-14 -9l-16 -14l-11 -12l-11 -15l-8 -13l-3 -6l-9 -21l-5 -15l-3 -7l-3 -14l-2 -14l-1 -14l-1 -15v-15l1 -16l3 -16l1 -9l4 -15l2 -7l5 -14l4 -8l8 -14l5 -8
l11 -14l6 -7l12 -12l20 -17l14 -9l16 -8l15 -6l21 -7l15 -3l25 -3l17 -1l25 2l16 2l22 5l14 6l22 14l12 9l16 16z" />
    <glyph glyph-name="Ocircumflex" unicode="&#xd4;" horiz-adv-x="873" 
d="M629 835l1 -6l-4 -7l-10 -3l-15 -1h-15l-33 2h-77l-10 2l-8 6l-39 32l-8 6h-2l-8 -6l-35 -29l-8 -7l-4 -1h-73l-16 -1l-34 -3h-15l-14 1l-9 2l-3 6l1 6l6 7l4 6l11 12l22 22l11 10l39 37l11 11l21 22l11 10l7 6l9 8l6 4l8 2l13 1l32 2h15l38 -3h11l6 -2l6 -4l7 -8l49 -49
l41 -36l11 -11l37 -38zM812 403l2 -34l-1 -16l-2 -23l-2 -15l-6 -30l-2 -23l-2 -15l-3 -16l-4 -15l-10 -21l-7 -14l-27 -45l-9 -13l-10 -13l-10 -11l-16 -17l-11 -10l-13 -10l-12 -9l-18 -12l-13 -8l-15 -8l-14 -6l-20 -8l-15 -4l-32 -10l-17 -5l-16 -4l-17 -4l-17 -3
l-17 -1h-54l-34 2l-33 4l-14 3l-15 4l-54 18l-16 5l-17 7l-32 14l-15 8l-15 9l-13 10l-13 11l-12 13l-11 13l-27 27l-10 12l-10 13l-8 13l-8 20l-15 45l-6 21l-3 15l-3 16l-3 15l-3 22l-1 15l-1 17v17l1 17l1 18l2 17l3 17l4 17l5 17l5 15l6 16l7 23l7 16l4 9l8 15l14 22
l10 14l5 8l12 12l17 14l13 10l13 9l30 20l13 8l14 8l14 7l21 9l14 5l15 5l15 4l38 7l15 3l50 6l32 2l30 -2l24 -1l17 -2l17 -3l17 -4l17 -3l16 -4l15 -4l15 -5l21 -8l14 -6l33 -19l13 -9l13 -10l17 -16l11 -10l11 -11l9 -12l14 -19l8 -13l7 -13l8 -13l11 -20l8 -13l7 -15
l5 -14l5 -23l6 -30l2 -17zM557 223l13 16l9 14l10 22l6 15l5 23l2 15l2 24v17l-1 17l-1 16l-6 30l-4 14l-11 22l-8 13l-14 18l-10 11l-15 16l-11 9l-26 15l-14 6l-16 5l-16 3l-32 2l-15 -1l-22 -1l-15 -3l-26 -7l-16 -6l-23 -12l-14 -9l-16 -14l-11 -12l-11 -15l-8 -13
l-3 -6l-9 -21l-5 -15l-3 -7l-3 -14l-2 -14l-1 -14l-1 -15v-15l1 -16l3 -16l1 -9l4 -15l2 -7l5 -14l4 -8l8 -14l5 -8l11 -14l6 -7l12 -12l20 -17l14 -9l16 -8l15 -6l21 -7l15 -3l25 -3l17 -1l25 2l16 2l22 5l14 6l22 14l12 9l16 16z" />
    <glyph glyph-name="Otilde" unicode="&#xd5;" horiz-adv-x="873" 
d="M626 915l-1 -8l-5 -13l-4 -7l-8 -15l-9 -14l-10 -11l-11 -9l-5 -4l-13 -8l-15 -7l-15 -5l-14 -3l-8 -1h-15l-15 1l-16 2l-24 6l-16 7l-9 3l-8 4l-24 11l-24 6l-8 1h-14l-13 -4l-15 -9l-12 -12l-5 -7l-8 -7l-7 1l-11 6l-80 51l-4 5l1 8l6 12l7 13l5 6l9 13l4 6l12 12
l13 10l12 7l13 7l8 4l14 5l6 1l14 3l7 1l15 1h15l14 -1l6 -1l16 -4l24 -9l7 -4l16 -7l24 -9l14 -3h6l14 1l8 1l15 7l13 10l4 6l9 7h6l10 -6l75 -52zM812 403l2 -34l-1 -16l-2 -23l-2 -15l-6 -30l-2 -23l-2 -15l-3 -16l-4 -15l-10 -21l-7 -14l-27 -45l-9 -13l-10 -13l-10 -11
l-16 -17l-11 -10l-13 -10l-12 -9l-18 -12l-13 -8l-15 -8l-14 -6l-20 -8l-15 -4l-32 -10l-17 -5l-16 -4l-17 -4l-17 -3l-17 -1h-54l-34 2l-33 4l-14 3l-15 4l-54 18l-16 5l-17 7l-32 14l-15 8l-15 9l-13 10l-13 11l-12 13l-11 13l-27 27l-10 12l-10 13l-8 13l-8 20l-15 45
l-6 21l-3 15l-3 16l-3 15l-3 22l-1 15l-1 17v17l1 17l1 18l2 17l3 17l4 17l5 17l5 15l6 16l7 23l7 16l4 9l8 15l14 22l10 14l5 8l12 12l17 14l13 10l13 9l30 20l13 8l14 8l14 7l21 9l14 5l15 5l15 4l38 7l15 3l50 6l32 2l30 -2l24 -1l17 -2l17 -3l17 -4l17 -3l16 -4l15 -4
l15 -5l21 -8l14 -6l33 -19l13 -9l13 -10l17 -16l11 -10l11 -11l9 -12l14 -19l8 -13l7 -13l8 -13l11 -20l8 -13l7 -15l5 -14l5 -23l6 -30l2 -17zM557 223l13 16l9 14l10 22l6 15l5 23l2 15l2 24v17l-1 17l-1 16l-6 30l-4 14l-11 22l-8 13l-14 18l-10 11l-15 16l-11 9l-26 15
l-14 6l-16 5l-16 3l-32 2l-15 -1l-22 -1l-15 -3l-26 -7l-16 -6l-23 -12l-14 -9l-16 -14l-11 -12l-11 -15l-8 -13l-3 -6l-9 -21l-5 -15l-3 -7l-3 -14l-2 -14l-1 -14l-1 -15v-15l1 -16l3 -16l1 -9l4 -15l2 -7l5 -14l4 -8l8 -14l5 -8l11 -14l6 -7l12 -12l20 -17l14 -9l16 -8
l15 -6l21 -7l15 -3l25 -3l17 -1l25 2l16 2l22 5l14 6l22 14l12 9l16 16z" />
    <glyph glyph-name="Odieresis" unicode="&#xd6;" horiz-adv-x="873" 
d="M351 890v-15l-3 -16l-5 -14l-7 -12l-8 -11l-12 -9l-13 -8l-14 -6l-17 -4l-9 -1h-23l-13 3l-13 4l-12 6l-11 7l-10 10l-10 12l-8 13l-4 13l-2 14v15l2 14l3 11l6 13l11 14l12 12l13 9l15 6l7 3l15 3h6l15 1l15 -2l6 -2l16 -4l14 -8l6 -4l11 -9l8 -11l7 -16l5 -17zM656 890
v-15l-3 -16l-5 -14l-7 -12l-8 -11l-12 -9l-13 -8l-14 -6l-17 -4l-9 -1h-23l-13 3l-13 4l-13 6l-10 7l-10 10l-10 12l-8 13l-4 13l-2 14v15l2 14l3 11l6 13l11 14l12 12l13 9l15 6l7 3l15 3h6l15 1l15 -2l6 -2l16 -4l14 -8l6 -4l11 -9l8 -11l7 -16l5 -17zM812 403l2 -34
l-1 -16l-2 -23l-2 -15l-6 -30l-2 -23l-2 -15l-3 -16l-4 -15l-10 -21l-7 -14l-27 -45l-9 -13l-10 -13l-10 -11l-16 -17l-11 -10l-13 -10l-12 -9l-18 -12l-13 -8l-15 -8l-14 -6l-20 -8l-15 -4l-32 -10l-17 -5l-16 -4l-17 -4l-17 -3l-17 -1h-54l-34 2l-33 4l-14 3l-15 4l-54 18
l-16 5l-17 7l-32 14l-15 8l-15 9l-13 10l-13 11l-12 13l-11 13l-27 27l-10 12l-10 13l-8 13l-8 20l-15 45l-6 21l-3 15l-3 16l-3 15l-3 22l-1 15l-1 17v17l1 17l1 18l2 17l3 17l4 17l5 17l5 15l6 16l7 23l7 16l4 9l8 15l14 22l10 14l5 8l12 12l17 14l13 10l13 9l30 20l13 8
l14 8l14 7l21 9l14 5l15 5l15 4l38 7l15 3l50 6l32 2l30 -2l24 -1l17 -2l17 -3l17 -4l17 -3l16 -4l15 -4l15 -5l21 -8l14 -6l33 -19l13 -9l13 -10l17 -16l11 -10l11 -11l9 -12l14 -19l8 -13l7 -13l8 -13l11 -20l8 -13l7 -15l5 -14l5 -23l6 -30l2 -17zM557 223l13 16l9 14
l10 22l6 15l5 23l2 15l2 24v17l-1 17l-1 16l-6 30l-4 14l-11 22l-8 13l-14 18l-10 11l-15 16l-11 9l-26 15l-14 6l-16 5l-16 3l-32 2l-15 -1l-22 -1l-15 -3l-26 -7l-16 -6l-23 -12l-14 -9l-16 -14l-11 -12l-11 -15l-8 -13l-3 -6l-9 -21l-5 -15l-3 -7l-3 -14l-2 -14l-1 -14
l-1 -15v-15l1 -16l3 -16l1 -9l4 -15l2 -7l5 -14l4 -8l8 -14l5 -8l11 -14l6 -7l12 -12l20 -17l14 -9l16 -8l15 -6l21 -7l15 -3l25 -3l17 -1l25 2l16 2l22 5l14 6l22 14l12 9l16 16z" />
    <glyph glyph-name="multiply" unicode="&#xd7;" horiz-adv-x="487" 
d="M343 336l66 -66l8 -9v-6l-8 -8l-40 -37l-12 -10l-40 -39l-9 -6h-6l-9 7l-62 61l-9 8h-5l-9 -8l-61 -61l-8 -7h-5l-9 7l-43 38l-12 12l-42 41l-7 11v7l7 8l62 61l8 9l1 6l-7 9l-60 61l-7 9l1 6l7 8l41 42l12 12l42 39l10 7h6l7 -8l60 -61l9 -7l6 -1l9 7l60 64l9 8h6l9 -8
l41 -38l51 -51l7 -9v-6l-8 -10l-66 -67l-7 -10l-1 -7z" />
    <glyph glyph-name="Oslash" unicode="&#xd8;" horiz-adv-x="872" 
d="M812 394l4 -26l1 -17l-1 -8l-1 -18l-3 -25l-3 -17l-4 -16l-5 -15l-7 -20l-6 -15l-5 -17l-6 -16l-7 -15l-8 -14l-12 -19l-9 -12l-9 -13l-22 -22l-12 -9l-44 -31l-13 -9l-19 -11l-15 -7l-16 -7l-16 -5l-49 -16l-17 -5l-17 -3l-16 -3l-17 -1h-18l-17 -1h-17l-15 1h-17l-17 1
l-17 2l-17 3l-16 3l-15 3h-13l-10 -7l-9 -11l-4 -7l-10 -13l-15 -17l-10 -12l-13 -7l-31 -2l-15 1h-16l-38 -3l-17 1l-8 1l-13 5l-5 6l-2 6l1 7l3 12l3 7l6 13l13 19l9 13l27 41l8 13v10l-9 10l-17 17l-10 12l-13 20l-9 13l-17 26l-8 14l-14 30l-8 22l-5 16l-5 22l-3 16
l-3 26l-1 16l-1 22l1 16l4 24l3 15l3 14l2 14l3 22l3 15l3 16l5 16l5 15l6 15l9 19l8 14l15 22l11 14l5 6l11 12l16 17l23 21l12 9l18 12l13 8l15 8l15 7l17 7l16 6l17 5l15 5l23 5l30 6l14 2l30 2h42l35 -2l34 -4l17 -3l16 -4l17 -5l12 -1l6 3l7 8l33 45l11 9l13 4l26 2
l31 2h16l38 -3l15 -2l12 -6l8 -10l2 -10l-7 -12l-60 -88l-5 -11l2 -7l9 -10l22 -26l16 -21l9 -14l13 -21l17 -34l5 -15l4 -17l3 -17l3 -25l3 -18zM298 313l32 48l9 14l29 52l9 14l36 46l9 13l33 52l-4 8l-24 1l-6 2h-15l-24 -3l-15 -3l-37 -13l-19 -10l-13 -8l-20 -16
l-10 -11l-14 -17l-8 -14l-10 -23l-6 -16l-5 -17l-3 -18l-3 -25v-17l1 -17l3 -15l5 -23l5 -14l6 -13l5 -15l5 -10l8 5l31 49zM384 159l23 -1h16l17 1l23 4l15 4l29 11l13 8l25 18l11 11l17 20l8 14l14 28l5 15l6 26l3 17l1 17v17l-1 17l-3 16l-6 30l-5 14l-11 23h-7
l-196 -302z" />
    <glyph glyph-name="Ugrave" unicode="&#xd9;" horiz-adv-x="804" 
d="M445 830l-4 -9l-13 -4l-7 -1h-16l-45 3l-30 -2h-16l-8 1l-13 2l-9 4l-8 9l-51 61l-27 31l-9 13l-4 6l-4 13l4 8l13 3l9 1h17l47 -3l67 4l15 -1h8l13 -2l10 -6l7 -12l4 -8l7 -15l10 -23l7 -15l16 -28l7 -16zM710 397l3 -45l2 -32l-1 -15l-1 -23l-2 -15l-4 -24l-3 -16
l-4 -23l-4 -15l-8 -21l-5 -14l-9 -21l-7 -14l-13 -20l-10 -13l-12 -13l-13 -11l-20 -16l-13 -9l-20 -12l-13 -7l-21 -10l-15 -5l-22 -8l-15 -4l-23 -4l-15 -3l-31 -2h-46l-23 2l-15 1l-55 6l-16 3l-9 1l-16 5l-8 3l-16 7l-22 10l-15 9l-15 10l-26 22l-11 11l-13 17l-9 12
l-16 26l-9 14l-8 15l-7 16l-6 15l-4 14l-4 15l-4 22l-3 17l-2 17l-2 34l-1 16l3 61v16l-2 61v16l3 61v93l-2 32v17l1 17l3 16l7 9l13 3l33 2l38 -3h16l33 1l15 -1l23 -1l13 -3l8 -8l3 -13l1 -14v-15l-2 -39v-16l3 -61v-16l-1 -61v-16l-3 -61v-16l-1 -61l1 -16l2 -25l3 -16
l6 -22l6 -15l10 -23l10 -12l16 -17l13 -8l22 -8l15 -4l26 -2h16l26 5l15 4l19 9l13 8l16 14l10 12l11 21l7 15l5 16l3 16l4 30l1 16l-4 61v16l3 62v16l2 61v16l-2 62l-1 16l-3 42v25l4 14l9 8l13 3h21l51 -4h16l40 3h16l15 -1l13 -3l8 -7l1 -12l1 -30v-15l-1 -23v-16l3 -62
v-16l-2 -61v-16z" />
    <glyph glyph-name="Uacute" unicode="&#xda;" horiz-adv-x="804" 
d="M538 964l2 -7l-6 -10l-39 -52l-10 -12l-41 -50l-9 -10l-10 -5l-12 -2l-8 -1l-49 3h-74l-9 1l-3 1l-1 3v3l30 60l8 14l24 53l6 10l5 3h12l8 1h16l23 -1h15l47 1h15l22 2l28 -2zM710 397l3 -45l2 -32l-1 -15l-1 -23l-2 -15l-4 -24l-3 -16l-4 -23l-4 -15l-8 -21l-5 -14
l-9 -21l-7 -14l-13 -20l-10 -13l-12 -13l-13 -11l-20 -16l-13 -9l-20 -12l-13 -7l-21 -10l-15 -5l-22 -8l-15 -4l-23 -4l-15 -3l-31 -2h-46l-23 2l-15 1l-55 6l-16 3l-9 1l-16 5l-8 3l-16 7l-22 10l-15 9l-15 10l-26 22l-11 11l-13 17l-9 12l-16 26l-9 14l-8 15l-7 16l-6 15
l-4 14l-4 15l-4 22l-3 17l-2 17l-2 34l-1 16l3 61v16l-2 61v16l3 61v93l-2 32v17l1 17l3 16l7 9l13 3l33 2l38 -3h16l33 1l15 -1l23 -1l13 -3l8 -8l3 -13l1 -14v-15l-2 -39v-16l3 -61v-16l-1 -61v-16l-3 -61v-16l-1 -61l1 -16l2 -25l3 -16l6 -22l6 -15l10 -23l10 -12l16 -17
l13 -8l22 -8l15 -4l26 -2h16l26 5l15 4l19 9l13 8l16 14l10 12l11 21l7 15l5 16l3 16l4 30l1 16l-4 61v16l3 62v16l2 61v16l-2 62l-1 16l-3 42v25l4 14l9 8l13 3h21l51 -4h16l40 3h16l15 -1l13 -3l8 -7l1 -12l1 -30v-15l-1 -23v-16l3 -62v-16l-2 -61v-16z" />
    <glyph glyph-name="Ucircumflex" unicode="&#xdb;" horiz-adv-x="804" 
d="M593 835l1 -6l-4 -7l-10 -3l-15 -1h-15l-33 2h-77l-10 2l-8 6l-39 32l-8 6h-2l-8 -6l-35 -29l-8 -7l-4 -1h-73l-16 -1l-34 -3h-15l-14 1l-9 2l-3 6l1 6l6 7l4 6l11 12l22 22l11 10l39 37l11 11l21 22l11 10l7 6l9 8l6 4l8 2l13 1l32 2h15l38 -3h11l6 -2l6 -4l7 -8l49 -49
l41 -36l11 -11l37 -38zM710 397l3 -45l2 -32l-1 -15l-1 -23l-2 -15l-4 -24l-3 -16l-4 -23l-4 -15l-8 -21l-5 -14l-9 -21l-7 -14l-13 -20l-10 -13l-12 -13l-13 -11l-20 -16l-13 -9l-20 -12l-13 -7l-21 -10l-15 -5l-22 -8l-15 -4l-23 -4l-15 -3l-31 -2h-46l-23 2l-15 1l-55 6
l-16 3l-9 1l-16 5l-8 3l-16 7l-22 10l-15 9l-15 10l-26 22l-11 11l-13 17l-9 12l-16 26l-9 14l-8 15l-7 16l-6 15l-4 14l-4 15l-4 22l-3 17l-2 17l-2 34l-1 16l3 61v16l-2 61v16l3 61v93l-2 32v17l1 17l3 16l7 9l13 3l33 2l38 -3h16l33 1l15 -1l23 -1l13 -3l8 -8l3 -13
l1 -14v-15l-2 -39v-16l3 -61v-16l-1 -61v-16l-3 -61v-16l-1 -61l1 -16l2 -25l3 -16l6 -22l6 -15l10 -23l10 -12l16 -17l13 -8l22 -8l15 -4l26 -2h16l26 5l15 4l19 9l13 8l16 14l10 12l11 21l7 15l5 16l3 16l4 30l1 16l-4 61v16l3 62v16l2 61v16l-2 62l-1 16l-3 42v25l4 14
l9 8l13 3h21l51 -4h16l40 3h16l15 -1l13 -3l8 -7l1 -12l1 -30v-15l-1 -23v-16l3 -62v-16l-2 -61v-16z" />
    <glyph glyph-name="Udieresis" unicode="&#xdc;" horiz-adv-x="804" 
d="M315 890v-15l-3 -16l-5 -14l-7 -12l-8 -11l-12 -9l-13 -8l-14 -6l-17 -4l-9 -1h-23l-13 3l-13 4l-12 6l-11 7l-10 10l-10 12l-8 13l-4 13l-2 14v15l2 14l3 11l6 13l11 14l12 12l13 9l15 6l7 3l15 3h6l15 1l15 -2l6 -2l16 -4l14 -8l6 -4l11 -9l8 -11l7 -16l5 -17zM620 890
v-15l-3 -16l-5 -14l-7 -12l-8 -11l-12 -9l-13 -8l-14 -6l-17 -4l-9 -1h-23l-13 3l-13 4l-13 6l-10 7l-10 10l-10 12l-8 13l-4 13l-2 14v15l2 14l3 11l6 13l11 14l12 12l13 9l15 6l7 3l15 3h6l15 1l15 -2l6 -2l16 -4l14 -8l6 -4l11 -9l8 -11l7 -16l5 -17zM710 397l3 -45
l2 -32l-1 -15l-1 -23l-2 -15l-4 -24l-3 -16l-4 -23l-4 -15l-8 -21l-5 -14l-9 -21l-7 -14l-13 -20l-10 -13l-12 -13l-13 -11l-20 -16l-13 -9l-20 -12l-13 -7l-21 -10l-15 -5l-22 -8l-15 -4l-23 -4l-15 -3l-31 -2h-46l-23 2l-15 1l-55 6l-16 3l-9 1l-16 5l-8 3l-16 7l-22 10
l-15 9l-15 10l-26 22l-11 11l-13 17l-9 12l-16 26l-9 14l-8 15l-7 16l-6 15l-4 14l-4 15l-4 22l-3 17l-2 17l-2 34l-1 16l3 61v16l-2 61v16l3 61v93l-2 32v17l1 17l3 16l7 9l13 3l33 2l38 -3h16l33 1l15 -1l23 -1l13 -3l8 -8l3 -13l1 -14v-15l-2 -39v-16l3 -61v-16l-1 -61
v-16l-3 -61v-16l-1 -61l1 -16l2 -25l3 -16l6 -22l6 -15l10 -23l10 -12l16 -17l13 -8l22 -8l15 -4l26 -2h16l26 5l15 4l19 9l13 8l16 14l10 12l11 21l7 15l5 16l3 16l4 30l1 16l-4 61v16l3 62v16l2 61v16l-2 62l-1 16l-3 42v25l4 14l9 8l13 3h21l51 -4h16l40 3h16l15 -1
l13 -3l8 -7l1 -12l1 -30v-15l-1 -23v-16l3 -62v-16l-2 -61v-16z" />
    <glyph glyph-name="Yacute" unicode="&#xdd;" horiz-adv-x="800" 
d="M540 964l2 -7l-6 -10l-39 -52l-10 -12l-41 -50l-9 -10l-10 -5l-12 -2l-8 -1l-49 3h-74l-9 1l-3 1l-1 3v3l30 60l8 14l24 53l6 10l5 3h12l8 1h16l23 -1h15l47 1h15l22 2l28 -2zM764 715l-1 -4l-6 -9l-72 -106l-10 -13l-34 -46l-9 -13l-28 -49l-9 -14l-31 -46l-10 -14
l-32 -46l-10 -13l-33 -46l-4 -8v-81l4 -54l-1 -16l-4 -54v-16l4 -42l1 -14l-3 -8l-4 -4l-9 -2h-66l-117 4l-4 3l-2 10v123l-1 16l-4 54l-1 16l4 54l-2 9l-7 7l-27 48l-9 14l-32 45l-9 14l-29 48l-8 14l-70 106l-8 14l-30 47l-8 14l-29 48l-3 9l1 5l6 4h134l16 -1l58 -3
l11 -1l4 -3l29 -50l8 -13l30 -45l8 -13l26 -46l9 -14l27 -43l7 -9l6 -2l7 7l25 48l9 13l31 44l9 13l25 47l8 14l28 46l8 10l8 2l11 -1l50 -3h16l58 3h16l57 -4l12 -2z" />
    <glyph glyph-name="Thorn" unicode="&#xde;" horiz-adv-x="733" 
d="M668 422l3 -17l2 -16l1 -22v-14l-1 -22l-1 -15l-3 -17l-5 -16l-8 -23l-7 -14l-9 -14l-9 -13l-13 -17l-11 -12l-13 -11l-14 -11l-19 -13l-14 -9l-13 -7l-14 -7l-15 -5l-16 -5l-23 -5l-17 -3l-17 -2l-17 -1l-82 -3l-16 1l-30 4h-16l-13 -3l-7 -8l-2 -14l3 -46l-1 -15v-7
l-4 -12l-8 -6l-14 -2l-23 -2l-16 -1l-31 2h-16l-30 -1l-16 1l-24 2l-14 2l-9 6l-5 12v25l2 30v84l3 53v16l-4 53v16l4 53v16l-3 53v69l1 16l5 53v16l-4 53l-2 16l-1 26v15l1 14l5 14l9 8l13 1l70 2h16l84 -6l9 -7l4 -13v-17l-5 -49l-2 -13l1 -9l7 -4h14l42 5h16l53 -4l16 -1
l23 2h16l16 -1l16 -3l22 -7l15 -5l15 -6l28 -14l15 -8l13 -9l5 -5l12 -9l11 -11l10 -11l14 -20l10 -13l9 -13l8 -14l10 -20zM451 308l10 13l7 14l3 15v15l-3 15l-7 15l-11 13l-12 11l-6 5l-15 7l-22 6l-16 2l-8 -1l-16 -1l-24 -1h-16l-25 1h-16l-7 -1l-13 -2l-7 -6l-2 -13
l1 -18l4 -31l1 -16v-48l1 -13l3 -9l11 -3h15l34 5l16 1l48 -2l16 1l15 2l14 5l15 8z" />
    <glyph glyph-name="agrave" unicode="&#xe0;" 
d="M487 830l-4 -9l-13 -4l-7 -1h-16l-45 3l-30 -2h-16l-8 1l-13 2l-9 4l-8 9l-51 61l-27 31l-9 13l-4 6l-4 13l4 8l13 3l9 1h17l47 -3l67 4l15 -1h8l13 -2l10 -6l7 -12l4 -8l7 -15l10 -23l7 -15l16 -28l7 -16zM806 79l20 -50l3 -14l-7 -11l-11 -5l-13 -2h-14l-23 2l-15 1
h-45l-62 -4l-13 5l-6 7l-5 11l-31 84l-7 10l-9 2l-12 1l-60 4h-16l-75 2l-60 1h-15l-15 -1h-46l-13 -2l-8 -5l-6 -12l-23 -68l-6 -16l-11 -13l-15 -5h-16l-58 3h-16l-62 -4l-13 -1l-12 6l-8 11l1 13l2 8l6 16l14 31l6 15l25 56l6 14l26 56l6 15l23 54l6 15l27 56l6 14l36 82
l28 60l7 16l22 45l7 16l19 46l6 15l18 41l5 11l10 6l15 3l46 2h78l46 -1l17 -3l11 -8l5 -13l14 -39l6 -15l25 -47l6 -14l22 -49l6 -14l18 -51l6 -14l22 -48l6 -14l22 -49l6 -14l20 -50l6 -14l31 -62l24 -47l7 -14zM489 301l3 10l-4 13l-22 68l-5 15l-20 59l-5 13l-10 7
l-13 3l-11 -3l-10 -10l-27 -68l-6 -15l-26 -67l-3 -15l3 -12l11 -5l14 -2h63l47 -3l13 4z" />
    <glyph glyph-name="aacute" unicode="&#xe1;" 
d="M580 964l2 -7l-6 -10l-39 -52l-10 -12l-41 -50l-9 -10l-10 -5l-12 -2l-8 -1l-49 3h-74l-9 1l-3 1l-1 3v3l30 60l8 14l24 53l6 10l5 3h12l8 1h16l23 -1h15l47 1h15l22 2l28 -2zM806 79l20 -50l3 -14l-7 -11l-11 -5l-13 -2h-14l-23 2l-15 1h-45l-62 -4l-13 5l-6 7l-5 11
l-31 84l-7 10l-9 2l-12 1l-60 4h-16l-75 2l-60 1h-15l-15 -1h-46l-13 -2l-8 -5l-6 -12l-23 -68l-6 -16l-11 -13l-15 -5h-16l-58 3h-16l-62 -4l-13 -1l-12 6l-8 11l1 13l2 8l6 16l14 31l6 15l25 56l6 14l26 56l6 15l23 54l6 15l27 56l6 14l36 82l28 60l7 16l22 45l7 16l19 46
l6 15l18 41l5 11l10 6l15 3l46 2h78l46 -1l17 -3l11 -8l5 -13l14 -39l6 -15l25 -47l6 -14l22 -49l6 -14l18 -51l6 -14l22 -48l6 -14l22 -49l6 -14l20 -50l6 -14l31 -62l24 -47l7 -14zM489 301l3 10l-4 13l-22 68l-5 15l-20 59l-5 13l-10 7l-13 3l-11 -3l-10 -10l-27 -68
l-6 -15l-26 -67l-3 -15l3 -12l11 -5l14 -2h63l47 -3l13 4z" />
    <glyph glyph-name="acircumflex" unicode="&#xe2;" 
d="M635 835l1 -6l-4 -7l-10 -3l-15 -1h-15l-33 2h-77l-10 2l-8 6l-39 32l-8 6h-2l-8 -6l-35 -29l-8 -7l-4 -1h-73l-16 -1l-34 -3h-15l-14 1l-9 2l-3 6l1 6l6 7l4 6l11 12l22 22l11 10l39 37l11 11l21 22l11 10l7 6l9 8l6 4l8 2l13 1l32 2h15l38 -3h11l6 -2l6 -4l7 -8l49 -49
l41 -36l11 -11l37 -38zM806 79l20 -50l3 -14l-7 -11l-11 -5l-13 -2h-14l-23 2l-15 1h-45l-62 -4l-13 5l-6 7l-5 11l-31 84l-7 10l-9 2l-12 1l-60 4h-16l-75 2l-60 1h-15l-15 -1h-46l-13 -2l-8 -5l-6 -12l-23 -68l-6 -16l-11 -13l-15 -5h-16l-58 3h-16l-62 -4l-13 -1l-12 6
l-8 11l1 13l2 8l6 16l14 31l6 15l25 56l6 14l26 56l6 15l23 54l6 15l27 56l6 14l36 82l28 60l7 16l22 45l7 16l19 46l6 15l18 41l5 11l10 6l15 3l46 2h78l46 -1l17 -3l11 -8l5 -13l14 -39l6 -15l25 -47l6 -14l22 -49l6 -14l18 -51l6 -14l22 -48l6 -14l22 -49l6 -14l20 -50
l6 -14l31 -62l24 -47l7 -14zM489 301l3 10l-4 13l-22 68l-5 15l-20 59l-5 13l-10 7l-13 3l-11 -3l-10 -10l-27 -68l-6 -15l-26 -67l-3 -15l3 -12l11 -5l14 -2h63l47 -3l13 4z" />
    <glyph glyph-name="atilde" unicode="&#xe3;" 
d="M632 915l-1 -8l-5 -13l-4 -7l-8 -15l-9 -14l-10 -11l-11 -9l-5 -4l-13 -8l-15 -7l-15 -5l-14 -3l-8 -1h-15l-15 1l-16 2l-24 6l-16 7l-9 3l-8 4l-24 11l-24 6l-8 1h-14l-13 -4l-15 -9l-12 -12l-5 -7l-8 -7l-7 1l-11 6l-80 51l-4 5l1 8l6 12l7 13l5 6l9 13l4 6l12 12
l13 10l12 7l13 7l8 4l14 5l6 1l14 3l7 1l15 1h15l14 -1l6 -1l16 -4l24 -9l7 -4l16 -7l24 -9l14 -3h6l14 1l8 1l15 7l13 10l4 6l9 7h6l10 -6l75 -52zM806 79l20 -50l3 -14l-7 -11l-11 -5l-13 -2h-14l-23 2l-15 1h-45l-62 -4l-13 5l-6 7l-5 11l-31 84l-7 10l-9 2l-12 1l-60 4
h-16l-75 2l-60 1h-15l-15 -1h-46l-13 -2l-8 -5l-6 -12l-23 -68l-6 -16l-11 -13l-15 -5h-16l-58 3h-16l-62 -4l-13 -1l-12 6l-8 11l1 13l2 8l6 16l14 31l6 15l25 56l6 14l26 56l6 15l23 54l6 15l27 56l6 14l36 82l28 60l7 16l22 45l7 16l19 46l6 15l18 41l5 11l10 6l15 3
l46 2h78l46 -1l17 -3l11 -8l5 -13l14 -39l6 -15l25 -47l6 -14l22 -49l6 -14l18 -51l6 -14l22 -48l6 -14l22 -49l6 -14l20 -50l6 -14l31 -62l24 -47l7 -14zM489 301l3 10l-4 13l-22 68l-5 15l-20 59l-5 13l-10 7l-13 3l-11 -3l-10 -10l-27 -68l-6 -15l-26 -67l-3 -15l3 -12
l11 -5l14 -2h63l47 -3l13 4z" />
    <glyph glyph-name="adieresis" unicode="&#xe4;" 
d="M357 890v-15l-3 -16l-5 -14l-7 -12l-8 -11l-12 -9l-13 -8l-14 -6l-17 -4l-9 -1h-23l-13 3l-13 4l-12 6l-11 7l-10 10l-10 12l-8 13l-4 13l-2 14v15l2 14l3 11l6 13l11 14l12 12l13 9l15 6l7 3l15 3h6l15 1l15 -2l6 -2l16 -4l14 -8l6 -4l11 -9l8 -11l7 -16l5 -17zM662 890
v-15l-3 -16l-5 -14l-7 -12l-8 -11l-12 -9l-13 -8l-14 -6l-17 -4l-9 -1h-23l-13 3l-13 4l-13 6l-10 7l-10 10l-10 12l-8 13l-4 13l-2 14v15l2 14l3 11l6 13l11 14l12 12l13 9l15 6l7 3l15 3h6l15 1l15 -2l6 -2l16 -4l14 -8l6 -4l11 -9l8 -11l7 -16l5 -17zM806 79l20 -50
l3 -14l-7 -11l-11 -5l-13 -2h-14l-23 2l-15 1h-45l-62 -4l-13 5l-6 7l-5 11l-31 84l-7 10l-9 2l-12 1l-60 4h-16l-75 2l-60 1h-15l-15 -1h-46l-13 -2l-8 -5l-6 -12l-23 -68l-6 -16l-11 -13l-15 -5h-16l-58 3h-16l-62 -4l-13 -1l-12 6l-8 11l1 13l2 8l6 16l14 31l6 15l25 56
l6 14l26 56l6 15l23 54l6 15l27 56l6 14l36 82l28 60l7 16l22 45l7 16l19 46l6 15l18 41l5 11l10 6l15 3l46 2h78l46 -1l17 -3l11 -8l5 -13l14 -39l6 -15l25 -47l6 -14l22 -49l6 -14l18 -51l6 -14l22 -48l6 -14l22 -49l6 -14l20 -50l6 -14l31 -62l24 -47l7 -14zM489 301
l3 10l-4 13l-22 68l-5 15l-20 59l-5 13l-10 7l-13 3l-11 -3l-10 -10l-27 -68l-6 -15l-26 -67l-3 -15l3 -12l11 -5l14 -2h63l47 -3l13 4z" />
    <glyph glyph-name="aring" unicode="&#xe5;" 
d="M806 78l20 -50l3 -14l-7 -11l-11 -5l-13 -2h-14l-23 2l-15 1h-45l-62 -4l-13 4l-6 8l-5 11l-31 84l-7 10l-9 2l-12 1l-60 4h-16l-75 2l-60 1h-15l-15 -1h-46l-13 -2l-8 -5l-6 -12l-23 -68l-6 -16l-11 -13l-15 -6l-16 1l-58 3h-16l-62 -4l-13 -1l-12 6l-8 11l1 13l2 8
l6 16l14 31l6 15l25 56l6 14l26 56l6 15l23 54l6 15l27 56l6 14l36 82l28 60l7 16l22 45l7 16l19 46l6 15l6 13l-2 13l-9 14l-7 16l-6 16l-2 8l-3 14v27l3 15l5 15l2 8l8 16l11 16l10 13l4 5l10 9l6 4l14 9l15 8l15 5l22 5l14 3l14 1h16l17 -3l7 -1l15 -4l21 -7l15 -7l11 -7
l11 -8l11 -9l11 -11l4 -6l9 -14l3 -7l6 -17l3 -8l3 -18v-9l1 -17l-1 -7l-1 -16l-2 -7l-4 -16l-7 -15l-8 -14l-8 -9v-10l2 -8l6 -14l25 -47l6 -14l22 -49l6 -14l18 -51l6 -14l22 -48l6 -14l22 -49l6 -14l20 -50l6 -14l31 -62l24 -47l7 -14zM373 774l-1 -14l4 -12l7 -10l9 -8
l11 -5l10 -1l13 1l13 3l6 4l7 7l6 9l3 11v14l-3 12l-6 10l-8 7l-9 5l-11 2h-13l-11 -2l-12 -7l-10 -11zM489 300l3 10l-4 13l-22 68l-5 15l-20 59l-5 13l-10 7l-13 3l-11 -3l-10 -10l-27 -68l-6 -15l-26 -67l-3 -15l3 -12l11 -5l14 -2h63l47 -3l13 4z" />
    <glyph glyph-name="ae" unicode="&#xe6;" horiz-adv-x="1011" 
d="M939 81l-2 -34v-15l1 -7l1 -12l-3 -8l-6 -3l-11 -1l-43 -3h-16l-79 -2h-16l-77 2l-16 1l-58 3h-16l-47 -4h-16l-37 3l-12 2l-6 2l-2 9v29l2 48l1 12l-7 3h-75l-52 2h-16l-65 -3l-7 -7l-22 -35l-9 -14l-21 -37l-6 -9l-11 -3l-16 -2l-15 -1l-107 1l-26 1h-14l-9 4l-3 6
l4 10l32 49l8 14l27 52l8 14l29 50l8 14l30 50l9 14l33 47l9 14l26 52l8 14l31 50l9 14l33 47l9 14l27 51l8 14l31 50l40 62l7 11l5 4l10 1l6 1h15l47 -3l68 2l67 1h67l51 1h16l52 -4l16 1l30 3h14l8 -1l11 -2l5 -6l2 -7l1 -10l4 -50l2 -17l1 -25v-17l-1 -8l-3 -12l-5 -7
l-6 -3l-12 -1l-58 4h-16l-57 -2h-86l-6 -4l-2 -8l-1 -12l-1 -68l1 -12l2 -6l7 -3l13 -1l51 3h16l52 -2h16l24 1l17 -1l9 -1l13 -2l8 -2l6 -6l3 -12l1 -8v-16l-2 -25l-1 -17l1 -17l-1 -16l-2 -15l-3 -11l-5 -6l-6 -1l-11 -2l-9 -1l-16 -1l-26 2h-16l-52 -2h-17l-17 1l-33 -2
l-12 -2l-8 -4l-4 -5l-2 -11l-3 -37v-16l2 -33l1 -10l2 -4l6 -3l11 -1h65l48 -2h76l25 2l16 -1h8l10 -3l3 -6v-12l2 -41v-16zM487 459l4 25l-3 12l-10 2l-10 -9l-23 -44l-7 -14l-24 -51l-6 -14l-25 -51l-4 -10l-4 -8l1 -9l10 -3h82l10 3l2 8v13l1 25v17l4 91z" />
    <glyph glyph-name="ccedilla" unicode="&#xe7;" horiz-adv-x="735" 
d="M684 106l5 -9v-6l-8 -8l-18 -16l-12 -9l-19 -14l-12 -8l-20 -11l-13 -7l-23 -11l-15 -5l-17 -5l-17 -3l-25 -5l-35 -4l-14 -1l-1 -2l-2 -7l3 -9l8 -1l10 -2l16 -5l16 -7l14 -8l14 -11l12 -11l12 -13l8 -15l3 -13v-20l-1 -8l-3 -15l-3 -8l-5 -16l-7 -15l-9 -14l-17 -18
l-12 -12l-13 -11l-14 -9l-23 -10l-14 -5l-22 -4l-15 -1h-24l-16 1l-22 3l-15 3l-23 7l-14 6l-14 8l-12 9l-11 9l-18 18l-4 8v6l7 9l40 41l8 7l7 3l8 1l24 -11l7 -4l15 -4l7 -2l15 -1l8 1l13 1l10 5l8 6l5 7l1 13l-4 12l-8 7l-13 7l-15 5l-13 3h-14l-12 -3l-11 -2l-8 2l-12 6
l-10 8l-5 7l-1 8l3 9l7 13l6 12l11 20l4 10h-2l-17 4l-15 5l-45 12l-22 8l-13 6l-19 11l-12 9l-13 9l-14 9l-26 22l-12 12l-11 13l-11 15l-9 14l-8 14l-7 14l-10 21l-15 42l-7 20l-10 30l-2 15l-1 23l1 15l1 16v17l2 34l1 16l3 15l4 22l4 15l5 15l5 14l7 20l7 14l7 15l8 15
l9 15l9 14l10 13l11 14l12 13l12 11l13 11l12 10l32 22l13 8l14 8l30 14l17 6l16 5l34 8l17 3l17 2l31 2l22 2l15 -1l22 -1l37 -5l14 -3l23 -4l35 -10l14 -6l22 -13l14 -8l26 -18l31 -22l11 -8l6 -5l7 -7l2 -8l-1 -8l-6 -8l-9 -11l-11 -11l-11 -10l-11 -9l-11 -11l-17 -20
l-11 -12l-5 -5l-9 -8l-7 -3l-7 -1l-7 2l-11 6l-19 14l-13 7l-22 10l-14 5l-22 6l-15 3l-25 2h-16l-22 -2l-16 -4l-22 -7l-15 -6l-13 -5l-20 -10l-14 -10l-7 -6l-12 -13l-9 -14l-7 -13l-7 -14l-6 -15l-5 -16l-3 -17l-2 -15l-2 -30v-16l1 -25l1 -15l5 -23l5 -15l7 -17l8 -15
l15 -22l11 -12l19 -16l13 -9l20 -10l15 -6l22 -6l16 -3l24 -1h23l14 3l8 2l15 5l25 9l16 7l15 7l13 7l19 12l13 10l10 7l6 2l9 -2l11 -7l11 -10l4 -6l10 -11l16 -20l10 -12l27 -31l9 -12z" />
    <glyph glyph-name="egrave" unicode="&#xe8;" horiz-adv-x="699" 
d="M391 830l-4 -9l-13 -4l-7 -1h-16l-45 3l-30 -2h-16l-8 1l-13 2l-9 4l-8 9l-51 61l-27 31l-9 13l-4 6l-4 13l4 8l13 3l9 1h17l47 -3l67 4l15 -1h8l13 -2l10 -6l7 -12l4 -8l7 -15l10 -23l7 -15l16 -28l7 -16zM620 149l3 -55l-1 -16l-4 -54l-1 -10l-4 -7l-5 -4l-131 -4h-16
l-53 4l-16 -1l-52 -4l-16 -1h-69l-52 4h-16l-86 -5l-34 2l-12 2l-7 5l-3 7l-2 11l-2 23l-1 16l1 15v15l4 53v16l1 53l-1 16l-3 53l-1 16l2 54v85l4 53l-1 16l-3 53l-1 16v24l2 30v15l3 52l1 14l3 8l5 4l8 1l13 2l65 -4l61 1h16l60 -4h16l60 4h16l136 -2l17 1l34 3h25l14 -3
l6 -5l2 -7l2 -13v-27l-2 -25v-17l1 -25l1 -15l-1 -15l-2 -12l-4 -7l-5 -4l-12 -2h-8l-16 -1l-94 2h-16l-51 -2h-16l-52 2l-45 3h-15l-8 -1l-10 -2l-5 -5l-1 -6l-2 -11l-2 -24v-16l1 -17l1 -11l2 -7l4 -5l11 -3l32 -2l32 2h95l112 6l31 -2l11 -2l6 -5l3 -6l1 -11l2 -17l1 -17
v-33l2 -23l-2 -30l-2 -12l-4 -7l-7 -5l-10 -2h-20l-45 5l-16 1l-80 -5l-64 2h-16l-40 3l-17 -1l-12 -1l-5 -3l-3 -7l-1 -15l-3 -25l-1 -16v-22l1 -10l3 -7l4 -4l11 -1l55 -2h16l54 4l71 -4h16l71 4h15l15 -1l36 -4l6 -3l4 -6z" />
    <glyph glyph-name="eacute" unicode="&#xe9;" horiz-adv-x="699" 
d="M484 964l2 -7l-6 -10l-39 -52l-10 -12l-41 -50l-9 -10l-10 -5l-12 -2l-8 -1l-49 3h-74l-9 1l-3 1l-1 3v3l30 60l8 14l24 53l6 10l5 3h12l8 1h16l23 -1h15l47 1h15l22 2l28 -2zM620 149l3 -55l-1 -16l-4 -54l-1 -10l-4 -7l-5 -4l-131 -4h-16l-53 4l-16 -1l-52 -4l-16 -1
h-69l-52 4h-16l-86 -5l-34 2l-12 2l-7 5l-3 7l-2 11l-2 23l-1 16l1 15v15l4 53v16l1 53l-1 16l-3 53l-1 16l2 54v85l4 53l-1 16l-3 53l-1 16v24l2 30v15l3 52l1 14l3 8l5 4l8 1l13 2l65 -4l61 1h16l60 -4h16l60 4h16l136 -2l17 1l34 3h25l14 -3l6 -5l2 -7l2 -13v-27l-2 -25
v-17l1 -25l1 -15l-1 -15l-2 -12l-4 -7l-5 -4l-12 -2h-8l-16 -1l-94 2h-16l-51 -2h-16l-52 2l-45 3h-15l-8 -1l-10 -2l-5 -5l-1 -6l-2 -11l-2 -24v-16l1 -17l1 -11l2 -7l4 -5l11 -3l32 -2l32 2h95l112 6l31 -2l11 -2l6 -5l3 -6l1 -11l2 -17l1 -17v-33l2 -23l-2 -30l-2 -12
l-4 -7l-7 -5l-10 -2h-20l-45 5l-16 1l-80 -5l-64 2h-16l-40 3l-17 -1l-12 -1l-5 -3l-3 -7l-1 -15l-3 -25l-1 -16v-22l1 -10l3 -7l4 -4l11 -1l55 -2h16l54 4l71 -4h16l71 4h15l15 -1l36 -4l6 -3l4 -6z" />
    <glyph glyph-name="ecircumflex" unicode="&#xea;" horiz-adv-x="699" 
d="M539 835l1 -6l-4 -7l-10 -3l-15 -1h-15l-33 2h-77l-10 2l-8 6l-39 32l-8 6h-2l-8 -6l-35 -29l-8 -7l-4 -1h-73l-16 -1l-34 -3h-15l-14 1l-9 2l-3 6l1 6l6 7l4 6l11 12l22 22l11 10l39 37l11 11l21 22l11 10l7 6l9 8l6 4l8 2l13 1l32 2h15l38 -3h11l6 -2l6 -4l7 -8l49 -49
l41 -36l11 -11l37 -38zM620 149l3 -55l-1 -16l-4 -54l-1 -10l-4 -7l-5 -4l-131 -4h-16l-53 4l-16 -1l-52 -4l-16 -1h-69l-52 4h-16l-86 -5l-34 2l-12 2l-7 5l-3 7l-2 11l-2 23l-1 16l1 15v15l4 53v16l1 53l-1 16l-3 53l-1 16l2 54v85l4 53l-1 16l-3 53l-1 16v24l2 30v15
l3 52l1 14l3 8l5 4l8 1l13 2l65 -4l61 1h16l60 -4h16l60 4h16l136 -2l17 1l34 3h25l14 -3l6 -5l2 -7l2 -13v-27l-2 -25v-17l1 -25l1 -15l-1 -15l-2 -12l-4 -7l-5 -4l-12 -2h-8l-16 -1l-94 2h-16l-51 -2h-16l-52 2l-45 3h-15l-8 -1l-10 -2l-5 -5l-1 -6l-2 -11l-2 -24v-16
l1 -17l1 -11l2 -7l4 -5l11 -3l32 -2l32 2h95l112 6l31 -2l11 -2l6 -5l3 -6l1 -11l2 -17l1 -17v-33l2 -23l-2 -30l-2 -12l-4 -7l-7 -5l-10 -2h-20l-45 5l-16 1l-80 -5l-64 2h-16l-40 3l-17 -1l-12 -1l-5 -3l-3 -7l-1 -15l-3 -25l-1 -16v-22l1 -10l3 -7l4 -4l11 -1l55 -2h16
l54 4l71 -4h16l71 4h15l15 -1l36 -4l6 -3l4 -6z" />
    <glyph glyph-name="edieresis" unicode="&#xeb;" horiz-adv-x="699" 
d="M261 890v-15l-3 -16l-5 -14l-7 -12l-8 -11l-12 -9l-13 -8l-14 -6l-17 -4l-9 -1h-23l-13 3l-13 4l-12 6l-11 7l-10 10l-10 12l-8 13l-4 13l-2 14v15l2 14l3 11l6 13l11 14l12 12l13 9l15 6l7 3l15 3h6l15 1l15 -2l6 -2l16 -4l14 -8l6 -4l11 -9l8 -11l7 -16l5 -17zM566 890
v-15l-3 -16l-5 -14l-7 -12l-8 -11l-12 -9l-13 -8l-14 -6l-17 -4l-9 -1h-23l-13 3l-13 4l-13 6l-10 7l-10 10l-10 12l-8 13l-4 13l-2 14v15l2 14l3 11l6 13l11 14l12 12l13 9l15 6l7 3l15 3h6l15 1l15 -2l6 -2l16 -4l14 -8l6 -4l11 -9l8 -11l7 -16l5 -17zM620 149l3 -55
l-1 -16l-4 -54l-1 -10l-4 -7l-5 -4l-131 -4h-16l-53 4l-16 -1l-52 -4l-16 -1h-69l-52 4h-16l-86 -5l-34 2l-12 2l-7 5l-3 7l-2 11l-2 23l-1 16l1 15v15l4 53v16l1 53l-1 16l-3 53l-1 16l2 54v85l4 53l-1 16l-3 53l-1 16v24l2 30v15l3 52l1 14l3 8l5 4l8 1l13 2l65 -4l61 1
h16l60 -4h16l60 4h16l136 -2l17 1l34 3h25l14 -3l6 -5l2 -7l2 -13v-27l-2 -25v-17l1 -25l1 -15l-1 -15l-2 -12l-4 -7l-5 -4l-12 -2h-8l-16 -1l-94 2h-16l-51 -2h-16l-52 2l-45 3h-15l-8 -1l-10 -2l-5 -5l-1 -6l-2 -11l-2 -24v-16l1 -17l1 -11l2 -7l4 -5l11 -3l32 -2l32 2h95
l112 6l31 -2l11 -2l6 -5l3 -6l1 -11l2 -17l1 -17v-33l2 -23l-2 -30l-2 -12l-4 -7l-7 -5l-10 -2h-20l-45 5l-16 1l-80 -5l-64 2h-16l-40 3l-17 -1l-12 -1l-5 -3l-3 -7l-1 -15l-3 -25l-1 -16v-22l1 -10l3 -7l4 -4l11 -1l55 -2h16l54 4l71 -4h16l71 4h15l15 -1l36 -4l6 -3l4 -6
z" />
    <glyph glyph-name="igrave" unicode="&#xec;" horiz-adv-x="345" 
d="M207 830l-4 -9l-13 -4l-7 -1h-16l-45 3l-30 -2h-16l-8 1l-13 2l-9 4l-8 9l-51 61l-27 31l-9 13l-4 6l-5 13l4 8l14 3l9 1h17l47 -3l67 4l15 -1h8l13 -2l10 -6l7 -12l4 -8l7 -15l10 -23l7 -15l16 -28l7 -16zM246 211l3 -54v-16l-4 -54v-16l-1 -55v-11l-3 -6l-8 -2l-14 -1
l-51 1h-62l-50 4l-6 2l-3 3v10l-2 25v16l-1 15v15l-3 54l1 16l3 54l1 16l-3 55v16l-1 54v86l-1 55v16l1 54v86l-2 55l3 11l6 4l10 1h8l15 1l24 -1h16l46 2h62l11 -2l2 -6l1 -11l2 -26l1 -16v-98l1 -54v-16l-1 -55v-16l1 -54v-16l-2 -54v-87z" />
    <glyph glyph-name="iacute" unicode="&#xed;" horiz-adv-x="345" 
d="M300 964l2 -7l-6 -10l-39 -52l-10 -12l-41 -50l-9 -10l-10 -5l-12 -2l-8 -1l-49 3h-74l-9 1l-3 1l-1 3v3l30 60l8 14l24 53l6 10l5 3h12l8 1h16l23 -1h15l47 1h15l22 2l28 -2zM246 211l3 -54v-16l-4 -54v-16l-1 -55v-11l-3 -6l-8 -2l-14 -1l-51 1h-62l-50 4l-6 2l-3 3v10
l-2 25v16l-1 15v15l-3 54l1 16l3 54l1 16l-3 55v16l-1 54v86l-1 55v16l1 54v86l-2 55l3 11l6 4l10 1h8l15 1l24 -1h16l46 2h62l11 -2l2 -6l1 -11l2 -26l1 -16v-98l1 -54v-16l-1 -55v-16l1 -54v-16l-2 -54v-87z" />
    <glyph glyph-name="icircumflex" unicode="&#xee;" horiz-adv-x="345" 
d="M355 835l1 -6l-4 -7l-10 -3l-15 -1h-15l-33 2h-77l-10 2l-8 6l-39 32l-8 6h-2l-8 -6l-35 -29l-8 -7l-4 -1h-73l-16 -1l-34 -3h-15l-14 1l-10 2l-2 6l1 6l6 7l4 6l10 12l22 22l12 10l39 37l11 11l21 22l11 10l7 6l9 8l6 4l8 2l13 1l32 2h15l38 -3h11l6 -2l6 -4l7 -8
l49 -49l41 -36l11 -11l37 -38zM246 211l3 -54v-16l-4 -54v-16l-1 -55v-11l-3 -6l-8 -2l-14 -1l-51 1h-62l-50 4l-6 2l-3 3v10l-2 25v16l-1 15v15l-3 54l1 16l3 54l1 16l-3 55v16l-1 54v86l-1 55v16l1 54v86l-2 55l3 11l6 4l10 1h8l15 1l24 -1h16l46 2h62l11 -2l2 -6l1 -11
l2 -26l1 -16v-98l1 -54v-16l-1 -55v-16l1 -54v-16l-2 -54v-87z" />
    <glyph glyph-name="idieresis" unicode="&#xef;" horiz-adv-x="345" 
d="M77 890v-15l-3 -16l-5 -14l-7 -12l-8 -11l-12 -9l-13 -8l-14 -6l-17 -4l-9 -1h-23l-14 3l-13 4l-12 6l-10 7l-11 10l-10 12l-7 13l-5 13l-2 14v15l2 14l4 11l6 13l10 14l13 12l13 9l15 6l7 3l15 3h6l15 1l15 -2l6 -2l16 -4l14 -8l6 -4l11 -9l8 -11l7 -16l5 -17zM382 890
v-15l-3 -16l-5 -14l-7 -12l-8 -11l-12 -9l-13 -8l-14 -6l-17 -4l-9 -1h-23l-13 3l-13 4l-13 6l-10 7l-10 10l-10 12l-8 13l-4 13l-2 14v15l2 14l3 11l6 13l11 14l12 12l13 9l15 6l7 3l15 3h6l15 1l15 -2l6 -2l16 -4l14 -8l6 -4l11 -9l8 -11l7 -16l5 -17zM246 211l3 -54v-16
l-4 -54v-16l-1 -55v-11l-3 -6l-8 -2l-14 -1l-51 1h-62l-50 4l-6 2l-3 3v10l-2 25v16l-1 15v15l-3 54l1 16l3 54l1 16l-3 55v16l-1 54v86l-1 55v16l1 54v86l-2 55l3 11l6 4l10 1h8l15 1l24 -1h16l46 2h62l11 -2l2 -6l1 -11l2 -26l1 -16v-98l1 -54v-16l-1 -55v-16l1 -54v-16
l-2 -54v-87z" />
    <glyph glyph-name="eth" unicode="&#xf0;" horiz-adv-x="832" 
d="M773 376l2 -34l-1 -17l-1 -23l-3 -16l-7 -23l-5 -16l-12 -32l-6 -17l-6 -15l-11 -21l-8 -13l-14 -17l-10 -11l-17 -15l-22 -22l-32 -27l-15 -9l-16 -8l-15 -7l-22 -8l-15 -5l-16 -4l-16 -3l-24 -5l-15 -2l-22 -2l-15 -1l-22 -2h-16l-32 1l-25 2h-17l-31 -2l-26 -2h-48
l-26 1h-15l-14 -1l-44 3l-13 2l-8 4l-5 5l-2 11l-1 16l1 8l2 30v15l1 22v16l1 15v85l-3 53l-5 8l-13 -1l-16 -1h-14l-11 2l-8 4l-5 5l-3 10v22l3 22l1 17l-2 25l1 17l2 11l3 7l6 4l30 -2l25 1l8 8l3 49v16l-1 53v16l-3 53v16l1 22l1 16l2 15l2 12l4 5l5 2l10 2l14 2l45 3h15
l58 -1l64 -4l9 -1h17l42 2l15 1h16l25 -1l32 -2l16 -2l57 -11l36 -13l15 -7l30 -16l19 -14l13 -9l13 -11l12 -11l22 -21l10 -10l9 -11l7 -13l11 -21l6 -15l5 -16l6 -16l5 -16l4 -16l4 -23l6 -32l2 -16zM535 236l12 19l6 14l8 20l3 14l4 22l1 14l1 23v31l-1 16l-3 23l-4 15
l-2 7l-8 15l-15 21l-5 5l-10 11l-11 11l-12 9l-22 13l-14 6l-14 3l-14 2l-45 3h-46l-30 -2l-10 -1l-8 -3l-5 -6l-3 -12l-1 -9l-1 -15l3 -45l1 -14l2 -7l41 -1h16l45 -3l12 -1l8 -3l5 -5l2 -11l1 -8v-15l-2 -22v-15l1 -17v-17l-2 -8l-1 -11l-3 -6l-8 -4l-12 -2l-29 -2l-51 2
h-16l-8 -8l-2 -32l-1 -22l1 -16l2 -16l2 -11l3 -8l6 -5l12 -1l116 7l16 3l16 5l16 6l15 8l14 9l18 15z" />
    <glyph glyph-name="ntilde" unicode="&#xf1;" horiz-adv-x="821" 
d="M607 915l-1 -8l-5 -13l-4 -7l-8 -15l-9 -14l-10 -11l-11 -9l-5 -4l-13 -8l-15 -7l-15 -5l-14 -3l-8 -1h-15l-15 1l-16 2l-24 6l-16 7l-9 3l-8 4l-24 11l-24 6l-8 1h-14l-13 -4l-15 -9l-12 -12l-5 -7l-8 -7l-7 1l-11 6l-80 51l-4 5l1 8l6 12l7 13l5 6l9 13l4 6l12 12
l13 10l12 7l13 7l8 4l14 5l6 1l14 3l7 1l15 1h15l14 -1l6 -1l16 -4l24 -9l7 -4l16 -7l24 -9l14 -3h6l14 1l8 1l15 7l13 10l4 6l9 7h6l10 -6l75 -52zM723 624l-3 -59l-1 -16v-148l3 -58v-16l2 -132v-17l-1 -8l-1 -17l-3 -48l1 -58l-1 -14l-4 -12l-8 -11l-10 -7l-9 -3l-14 -1
l-51 -2l-16 -1l-25 -1h-16l-13 3l-12 5l-12 9l-9 13l-15 29l-9 13l-39 49l-10 12l-39 48l-9 13l-35 52l-9 12l-39 48l-10 12l-37 49l-9 8l-7 -3l-3 -12l-2 -50v-16l1 -50v-16l1 -56v-16l-3 -56l1 -16l6 -40l1 -16l-3 -13l-7 -7l-7 -2l-12 -2l-8 -1l-17 -1l-46 1h-16l-41 -2
h-16l-15 1l-11 2l-8 5l-4 7l-2 10l-1 7v15l2 33l1 16l-3 53v16l2 122l1 16l3 53l1 16v69l-4 53v16l4 53l-1 16l-4 54l-1 16v23l1 15l2 15l2 11l3 7l6 3l11 2l30 2l30 -2h75l12 -1l5 -4l6 -9l42 -45l10 -12l37 -48l10 -12l37 -49l10 -12l36 -50l9 -12l38 -48l10 -12l36 -50
l8 -7l8 -1l7 5v11l-7 42l-1 16l3 43v16l-4 61v16l4 61l-1 16l-3 37v25l3 13l4 8l7 4l12 2h9l17 1l45 -3h16l34 2l15 -1l23 -1l11 -2l7 -3l6 -7l2 -14l1 -9l1 -17l-2 -31z" />
    <glyph glyph-name="ograve" unicode="&#xf2;" horiz-adv-x="873" 
d="M481 830l-4 -9l-13 -4l-7 -1h-16l-45 3l-30 -2h-16l-8 1l-13 2l-9 4l-8 9l-51 61l-27 31l-9 13l-4 6l-4 13l4 8l13 3l9 1h17l47 -3l67 4l15 -1h8l13 -2l10 -6l7 -12l4 -8l7 -15l10 -23l7 -15l16 -28l7 -16zM812 403l2 -34l-1 -16l-2 -23l-2 -15l-6 -30l-2 -23l-2 -15
l-3 -16l-4 -15l-10 -21l-7 -14l-27 -45l-9 -13l-10 -13l-10 -11l-16 -17l-11 -10l-13 -10l-12 -9l-18 -12l-13 -8l-15 -8l-14 -6l-20 -8l-15 -4l-32 -10l-17 -5l-16 -4l-17 -4l-17 -3l-17 -1h-54l-34 2l-33 4l-14 3l-15 4l-54 18l-16 5l-17 7l-32 14l-15 8l-15 9l-13 10
l-13 11l-12 13l-11 13l-27 27l-10 12l-10 13l-8 13l-8 20l-15 45l-6 21l-3 15l-3 16l-3 15l-3 22l-1 15l-1 17v17l1 17l1 18l2 17l3 17l4 17l5 17l5 15l6 16l7 23l7 16l4 9l8 15l14 22l10 14l5 8l12 12l17 14l13 10l13 9l30 20l13 8l14 8l14 7l21 9l14 5l15 5l15 4l38 7
l15 3l50 6l32 2l30 -2l24 -1l17 -2l17 -3l17 -4l17 -3l16 -4l15 -4l15 -5l21 -8l14 -6l33 -19l13 -9l13 -10l17 -16l11 -10l11 -11l9 -12l14 -19l8 -13l7 -13l8 -13l11 -20l8 -13l7 -15l5 -14l5 -23l6 -30l2 -17zM602 328l2 24v17l-1 17l-1 16l-6 30l-4 14l-11 22l-8 13
l-14 18l-10 11l-15 16l-11 9l-26 15l-14 6l-16 5l-16 3l-32 2l-15 -1l-22 -1l-15 -3l-26 -7l-16 -6l-23 -12l-14 -9l-16 -14l-11 -12l-11 -15l-8 -13l-3 -6l-9 -21l-5 -15l-3 -7l-3 -14l-2 -14l-1 -14l-1 -15v-15l1 -16l3 -16l1 -9l4 -15l2 -7l5 -14l4 -8l8 -14l5 -8l11 -14
l6 -7l12 -12l20 -17l14 -9l16 -8l15 -6l21 -7l15 -3l25 -3l17 -1l25 2l16 2l22 5l14 6l22 14l12 9l16 16l10 11l13 16l9 14l10 22l6 15l5 23z" />
    <glyph glyph-name="oacute" unicode="&#xf3;" horiz-adv-x="873" 
d="M574 964l2 -7l-6 -10l-39 -52l-10 -12l-41 -50l-9 -10l-10 -5l-12 -2l-8 -1l-49 3h-74l-9 1l-3 1l-1 3v3l30 60l8 14l24 53l6 10l5 3h12l8 1h16l23 -1h15l47 1h15l22 2l28 -2zM812 403l2 -34l-1 -16l-2 -23l-2 -15l-6 -30l-2 -23l-2 -15l-3 -16l-4 -15l-10 -21l-7 -14
l-27 -45l-9 -13l-10 -13l-10 -11l-16 -17l-11 -10l-13 -10l-12 -9l-18 -12l-13 -8l-15 -8l-14 -6l-20 -8l-15 -4l-32 -10l-17 -5l-16 -4l-17 -4l-17 -3l-17 -1h-54l-34 2l-33 4l-14 3l-15 4l-54 18l-16 5l-17 7l-32 14l-15 8l-15 9l-13 10l-13 11l-12 13l-11 13l-27 27
l-10 12l-10 13l-8 13l-8 20l-15 45l-6 21l-3 15l-3 16l-3 15l-3 22l-1 15l-1 17v17l1 17l1 18l2 17l3 17l4 17l5 17l5 15l6 16l7 23l7 16l4 9l8 15l14 22l10 14l5 8l12 12l17 14l13 10l13 9l30 20l13 8l14 8l14 7l21 9l14 5l15 5l15 4l38 7l15 3l50 6l32 2l30 -2l24 -1
l17 -2l17 -3l17 -4l17 -3l16 -4l15 -4l15 -5l21 -8l14 -6l33 -19l13 -9l13 -10l17 -16l11 -10l11 -11l9 -12l14 -19l8 -13l7 -13l8 -13l11 -20l8 -13l7 -15l5 -14l5 -23l6 -30l2 -17zM602 328l2 24v17l-1 17l-1 16l-6 30l-4 14l-11 22l-8 13l-14 18l-10 11l-15 16l-11 9
l-26 15l-14 6l-16 5l-16 3l-32 2l-15 -1l-22 -1l-15 -3l-26 -7l-16 -6l-23 -12l-14 -9l-16 -14l-11 -12l-11 -15l-8 -13l-3 -6l-9 -21l-5 -15l-3 -7l-3 -14l-2 -14l-1 -14l-1 -15v-15l1 -16l3 -16l1 -9l4 -15l2 -7l5 -14l4 -8l8 -14l5 -8l11 -14l6 -7l12 -12l20 -17l14 -9
l16 -8l15 -6l21 -7l15 -3l25 -3l17 -1l25 2l16 2l22 5l14 6l22 14l12 9l16 16l10 11l13 16l9 14l10 22l6 15l5 23z" />
    <glyph glyph-name="ocircumflex" unicode="&#xf4;" horiz-adv-x="873" 
d="M629 835l1 -6l-4 -7l-10 -3l-15 -1h-15l-33 2h-77l-10 2l-8 6l-39 32l-8 6h-2l-8 -6l-35 -29l-8 -7l-4 -1h-73l-16 -1l-34 -3h-15l-14 1l-9 2l-3 6l1 6l6 7l4 6l11 12l22 22l11 10l39 37l11 11l21 22l11 10l7 6l9 8l6 4l8 2l13 1l32 2h15l38 -3h11l6 -2l6 -4l7 -8l49 -49
l41 -36l11 -11l37 -38zM812 403l2 -34l-1 -16l-2 -23l-2 -15l-6 -30l-2 -23l-2 -15l-3 -16l-4 -15l-10 -21l-7 -14l-27 -45l-9 -13l-10 -13l-10 -11l-16 -17l-11 -10l-13 -10l-12 -9l-18 -12l-13 -8l-15 -8l-14 -6l-20 -8l-15 -4l-32 -10l-17 -5l-16 -4l-17 -4l-17 -3
l-17 -1h-54l-34 2l-33 4l-14 3l-15 4l-54 18l-16 5l-17 7l-32 14l-15 8l-15 9l-13 10l-13 11l-12 13l-11 13l-27 27l-10 12l-10 13l-8 13l-8 20l-15 45l-6 21l-3 15l-3 16l-3 15l-3 22l-1 15l-1 17v17l1 17l1 18l2 17l3 17l4 17l5 17l5 15l6 16l7 23l7 16l4 9l8 15l14 22
l10 14l5 8l12 12l17 14l13 10l13 9l30 20l13 8l14 8l14 7l21 9l14 5l15 5l15 4l38 7l15 3l50 6l32 2l30 -2l24 -1l17 -2l17 -3l17 -4l17 -3l16 -4l15 -4l15 -5l21 -8l14 -6l33 -19l13 -9l13 -10l17 -16l11 -10l11 -11l9 -12l14 -19l8 -13l7 -13l8 -13l11 -20l8 -13l7 -15
l5 -14l5 -23l6 -30l2 -17zM602 328l2 24v17l-1 17l-1 16l-6 30l-4 14l-11 22l-8 13l-14 18l-10 11l-15 16l-11 9l-26 15l-14 6l-16 5l-16 3l-32 2l-15 -1l-22 -1l-15 -3l-26 -7l-16 -6l-23 -12l-14 -9l-16 -14l-11 -12l-11 -15l-8 -13l-3 -6l-9 -21l-5 -15l-3 -7l-3 -14
l-2 -14l-1 -14l-1 -15v-15l1 -16l3 -16l1 -9l4 -15l2 -7l5 -14l4 -8l8 -14l5 -8l11 -14l6 -7l12 -12l20 -17l14 -9l16 -8l15 -6l21 -7l15 -3l25 -3l17 -1l25 2l16 2l22 5l14 6l22 14l12 9l16 16l10 11l13 16l9 14l10 22l6 15l5 23z" />
    <glyph glyph-name="otilde" unicode="&#xf5;" horiz-adv-x="873" 
d="M626 915l-1 -8l-5 -13l-4 -7l-8 -15l-9 -14l-10 -11l-11 -9l-5 -4l-13 -8l-15 -7l-15 -5l-14 -3l-8 -1h-15l-15 1l-16 2l-24 6l-16 7l-9 3l-8 4l-24 11l-24 6l-8 1h-14l-13 -4l-15 -9l-12 -12l-5 -7l-8 -7l-7 1l-11 6l-80 51l-4 5l1 8l6 12l7 13l5 6l9 13l4 6l12 12
l13 10l12 7l13 7l8 4l14 5l6 1l14 3l7 1l15 1h15l14 -1l6 -1l16 -4l24 -9l7 -4l16 -7l24 -9l14 -3h6l14 1l8 1l15 7l13 10l4 6l9 7h6l10 -6l75 -52zM812 403l2 -34l-1 -16l-2 -23l-2 -15l-6 -30l-2 -23l-2 -15l-3 -16l-4 -15l-10 -21l-7 -14l-27 -45l-9 -13l-10 -13l-10 -11
l-16 -17l-11 -10l-13 -10l-12 -9l-18 -12l-13 -8l-15 -8l-14 -6l-20 -8l-15 -4l-32 -10l-17 -5l-16 -4l-17 -4l-17 -3l-17 -1h-54l-34 2l-33 4l-14 3l-15 4l-54 18l-16 5l-17 7l-32 14l-15 8l-15 9l-13 10l-13 11l-12 13l-11 13l-27 27l-10 12l-10 13l-8 13l-8 20l-15 45
l-6 21l-3 15l-3 16l-3 15l-3 22l-1 15l-1 17v17l1 17l1 18l2 17l3 17l4 17l5 17l5 15l6 16l7 23l7 16l4 9l8 15l14 22l10 14l5 8l12 12l17 14l13 10l13 9l30 20l13 8l14 8l14 7l21 9l14 5l15 5l15 4l38 7l15 3l50 6l32 2l30 -2l24 -1l17 -2l17 -3l17 -4l17 -3l16 -4l15 -4
l15 -5l21 -8l14 -6l33 -19l13 -9l13 -10l17 -16l11 -10l11 -11l9 -12l14 -19l8 -13l7 -13l8 -13l11 -20l8 -13l7 -15l5 -14l5 -23l6 -30l2 -17zM602 328l2 24v17l-1 17l-1 16l-6 30l-4 14l-11 22l-8 13l-14 18l-10 11l-15 16l-11 9l-26 15l-14 6l-16 5l-16 3l-32 2l-15 -1
l-22 -1l-15 -3l-26 -7l-16 -6l-23 -12l-14 -9l-16 -14l-11 -12l-11 -15l-8 -13l-3 -6l-9 -21l-5 -15l-3 -7l-3 -14l-2 -14l-1 -14l-1 -15v-15l1 -16l3 -16l1 -9l4 -15l2 -7l5 -14l4 -8l8 -14l5 -8l11 -14l6 -7l12 -12l20 -17l14 -9l16 -8l15 -6l21 -7l15 -3l25 -3l17 -1
l25 2l16 2l22 5l14 6l22 14l12 9l16 16l10 11l13 16l9 14l10 22l6 15l5 23z" />
    <glyph glyph-name="odieresis" unicode="&#xf6;" horiz-adv-x="873" 
d="M351 890v-15l-3 -16l-5 -14l-7 -12l-8 -11l-12 -9l-13 -8l-14 -6l-17 -4l-9 -1h-23l-13 3l-13 4l-12 6l-11 7l-10 10l-10 12l-8 13l-4 13l-2 14v15l2 14l3 11l6 13l11 14l12 12l13 9l15 6l7 3l15 3h6l15 1l15 -2l6 -2l16 -4l14 -8l6 -4l11 -9l8 -11l7 -16l5 -17zM656 890
v-15l-3 -16l-5 -14l-7 -12l-8 -11l-12 -9l-13 -8l-14 -6l-17 -4l-9 -1h-23l-13 3l-13 4l-13 6l-10 7l-10 10l-10 12l-8 13l-4 13l-2 14v15l2 14l3 11l6 13l11 14l12 12l13 9l15 6l7 3l15 3h6l15 1l15 -2l6 -2l16 -4l14 -8l6 -4l11 -9l8 -11l7 -16l5 -17zM812 403l2 -34
l-1 -16l-2 -23l-2 -15l-6 -30l-2 -23l-2 -15l-3 -16l-4 -15l-10 -21l-7 -14l-27 -45l-9 -13l-10 -13l-10 -11l-16 -17l-11 -10l-13 -10l-12 -9l-18 -12l-13 -8l-15 -8l-14 -6l-20 -8l-15 -4l-32 -10l-17 -5l-16 -4l-17 -4l-17 -3l-17 -1h-54l-34 2l-33 4l-14 3l-15 4l-54 18
l-16 5l-17 7l-32 14l-15 8l-15 9l-13 10l-13 11l-12 13l-11 13l-27 27l-10 12l-10 13l-8 13l-8 20l-15 45l-6 21l-3 15l-3 16l-3 15l-3 22l-1 15l-1 17v17l1 17l1 18l2 17l3 17l4 17l5 17l5 15l6 16l7 23l7 16l4 9l8 15l14 22l10 14l5 8l12 12l17 14l13 10l13 9l30 20l13 8
l14 8l14 7l21 9l14 5l15 5l15 4l38 7l15 3l50 6l32 2l30 -2l24 -1l17 -2l17 -3l17 -4l17 -3l16 -4l15 -4l15 -5l21 -8l14 -6l33 -19l13 -9l13 -10l17 -16l11 -10l11 -11l9 -12l14 -19l8 -13l7 -13l8 -13l11 -20l8 -13l7 -15l5 -14l5 -23l6 -30l2 -17zM602 328l2 24v17l-1 17
l-1 16l-6 30l-4 14l-11 22l-8 13l-14 18l-10 11l-15 16l-11 9l-26 15l-14 6l-16 5l-16 3l-32 2l-15 -1l-22 -1l-15 -3l-26 -7l-16 -6l-23 -12l-14 -9l-16 -14l-11 -12l-11 -15l-8 -13l-3 -6l-9 -21l-5 -15l-3 -7l-3 -14l-2 -14l-1 -14l-1 -15v-15l1 -16l3 -16l1 -9l4 -15
l2 -7l5 -14l4 -8l8 -14l5 -8l11 -14l6 -7l12 -12l20 -17l14 -9l16 -8l15 -6l21 -7l15 -3l25 -3l17 -1l25 2l16 2l22 5l14 6l22 14l12 9l16 16l10 11l13 16l9 14l10 22l6 15l5 23z" />
    <glyph glyph-name="divide" unicode="&#xf7;" horiz-adv-x="580" 
d="M367 579v-28l-4 -16l-8 -16l-11 -13l-14 -12l-16 -9l-18 -6l-11 -2l-1 1h-3l-3 -1l-5 -1h-12l-6 1l-16 2l-18 6l-16 8l-14 12l-12 14l-8 16l-5 16v28l5 16l10 16l11 13l14 12l16 9l17 7l16 4h23l18 -3l18 -7l16 -10l14 -12l11 -13l8 -16zM504 362l3 -45l-1 -15l-4 -13
l-9 -7l-13 -3l-23 -1l-15 -1l-96 3h-54l-58 -2h-90l-23 1h-52l-23 2l-12 2l-6 7l-3 12l-2 15l-1 15l1 15l-2 30v15l1 15l3 13l8 8l13 3l23 1l15 -1l22 -1l16 -1l58 2h16l59 -4h15l23 2l15 1l22 1h15l23 -1l14 -1l23 -2l15 1l22 1l15 1h23l13 -2l7 -9l3 -13l1 -15l1 -14z
M367 148v-27l-4 -16l-8 -16l-11 -13l-14 -12l-16 -8l-18 -6l-18 -3l-17 -1l-6 1l-16 2l-17 6l-17 8l-14 12l-12 14l-8 16l-5 16v27l5 16l9 16l12 14l14 12l16 10l17 7l16 3l6 1h17l18 -4l18 -7l16 -10l14 -12l11 -13l8 -17z" />
    <glyph glyph-name="oslash" unicode="&#xf8;" horiz-adv-x="872" 
d="M812 394l4 -26l1 -17l-1 -8l-1 -18l-3 -25l-3 -17l-4 -16l-5 -15l-7 -20l-6 -15l-5 -17l-6 -16l-7 -15l-8 -14l-12 -19l-9 -12l-9 -13l-22 -22l-12 -9l-44 -31l-13 -9l-19 -11l-15 -7l-16 -7l-16 -5l-49 -16l-17 -5l-17 -3l-16 -3l-17 -1h-18l-17 -1h-17l-15 1h-17l-17 1
l-17 2l-17 3l-16 3l-15 3h-13l-10 -7l-9 -11l-4 -7l-10 -13l-15 -17l-10 -12l-13 -7l-31 -2l-15 1h-16l-38 -3l-17 1l-8 1l-13 5l-5 6l-2 6l1 7l3 12l3 7l6 13l13 19l9 13l27 41l8 13v10l-9 10l-17 17l-10 12l-13 20l-9 13l-17 26l-8 14l-14 30l-8 22l-5 16l-5 22l-3 16
l-3 26l-1 16l-1 22l1 16l4 24l3 15l3 14l2 14l3 22l3 15l3 16l5 16l5 15l6 15l9 19l8 14l15 22l11 14l5 6l11 12l16 17l23 21l12 9l18 12l13 8l15 8l15 7l17 7l16 6l17 5l15 5l23 5l30 6l14 2l30 2h42l35 -2l34 -4l17 -3l16 -4l17 -5l12 -1l6 3l7 8l33 45l11 9l13 4l26 2
l31 2h16l38 -3l15 -2l12 -6l8 -10l2 -10l-7 -12l-60 -88l-5 -11l2 -7l9 -10l22 -26l16 -21l9 -14l13 -21l17 -34l5 -15l4 -17l3 -17l3 -25l3 -18zM339 375l29 52l9 14l36 46l9 13l33 52l-4 8l-24 1l-6 2h-15l-24 -3l-15 -3l-37 -13l-19 -10l-13 -8l-20 -16l-10 -11l-14 -17
l-8 -14l-10 -23l-6 -16l-5 -17l-3 -18l-3 -25v-17l1 -17l3 -15l5 -23l5 -14l6 -13l5 -15l5 -10l8 5l31 49l10 14l32 48zM609 335l1 17v17l-1 17l-3 16l-6 30l-5 14l-11 23h-7l-196 -302l3 -8l23 -1h16l17 1l23 4l15 4l29 11l13 8l25 18l11 11l17 20l8 14l14 28l5 15l6 26z
" />
    <glyph glyph-name="ugrave" unicode="&#xf9;" horiz-adv-x="804" 
d="M455 830l-4 -9l-13 -4l-7 -1h-16l-45 3l-30 -2h-16l-8 1l-13 2l-9 4l-8 9l-51 61l-27 31l-9 13l-4 6l-4 13l4 8l13 3l9 1h17l47 -3l67 4l15 -1h8l13 -2l10 -6l7 -12l4 -8l7 -15l10 -23l7 -15l16 -28l7 -16zM710 397l3 -45l2 -32l-1 -15l-1 -23l-2 -15l-4 -24l-3 -16
l-4 -23l-4 -15l-8 -21l-5 -14l-9 -21l-7 -14l-13 -20l-10 -13l-12 -13l-13 -11l-20 -16l-13 -9l-20 -12l-13 -7l-21 -10l-15 -5l-22 -8l-15 -4l-23 -4l-15 -3l-31 -2h-46l-23 2l-15 1l-55 6l-16 3l-9 1l-16 5l-8 3l-16 7l-22 10l-15 9l-15 10l-26 22l-11 11l-13 17l-9 12
l-16 26l-9 14l-8 15l-7 16l-6 15l-4 14l-4 15l-4 22l-3 17l-2 17l-2 34l-1 16l3 61v16l-2 61v16l3 61v93l-2 32v17l1 17l3 16l7 9l13 3l33 2l38 -3h16l33 1l15 -1l23 -1l13 -3l8 -8l3 -13l1 -14v-15l-2 -39v-16l3 -61v-16l-1 -61v-16l-3 -61v-16l-1 -61l1 -16l2 -25l3 -16
l6 -22l6 -15l10 -23l10 -12l16 -17l13 -8l22 -8l15 -4l26 -2h16l26 5l15 4l19 9l13 8l16 14l10 12l11 21l7 15l5 16l3 16l4 30l1 16l-4 61v16l3 62v16l2 61v16l-2 62l-1 16l-3 42v25l4 14l9 8l13 3h21l51 -4h16l40 3h16l15 -1l13 -3l8 -7l1 -12l1 -30v-15l-1 -23v-16l3 -62
v-16l-2 -61v-16z" />
    <glyph glyph-name="uacute" unicode="&#xfa;" horiz-adv-x="804" 
d="M548 964l2 -7l-6 -10l-39 -52l-10 -12l-41 -50l-9 -10l-10 -5l-12 -2l-8 -1l-49 3h-74l-9 1l-3 1l-1 3v3l30 60l8 14l24 53l6 10l5 3h12l8 1h16l23 -1h15l47 1h15l22 2l28 -2zM710 397l3 -45l2 -32l-1 -15l-1 -23l-2 -15l-4 -24l-3 -16l-4 -23l-4 -15l-8 -21l-5 -14
l-9 -21l-7 -14l-13 -20l-10 -13l-12 -13l-13 -11l-20 -16l-13 -9l-20 -12l-13 -7l-21 -10l-15 -5l-22 -8l-15 -4l-23 -4l-15 -3l-31 -2h-46l-23 2l-15 1l-55 6l-16 3l-9 1l-16 5l-8 3l-16 7l-22 10l-15 9l-15 10l-26 22l-11 11l-13 17l-9 12l-16 26l-9 14l-8 15l-7 16l-6 15
l-4 14l-4 15l-4 22l-3 17l-2 17l-2 34l-1 16l3 61v16l-2 61v16l3 61v93l-2 32v17l1 17l3 16l7 9l13 3l33 2l38 -3h16l33 1l15 -1l23 -1l13 -3l8 -8l3 -13l1 -14v-15l-2 -39v-16l3 -61v-16l-1 -61v-16l-3 -61v-16l-1 -61l1 -16l2 -25l3 -16l6 -22l6 -15l10 -23l10 -12l16 -17
l13 -8l22 -8l15 -4l26 -2h16l26 5l15 4l19 9l13 8l16 14l10 12l11 21l7 15l5 16l3 16l4 30l1 16l-4 61v16l3 62v16l2 61v16l-2 62l-1 16l-3 42v25l4 14l9 8l13 3h21l51 -4h16l40 3h16l15 -1l13 -3l8 -7l1 -12l1 -30v-15l-1 -23v-16l3 -62v-16l-2 -61v-16z" />
    <glyph glyph-name="ucircumflex" unicode="&#xfb;" horiz-adv-x="804" 
d="M603 835l1 -6l-4 -7l-10 -3l-15 -1h-15l-33 2h-77l-10 2l-8 6l-39 32l-8 6h-2l-8 -6l-35 -29l-8 -7l-4 -1h-73l-16 -1l-34 -3h-15l-14 1l-9 2l-3 6l1 6l6 7l4 6l11 12l22 22l11 10l39 37l11 11l21 22l11 10l7 6l9 8l6 4l8 2l13 1l32 2h15l38 -3h11l6 -2l6 -4l7 -8l49 -49
l41 -36l11 -11l37 -38zM710 397l3 -45l2 -32l-1 -15l-1 -23l-2 -15l-4 -24l-3 -16l-4 -23l-4 -15l-8 -21l-5 -14l-9 -21l-7 -14l-13 -20l-10 -13l-12 -13l-13 -11l-20 -16l-13 -9l-20 -12l-13 -7l-21 -10l-15 -5l-22 -8l-15 -4l-23 -4l-15 -3l-31 -2h-46l-23 2l-15 1l-55 6
l-16 3l-9 1l-16 5l-8 3l-16 7l-22 10l-15 9l-15 10l-26 22l-11 11l-13 17l-9 12l-16 26l-9 14l-8 15l-7 16l-6 15l-4 14l-4 15l-4 22l-3 17l-2 17l-2 34l-1 16l3 61v16l-2 61v16l3 61v93l-2 32v17l1 17l3 16l7 9l13 3l33 2l38 -3h16l33 1l15 -1l23 -1l13 -3l8 -8l3 -13
l1 -14v-15l-2 -39v-16l3 -61v-16l-1 -61v-16l-3 -61v-16l-1 -61l1 -16l2 -25l3 -16l6 -22l6 -15l10 -23l10 -12l16 -17l13 -8l22 -8l15 -4l26 -2h16l26 5l15 4l19 9l13 8l16 14l10 12l11 21l7 15l5 16l3 16l4 30l1 16l-4 61v16l3 62v16l2 61v16l-2 62l-1 16l-3 42v25l4 14
l9 8l13 3h21l51 -4h16l40 3h16l15 -1l13 -3l8 -7l1 -12l1 -30v-15l-1 -23v-16l3 -62v-16l-2 -61v-16z" />
    <glyph glyph-name="udieresis" unicode="&#xfc;" horiz-adv-x="804" 
d="M325 890v-15l-3 -16l-5 -14l-7 -12l-8 -11l-12 -9l-13 -8l-14 -6l-17 -4l-9 -1h-23l-13 3l-13 4l-12 6l-11 7l-10 10l-10 12l-8 13l-4 13l-2 14v15l2 14l3 11l6 13l11 14l12 12l13 9l15 6l7 3l15 3h6l15 1l15 -2l6 -2l16 -4l14 -8l6 -4l11 -9l8 -11l7 -16l5 -17zM630 890
v-15l-3 -16l-5 -14l-7 -12l-8 -11l-12 -9l-13 -8l-14 -6l-17 -4l-9 -1h-23l-13 3l-13 4l-13 6l-10 7l-10 10l-10 12l-8 13l-4 13l-2 14v15l2 14l3 11l6 13l11 14l12 12l13 9l15 6l7 3l15 3h6l15 1l15 -2l6 -2l16 -4l14 -8l6 -4l11 -9l8 -11l7 -16l5 -17zM710 397l3 -45
l2 -32l-1 -15l-1 -23l-2 -15l-4 -24l-3 -16l-4 -23l-4 -15l-8 -21l-5 -14l-9 -21l-7 -14l-13 -20l-10 -13l-12 -13l-13 -11l-20 -16l-13 -9l-20 -12l-13 -7l-21 -10l-15 -5l-22 -8l-15 -4l-23 -4l-15 -3l-31 -2h-46l-23 2l-15 1l-55 6l-16 3l-9 1l-16 5l-8 3l-16 7l-22 10
l-15 9l-15 10l-26 22l-11 11l-13 17l-9 12l-16 26l-9 14l-8 15l-7 16l-6 15l-4 14l-4 15l-4 22l-3 17l-2 17l-2 34l-1 16l3 61v16l-2 61v16l3 61v93l-2 32v17l1 17l3 16l7 9l13 3l33 2l38 -3h16l33 1l15 -1l23 -1l13 -3l8 -8l3 -13l1 -14v-15l-2 -39v-16l3 -61v-16l-1 -61
v-16l-3 -61v-16l-1 -61l1 -16l2 -25l3 -16l6 -22l6 -15l10 -23l10 -12l16 -17l13 -8l22 -8l15 -4l26 -2h16l26 5l15 4l19 9l13 8l16 14l10 12l11 21l7 15l5 16l3 16l4 30l1 16l-4 61v16l3 62v16l2 61v16l-2 62l-1 16l-3 42v25l4 14l9 8l13 3h21l51 -4h16l40 3h16l15 -1
l13 -3l8 -7l1 -12l1 -30v-15l-1 -23v-16l3 -62v-16l-2 -61v-16z" />
    <glyph glyph-name="yacute" unicode="&#xfd;" horiz-adv-x="800" 
d="M550 964l2 -7l-6 -10l-39 -52l-10 -12l-41 -50l-9 -10l-10 -5l-12 -2l-8 -1l-49 3h-74l-9 1l-3 1l-1 3v3l30 60l8 14l24 53l6 10l5 3h12l8 1h16l23 -1h15l47 1h15l22 2l28 -2zM764 715l-1 -4l-6 -9l-72 -106l-10 -13l-34 -46l-9 -13l-28 -49l-9 -14l-31 -46l-10 -14
l-32 -46l-10 -13l-33 -46l-4 -8v-81l4 -54l-1 -16l-4 -54v-16l4 -42l1 -14l-3 -8l-4 -4l-9 -2h-66l-117 4l-4 3l-2 10v123l-1 16l-4 54l-1 16l4 54l-2 9l-7 7l-27 48l-9 14l-32 45l-9 14l-29 48l-8 14l-70 106l-8 14l-30 47l-8 14l-29 48l-3 9l1 5l6 4h134l16 -1l58 -3
l11 -1l4 -3l29 -50l8 -13l30 -45l8 -13l26 -46l9 -14l27 -43l7 -9l6 -2l7 7l25 48l9 13l31 44l9 13l25 47l8 14l28 46l8 10l8 2l11 -1l50 -3h16l58 3h16l57 -4l12 -2z" />
    <glyph glyph-name="thorn" unicode="&#xfe;" horiz-adv-x="733" 
d="M673 389l1 -22v-14l-1 -22l-1 -15l-3 -17l-5 -16l-8 -23l-7 -14l-9 -14l-9 -13l-13 -17l-11 -12l-13 -11l-14 -11l-19 -13l-14 -9l-13 -7l-14 -7l-15 -5l-16 -5l-23 -5l-17 -3l-17 -2l-17 -1l-82 -3l-16 1l-30 4h-16l-13 -3l-7 -8l-2 -14l3 -46l-1 -15v-7l-4 -12l-8 -6
l-14 -2l-23 -2l-16 -1l-31 2h-16l-30 -1l-16 1l-24 2l-14 2l-9 6l-5 12v25l2 30v84l3 53v16l-4 53v16l4 53v16l-3 53v69l1 16l5 53v16l-4 53l-2 16l-1 26v15l1 14l5 14l9 8l13 1l70 2h16l84 -6l9 -7l4 -13v-17l-5 -49l-2 -13l1 -9l7 -4h14l42 5h16l53 -4l16 -1l23 2h16
l16 -1l16 -3l22 -7l15 -5l15 -6l28 -14l15 -8l13 -9l5 -5l12 -9l11 -11l10 -11l14 -20l10 -13l9 -13l8 -14l10 -20l5 -16l3 -17zM451 308l10 13l7 14l3 15v15l-3 15l-7 15l-11 13l-12 11l-6 5l-15 7l-22 6l-16 2l-8 -1l-16 -1l-24 -1h-16l-25 1h-16l-7 -1l-13 -2l-7 -6
l-2 -13l1 -18l4 -31l1 -16v-48l1 -13l3 -9l11 -3h15l34 5l16 1l48 -2l16 1l15 2l14 5l15 8z" />
    <glyph glyph-name="ydieresis" unicode="&#xff;" horiz-adv-x="800" 
d="M327 890v-15l-3 -16l-5 -14l-7 -12l-8 -11l-12 -9l-13 -8l-14 -6l-17 -4l-9 -1h-23l-13 3l-13 4l-12 6l-11 7l-10 10l-10 12l-8 13l-4 13l-2 14v15l2 14l3 11l6 13l11 14l12 12l13 9l15 6l7 3l15 3h6l15 1l15 -2l6 -2l16 -4l14 -8l6 -4l11 -9l8 -11l7 -16l5 -17zM632 890
v-15l-3 -16l-5 -14l-7 -12l-8 -11l-12 -9l-13 -8l-14 -6l-17 -4l-9 -1h-23l-13 3l-13 4l-13 6l-10 7l-10 10l-10 12l-8 13l-4 13l-2 14v15l2 14l3 11l6 13l11 14l12 12l13 9l15 6l7 3l15 3h6l15 1l15 -2l6 -2l16 -4l14 -8l6 -4l11 -9l8 -11l7 -16l5 -17zM764 715l-1 -4
l-6 -9l-72 -106l-10 -13l-34 -46l-9 -13l-28 -49l-9 -14l-31 -46l-10 -14l-32 -46l-10 -13l-33 -46l-4 -8v-81l4 -54l-1 -16l-4 -54v-16l4 -42l1 -14l-3 -8l-4 -4l-9 -2h-66l-117 4l-4 3l-2 10v123l-1 16l-4 54l-1 16l4 54l-2 9l-7 7l-27 48l-9 14l-32 45l-9 14l-29 48
l-8 14l-70 106l-8 14l-30 47l-8 14l-29 48l-3 9l1 5l6 4h134l16 -1l58 -3l11 -1l4 -3l29 -50l8 -13l30 -45l8 -13l26 -46l9 -14l27 -43l7 -9l6 -2l7 7l25 48l9 13l31 44l9 13l25 47l8 14l28 46l8 10l8 2l11 -1l50 -3h16l58 3h16l57 -4l12 -2z" />
    <glyph glyph-name="Amacron" unicode="&#x100;" 
d="M595 884l2 -23l1 -11l-1 -11l-2 -12l-5 -7l-6 -4l-13 -2l-9 -1h-16l-30 2h-16l-127 2h-16l-56 -1l-49 -3h-16l-7 1l-11 2l-6 4l-4 8l-2 13l-1 8v17l1 17v16l-1 17v17l2 9l2 13l3 7l6 4h11l56 -1h16l56 4h16l71 -1l56 -2l48 3h16l8 -1l12 -2l7 -5l4 -7l1 -9l2 -10l-3 -36
v-15zM806 78l20 -50l3 -14l-7 -11l-11 -5l-13 -2h-14l-23 2l-15 1h-45l-62 -4l-13 4l-6 8l-5 11l-31 84l-7 10l-9 2l-12 1l-60 4h-16l-75 2l-60 1h-15l-15 -1h-46l-13 -2l-8 -5l-6 -12l-23 -68l-6 -16l-11 -13l-15 -6l-16 1l-58 3h-16l-62 -4l-13 -1l-12 6l-8 11l1 13l2 8
l6 16l14 31l6 15l25 56l6 14l26 56l6 15l23 54l6 15l27 56l6 14l36 82l28 60l7 16l22 45l7 16l19 46l6 15l18 41l5 11l10 6l15 3l46 2h78l46 -1l17 -3l11 -8l5 -13l14 -39l6 -15l25 -47l6 -14l22 -49l6 -14l18 -51l6 -14l22 -48l6 -14l22 -49l6 -14l20 -50l6 -14l31 -62
l24 -47l7 -14zM489 300l3 10l-4 13l-22 68l-5 15l-20 59l-5 13l-10 7l-13 3l-11 -3l-10 -10l-27 -68l-6 -15l-26 -67l-3 -15l3 -12l11 -5l14 -2h63l47 -3l13 4z" />
    <glyph glyph-name="amacron" unicode="&#x101;" 
d="M596 884l2 -23l1 -11l-1 -11l-2 -12l-5 -7l-6 -4l-13 -2l-9 -1h-16l-30 2h-16l-127 2h-16l-56 -1l-49 -3h-16l-7 1l-11 2l-6 4l-4 8l-2 13l-1 8v17l1 17v16l-1 17v17l2 9l2 13l3 7l6 4h11l56 -1h16l56 4h16l71 -1l56 -2l48 3h16l8 -1l12 -2l7 -5l4 -7l1 -9l2 -10l-3 -36
v-15zM806 79l20 -50l3 -14l-7 -11l-11 -5l-13 -2h-14l-23 2l-15 1h-45l-62 -4l-13 5l-6 7l-5 11l-31 84l-7 10l-9 2l-12 1l-60 4h-16l-75 2l-60 1h-15l-15 -1h-46l-13 -2l-8 -5l-6 -12l-23 -68l-6 -16l-11 -13l-15 -5h-16l-58 3h-16l-62 -4l-13 -1l-12 6l-8 11l1 13l2 8
l6 16l14 31l6 15l25 56l6 14l26 56l6 15l23 54l6 15l27 56l6 14l36 82l28 60l7 16l22 45l7 16l19 46l6 15l18 41l5 11l10 6l15 3l46 2h78l46 -1l17 -3l11 -8l5 -13l14 -39l6 -15l25 -47l6 -14l22 -49l6 -14l18 -51l6 -14l22 -48l6 -14l22 -49l6 -14l20 -50l6 -14l31 -62
l24 -47l7 -14zM489 301l3 10l-4 13l-22 68l-5 15l-20 59l-5 13l-10 7l-13 3l-11 -3l-10 -10l-27 -68l-6 -15l-26 -67l-3 -15l3 -12l11 -5l14 -2h63l47 -3l13 4z" />
    <glyph glyph-name="Abreve" unicode="&#x102;" 
d="M591 983l2 -12l-2 -17l-2 -8l-3 -14l-5 -14l-6 -15l-9 -16l-6 -7l-11 -13l-7 -6l-13 -11l-14 -11l-8 -5l-15 -8l-9 -4l-17 -5l-19 -4h-8l-17 -1l-9 -1h-16l-7 1l-16 1h-9l-16 3l-7 1l-17 6l-16 7l-8 4l-14 9l-7 6l-12 10l-5 4l-11 12l-15 21l-3 7l-7 15l-3 9l-6 24l-1 15
l-1 8l1 9l4 2l6 2h10l6 1h15l22 -2h16l26 2h16l11 -1h6l5 -4l2 -7l2 -9l4 -8l10 -10l7 -3l7 -2l8 -1h13l12 4l8 5l6 7l4 8l2 6l1 5l2 5l5 3l9 1l42 1h15l61 -2h6zM806 78l20 -50l3 -14l-7 -11l-11 -5l-13 -2h-14l-23 2l-15 1h-45l-62 -4l-13 4l-6 8l-5 11l-31 84l-7 10l-9 2
l-12 1l-60 4h-16l-75 2l-60 1h-15l-15 -1h-46l-13 -2l-8 -5l-6 -12l-23 -68l-6 -16l-11 -13l-15 -6l-16 1l-58 3h-16l-62 -4l-13 -1l-12 6l-8 11l1 13l2 8l6 16l14 31l6 15l25 56l6 14l26 56l6 15l23 54l6 15l27 56l6 14l36 82l28 60l7 16l22 45l7 16l19 46l6 15l18 41l5 11
l10 6l15 3l46 2h78l46 -1l17 -3l11 -8l5 -13l14 -39l6 -15l25 -47l6 -14l22 -49l6 -14l18 -51l6 -14l22 -48l6 -14l22 -49l6 -14l20 -50l6 -14l31 -62l24 -47l7 -14zM489 300l3 10l-4 13l-22 68l-5 15l-20 59l-5 13l-10 7l-13 3l-11 -3l-10 -10l-27 -68l-6 -15l-26 -67
l-3 -15l3 -12l11 -5l14 -2h63l47 -3l13 4z" />
    <glyph glyph-name="abreve" unicode="&#x103;" 
d="M592 983l2 -12l-2 -17l-2 -8l-3 -14l-5 -14l-6 -15l-9 -16l-6 -7l-11 -13l-7 -6l-13 -11l-14 -11l-8 -5l-15 -8l-9 -4l-17 -5l-19 -4h-8l-17 -1l-9 -1h-16l-7 1l-16 1h-9l-16 3l-7 1l-17 6l-16 7l-8 4l-14 9l-7 6l-12 10l-5 4l-11 12l-15 21l-3 7l-7 15l-3 9l-6 24l-1 15
l-1 8l1 9l4 2l6 2h10l6 1h15l22 -2h16l26 2h16l11 -1h6l5 -4l2 -7l2 -9l4 -8l10 -10l7 -3l7 -2l8 -1h13l12 4l8 5l6 7l4 8l2 6l1 5l2 5l5 3l9 1l42 1h15l61 -2h6zM806 79l20 -50l3 -14l-7 -11l-11 -5l-13 -2h-14l-23 2l-15 1h-45l-62 -4l-13 5l-6 7l-5 11l-31 84l-7 10l-9 2
l-12 1l-60 4h-16l-75 2l-60 1h-15l-15 -1h-46l-13 -2l-8 -5l-6 -12l-23 -68l-6 -16l-11 -13l-15 -5h-16l-58 3h-16l-62 -4l-13 -1l-12 6l-8 11l1 13l2 8l6 16l14 31l6 15l25 56l6 14l26 56l6 15l23 54l6 15l27 56l6 14l36 82l28 60l7 16l22 45l7 16l19 46l6 15l18 41l5 11
l10 6l15 3l46 2h78l46 -1l17 -3l11 -8l5 -13l14 -39l6 -15l25 -47l6 -14l22 -49l6 -14l18 -51l6 -14l22 -48l6 -14l22 -49l6 -14l20 -50l6 -14l31 -62l24 -47l7 -14zM489 301l3 10l-4 13l-22 68l-5 15l-20 59l-5 13l-10 7l-13 3l-11 -3l-10 -10l-27 -68l-6 -15l-26 -67
l-3 -15l3 -12l11 -5l14 -2h63l47 -3l13 4z" />
    <glyph glyph-name="Aogonek" unicode="&#x104;" 
d="M850 -184l1 -10l-1 -5l-7 -5l-9 -5l-11 -5l-14 -5l-6 -3l-14 -4l-6 -1l-14 -4l-15 -3l-15 -2l-23 -1l-15 -1l-17 1l-17 2l-16 3l-17 5l-18 7l-24 15l-12 12l-9 13l-4 6l-7 15l-2 9l-4 15l-1 15v7l2 14l1 8l6 15l7 14l3 7l22 26l11 11l11 9l6 4l-4 11l-3 12l-31 84l-7 10
l-9 2l-12 1l-60 4h-16l-75 2l-60 1h-15l-15 -1h-46l-13 -2l-8 -5l-6 -12l-23 -68l-6 -16l-11 -13l-15 -6l-16 1l-58 3h-16l-62 -4l-13 -1l-12 6l-8 11l1 13l2 8l6 16l14 31l6 15l25 56l6 14l26 56l6 15l23 54l6 15l27 56l6 14l36 82l28 60l7 16l22 45l7 16l19 46l6 15l18 41
l5 11l10 6l15 3l46 2h78l46 -1l17 -3l11 -8l5 -13l14 -39l6 -15l25 -47l6 -14l22 -49l6 -14l18 -51l6 -14l22 -48l6 -14l22 -49l6 -14l20 -50l6 -14l31 -62l24 -47l7 -14l27 -63l20 -50l6 -16l-7 -11l-9 -2l-17 -4l-24 -7l-16 -5l-9 -2l-16 -8l-15 -9l-9 -9l-5 -11l-2 -7
l2 -15l7 -13l14 -11l18 -6l16 -2h14l23 4l12 3l5 -1l4 -3l3 -5l6 -11l11 -22l7 -16l3 -15zM489 300l3 10l-4 13l-22 68l-5 15l-20 59l-5 13l-10 7l-13 3l-11 -3l-10 -10l-27 -68l-6 -15l-26 -67l-3 -15l3 -12l11 -5l14 -2h63l47 -3l13 4z" />
    <glyph glyph-name="aogonek" unicode="&#x105;" 
d="M850 -184l1 -10l-1 -5l-7 -5l-9 -5l-11 -5l-14 -5l-6 -3l-14 -4l-6 -1l-14 -4l-15 -3l-15 -2l-23 -1l-15 -1l-17 1l-17 2l-16 3l-17 5l-18 7l-24 15l-12 12l-9 13l-4 6l-7 15l-2 9l-4 15l-1 15v7l2 14l1 8l6 15l7 14l3 7l22 26l11 11l11 9l-2 3l4 12l-3 12l-31 84l-7 10
l-9 2l-12 1l-60 4h-16l-75 2l-60 1h-15l-15 -1h-46l-13 -2l-8 -5l-6 -12l-23 -68l-6 -16l-11 -13l-15 -6l-16 1l-58 3h-16l-62 -4l-13 -1l-12 6l-8 11l1 13l2 8l6 16l14 31l6 15l25 56l6 14l26 56l6 15l23 54l6 15l27 56l6 14l36 82l28 60l7 16l22 45l7 16l19 46l6 15l18 41
l5 11l10 6l15 3l46 2h78l46 -1l17 -3l11 -8l5 -13l14 -39l6 -15l25 -47l6 -14l22 -49l6 -14l18 -51l6 -14l22 -48l6 -14l22 -49l6 -14l20 -50l6 -14l31 -62l24 -47l7 -14l27 -63l20 -50l6 -16l-7 -11l-9 -2l-17 -4l-24 -7l-16 -5l-9 -2l-16 -8l-15 -9l-9 -9l-5 -11l-2 -7
l2 -15l7 -13l14 -11l18 -6l16 -2h14l23 4l12 3l5 -1l4 -3l3 -5l6 -11l11 -22l7 -16l3 -15zM489 301l3 10l-4 13l-22 68l-5 15l-20 59l-5 13l-10 7l-13 3l-11 -3l-10 -10l-27 -68l-6 -15l-26 -67l-3 -15l3 -12l11 -5l14 -2h63l47 -3l13 4z" />
    <glyph glyph-name="Cacute" unicode="&#x106;" horiz-adv-x="735" 
d="M546 964l2 -7l-6 -10l-39 -52l-10 -12l-41 -50l-9 -10l-10 -5l-12 -2l-8 -1l-49 3h-74l-9 1l-3 1l-1 3v3l30 60l8 14l24 53l6 10l5 3h12l8 1h16l23 -1h15l47 1h15l22 2l28 -2zM689 97v-6l-8 -8l-18 -16l-12 -9l-19 -14l-12 -8l-20 -11l-13 -7l-23 -11l-15 -5l-17 -5
l-17 -3l-25 -5l-35 -4l-18 -1l-25 -2h-52l-17 1l-17 2l-17 3l-17 4l-15 5l-45 12l-22 8l-13 6l-19 11l-12 9l-13 9l-14 9l-26 22l-12 12l-11 13l-11 15l-9 14l-8 14l-7 14l-10 21l-15 42l-7 20l-10 30l-2 15l-1 23l1 15l1 16v17l2 34l1 16l3 15l4 22l4 15l5 15l5 14l7 20
l7 14l7 15l8 15l9 15l9 14l10 13l11 14l12 13l12 11l13 11l12 10l32 22l13 8l14 8l30 14l17 6l16 5l34 8l17 3l17 2l31 2l22 2l15 -1l22 -1l37 -5l14 -3l23 -4l35 -10l14 -6l22 -13l14 -8l26 -18l31 -22l11 -8l6 -5l7 -7l2 -8l-1 -8l-6 -8l-9 -11l-11 -11l-11 -10l-11 -9
l-11 -11l-17 -20l-11 -12l-5 -5l-9 -8l-7 -3l-7 -1l-7 2l-11 6l-19 14l-13 7l-22 10l-14 5l-22 6l-15 3l-25 2h-16l-22 -2l-16 -4l-22 -7l-15 -6l-13 -5l-20 -10l-14 -10l-7 -6l-12 -13l-9 -14l-7 -13l-7 -14l-6 -15l-5 -16l-3 -17l-2 -15l-2 -30v-16l1 -25l1 -15l5 -23
l5 -15l7 -17l8 -15l15 -22l11 -12l19 -16l13 -9l20 -10l15 -6l22 -6l16 -3l24 -1h23l14 3l8 2l15 5l25 9l16 7l15 7l13 7l19 12l13 10l10 7l6 2l9 -2l11 -7l11 -10l4 -6l10 -11l16 -20l10 -12l27 -31l9 -12l5 -5z" />
    <glyph glyph-name="cacute" unicode="&#x107;" horiz-adv-x="735" 
d="M546 964l2 -7l-6 -10l-39 -52l-10 -12l-41 -50l-9 -10l-10 -5l-12 -2l-8 -1l-49 3h-74l-9 1l-3 1l-1 3v3l30 60l8 14l24 53l6 10l5 3h12l8 1h16l23 -1h15l47 1h15l22 2l28 -2zM689 97v-6l-8 -8l-18 -16l-12 -9l-19 -14l-12 -8l-20 -11l-13 -7l-23 -11l-15 -5l-17 -5
l-17 -3l-25 -5l-35 -4l-18 -1l-25 -2h-52l-17 1l-17 2l-17 3l-17 4l-15 5l-45 12l-22 8l-13 6l-19 11l-12 9l-13 9l-14 9l-26 22l-12 12l-11 13l-11 15l-9 14l-8 14l-7 14l-10 21l-15 42l-7 20l-10 30l-2 15l-1 23l1 15l1 16v17l2 34l1 16l3 15l4 22l4 15l5 15l5 14l7 20
l7 14l7 15l8 15l9 15l9 14l10 13l11 14l12 13l12 11l13 11l12 10l32 22l13 8l14 8l30 14l17 6l16 5l34 8l17 3l17 2l31 2l22 2l15 -1l22 -1l37 -5l14 -3l23 -4l35 -10l14 -6l22 -13l14 -8l26 -18l31 -22l11 -8l6 -5l7 -7l2 -8l-1 -8l-6 -8l-9 -11l-11 -11l-11 -10l-11 -9
l-11 -11l-17 -20l-11 -12l-5 -5l-9 -8l-7 -3l-7 -1l-7 2l-11 6l-19 14l-13 7l-22 10l-14 5l-22 6l-15 3l-25 2h-16l-22 -2l-16 -4l-22 -7l-15 -6l-13 -5l-20 -10l-14 -10l-7 -6l-12 -13l-9 -14l-7 -13l-7 -14l-6 -15l-5 -16l-3 -17l-2 -15l-2 -30v-16l1 -25l1 -15l5 -23
l5 -15l7 -17l8 -15l15 -22l11 -12l19 -16l13 -9l20 -10l15 -6l22 -6l16 -3l24 -1h23l14 3l8 2l15 5l25 9l16 7l15 7l13 7l19 12l13 10l10 7l6 2l9 -2l11 -7l11 -10l4 -6l10 -11l16 -20l10 -12l27 -31l9 -12l5 -5z" />
    <glyph glyph-name="Cdotaccent" unicode="&#x10a;" horiz-adv-x="735" 
d="M472 914v-15l-3 -18l-5 -15l-7 -12l-10 -12l-12 -10l-9 -6l-3 -1l-5 -3l-12 -4l-15 -4l-15 -1h-22l-14 3l-13 4l-12 6l-11 8l-11 10l-11 12l-8 14l-5 15l-2 15v15l2 14l4 13l7 13l11 15l13 12l14 10l15 7l7 2l15 4h7l16 1l15 -3l7 -1l13 -4l7 -3l12 -6l6 -5l11 -9l9 -12
l6 -14l3 -6l3 -14zM689 97v-6l-8 -8l-18 -16l-12 -9l-19 -14l-12 -8l-20 -11l-13 -7l-23 -11l-15 -5l-17 -5l-17 -3l-25 -5l-35 -4l-18 -1l-25 -2h-52l-17 1l-17 2l-17 3l-17 4l-15 5l-45 12l-22 8l-13 6l-19 11l-12 9l-13 9l-14 9l-26 22l-12 12l-11 13l-11 15l-9 14l-8 14
l-7 14l-10 21l-15 42l-7 20l-10 30l-2 15l-1 23l1 15l1 16v17l2 34l1 16l3 15l4 22l4 15l5 15l5 14l7 20l7 14l7 15l8 15l9 15l9 14l10 13l11 14l12 13l12 11l13 11l12 10l32 22l13 8l14 8l30 14l17 6l16 5l34 8l17 3l17 2l31 2l22 2l15 -1l22 -1l37 -5l14 -3l23 -4l35 -10
l14 -6l22 -13l14 -8l26 -18l31 -22l11 -8l6 -5l7 -7l2 -8l-1 -8l-6 -8l-9 -11l-11 -11l-11 -10l-11 -9l-11 -11l-17 -20l-11 -12l-5 -5l-9 -8l-7 -3l-7 -1l-7 2l-11 6l-19 14l-13 7l-22 10l-14 5l-22 6l-15 3l-25 2h-16l-22 -2l-16 -4l-22 -7l-15 -6l-13 -5l-20 -10l-14 -10
l-7 -6l-12 -13l-9 -14l-7 -13l-7 -14l-6 -15l-5 -16l-3 -17l-2 -15l-2 -30v-16l1 -25l1 -15l5 -23l5 -15l7 -17l8 -15l15 -22l11 -12l19 -16l13 -9l20 -10l15 -6l22 -6l16 -3l24 -1h23l14 3l8 2l15 5l25 9l16 7l15 7l13 7l19 12l13 10l10 7l6 2l9 -2l11 -7l11 -10l4 -6
l10 -11l16 -20l10 -12l27 -31l9 -12l5 -5z" />
    <glyph glyph-name="cdotaccent" unicode="&#x10b;" horiz-adv-x="735" 
d="M472 914v-15l-3 -18l-5 -15l-7 -12l-10 -12l-12 -10l-9 -6l-3 -1l-5 -3l-12 -4l-15 -4l-15 -1h-22l-14 3l-13 4l-12 6l-11 8l-11 10l-11 12l-8 14l-5 15l-2 15v15l2 14l4 13l7 13l11 15l13 12l14 10l15 7l7 2l15 4h7l16 1l15 -3l7 -1l13 -4l7 -3l12 -6l6 -5l11 -9l9 -12
l6 -14l3 -6l3 -14zM689 97v-6l-8 -8l-18 -16l-12 -9l-19 -14l-12 -8l-20 -11l-13 -7l-23 -11l-15 -5l-17 -5l-17 -3l-25 -5l-35 -4l-18 -1l-25 -2h-52l-17 1l-17 2l-17 3l-17 4l-15 5l-45 12l-22 8l-13 6l-19 11l-12 9l-13 9l-14 9l-26 22l-12 12l-11 13l-11 15l-9 14l-8 14
l-7 14l-10 21l-15 42l-7 20l-10 30l-2 15l-1 23l1 15l1 16v17l2 34l1 16l3 15l4 22l4 15l5 15l5 14l7 20l7 14l7 15l8 15l9 15l9 14l10 13l11 14l12 13l12 11l13 11l12 10l32 22l13 8l14 8l30 14l17 6l16 5l34 8l17 3l17 2l31 2l22 2l15 -1l22 -1l37 -5l14 -3l23 -4l35 -10
l14 -6l22 -13l14 -8l26 -18l31 -22l11 -8l6 -5l7 -7l2 -8l-1 -8l-6 -8l-9 -11l-11 -11l-11 -10l-11 -9l-11 -11l-17 -20l-11 -12l-5 -5l-9 -8l-7 -3l-7 -1l-7 2l-11 6l-19 14l-13 7l-22 10l-14 5l-22 6l-15 3l-25 2h-16l-22 -2l-16 -4l-22 -7l-15 -6l-13 -5l-20 -10l-14 -10
l-7 -6l-12 -13l-9 -14l-7 -13l-7 -14l-6 -15l-5 -16l-3 -17l-2 -15l-2 -30v-16l1 -25l1 -15l5 -23l5 -15l7 -17l8 -15l15 -22l11 -12l19 -16l13 -9l20 -10l15 -6l22 -6l16 -3l24 -1h23l14 3l8 2l15 5l25 9l16 7l15 7l13 7l19 12l13 10l10 7l6 2l9 -2l11 -7l11 -10l4 -6
l10 -11l16 -20l10 -12l27 -31l9 -12l5 -5z" />
    <glyph glyph-name="Ccaron" unicode="&#x10c;" horiz-adv-x="735" 
d="M588 982v-7l-5 -9l-5 -5l-10 -11l-29 -22l-12 -11l-39 -40l-12 -12l-40 -39l-8 -7l-10 -2l-43 2h-70l-8 4l-16 16l-23 26l-51 51l-12 11l-28 24l-11 13l-7 11l-1 7l4 5l10 2l9 2l16 1l37 -3h77l10 -2l7 -7l38 -33l8 -5h4l46 40l8 6l6 1l66 -1h16l37 3l16 -1h9l11 -2z
M689 97v-6l-8 -8l-18 -16l-12 -9l-19 -14l-12 -8l-20 -11l-13 -7l-23 -11l-15 -5l-17 -5l-17 -3l-25 -5l-35 -4l-18 -1l-25 -2h-52l-17 1l-17 2l-17 3l-17 4l-15 5l-45 12l-22 8l-13 6l-19 11l-12 9l-13 9l-14 9l-26 22l-12 12l-11 13l-11 15l-9 14l-8 14l-7 14l-10 21
l-15 42l-7 20l-10 30l-2 15l-1 23l1 15l1 16v17l2 34l1 16l3 15l4 22l4 15l5 15l5 14l7 20l7 14l7 15l8 15l9 15l9 14l10 13l11 14l12 13l12 11l13 11l12 10l32 22l13 8l14 8l30 14l17 6l16 5l34 8l17 3l17 2l31 2l22 2l15 -1l22 -1l37 -5l14 -3l23 -4l35 -10l14 -6l22 -13
l14 -8l26 -18l31 -22l11 -8l6 -5l7 -7l2 -8l-1 -8l-6 -8l-9 -11l-11 -11l-11 -10l-11 -9l-11 -11l-17 -20l-11 -12l-5 -5l-9 -8l-7 -3l-7 -1l-7 2l-11 6l-19 14l-13 7l-22 10l-14 5l-22 6l-15 3l-25 2h-16l-22 -2l-16 -4l-22 -7l-15 -6l-13 -5l-20 -10l-14 -10l-7 -6
l-12 -13l-9 -14l-7 -13l-7 -14l-6 -15l-5 -16l-3 -17l-2 -15l-2 -30v-16l1 -25l1 -15l5 -23l5 -15l7 -17l8 -15l15 -22l11 -12l19 -16l13 -9l20 -10l15 -6l22 -6l16 -3l24 -1h23l14 3l8 2l15 5l25 9l16 7l15 7l13 7l19 12l13 10l10 7l6 2l9 -2l11 -7l11 -10l4 -6l10 -11
l16 -20l10 -12l27 -31l9 -12l5 -5z" />
    <glyph glyph-name="ccaron" unicode="&#x10d;" horiz-adv-x="735" 
d="M588 982v-7l-5 -9l-5 -5l-10 -11l-29 -22l-12 -11l-39 -40l-12 -12l-40 -39l-8 -7l-10 -2l-43 2h-70l-8 4l-16 16l-23 26l-51 51l-12 11l-28 24l-11 13l-7 11l-1 7l4 5l10 2l9 2l16 1l37 -3h77l10 -2l7 -7l38 -33l8 -5h4l46 40l8 6l6 1l66 -1h16l37 3l16 -1h9l11 -2z
M689 97v-6l-8 -8l-18 -16l-12 -9l-19 -14l-12 -8l-20 -11l-13 -7l-23 -11l-15 -5l-17 -5l-17 -3l-25 -5l-35 -4l-18 -1l-25 -2h-52l-17 1l-17 2l-17 3l-17 4l-15 5l-45 12l-22 8l-13 6l-19 11l-12 9l-13 9l-14 9l-26 22l-12 12l-11 13l-11 15l-9 14l-8 14l-7 14l-10 21
l-15 42l-7 20l-10 30l-2 15l-1 23l1 15l1 16v17l2 34l1 16l3 15l4 22l4 15l5 15l5 14l7 20l7 14l7 15l8 15l9 15l9 14l10 13l11 14l12 13l12 11l13 11l12 10l32 22l13 8l14 8l30 14l17 6l16 5l34 8l17 3l17 2l31 2l22 2l15 -1l22 -1l37 -5l14 -3l23 -4l35 -10l14 -6l22 -13
l14 -8l26 -18l31 -22l11 -8l6 -5l7 -7l2 -8l-1 -8l-6 -8l-9 -11l-11 -11l-11 -10l-11 -9l-11 -11l-17 -20l-11 -12l-5 -5l-9 -8l-7 -3l-7 -1l-7 2l-11 6l-19 14l-13 7l-22 10l-14 5l-22 6l-15 3l-25 2h-16l-22 -2l-16 -4l-22 -7l-15 -6l-13 -5l-20 -10l-14 -10l-7 -6
l-12 -13l-9 -14l-7 -13l-7 -14l-6 -15l-5 -16l-3 -17l-2 -15l-2 -30v-16l1 -25l1 -15l5 -23l5 -15l7 -17l8 -15l15 -22l11 -12l19 -16l13 -9l20 -10l15 -6l22 -6l16 -3l24 -1h23l14 3l8 2l15 5l25 9l16 7l15 7l13 7l19 12l13 10l10 7l6 2l9 -2l11 -7l11 -10l4 -6l10 -11
l16 -20l10 -12l27 -31l9 -12l5 -5z" />
    <glyph glyph-name="Dcaron" unicode="&#x10e;" horiz-adv-x="788" 
d="M548 982v-7l-5 -9l-5 -5l-10 -11l-29 -22l-12 -11l-39 -40l-12 -12l-40 -39l-8 -7l-10 -2l-43 2h-70l-8 4l-16 16l-23 26l-51 51l-12 11l-28 24l-11 13l-7 11l-1 7l4 5l10 2l9 2l16 1l37 -3h77l10 -2l7 -7l38 -33l8 -5h4l46 40l8 6l6 1l66 -1h16l37 3l16 -1h9l11 -2z
M730 359l1 -17l-1 -17l-1 -24l-3 -16l-7 -23l-5 -16l-6 -15l-6 -16l-6 -17l-6 -15l-11 -22l-8 -13l-14 -16l-10 -11l-17 -16l-22 -22l-13 -11l-19 -15l-13 -8l-20 -11l-13 -6l-22 -8l-15 -5l-16 -4l-16 -3l-61 -9l-15 -1l-22 -2h-16l-32 1l-26 2h-16l-32 -2l-25 -1l-17 -1
l-15 1h-70l-15 1l-43 4l-8 4l-5 5l-2 11l-1 16l1 8l2 30v14l1 23v15l1 16v16l-1 53v16l-2 53l1 15l1 22l2 15l1 17v16l-2 26l-1 17v9l-1 17l4 53v16l-1 53v16l-3 53v39l1 16l3 15l2 11l4 6l11 3l17 2l15 2l16 1l88 -1h16l48 -3l8 -1h18l42 2l15 1h16l25 -2l32 -2l16 -2
l26 -4l16 -3l15 -4l36 -13l15 -7l15 -8l14 -8l33 -23l13 -11l12 -10l22 -21l10 -10l9 -11l7 -13l11 -22l6 -15l5 -16l6 -16l5 -16l4 -16l4 -22l3 -16l3 -17l2 -16l1 -24zM491 237l12 19l7 15l6 17l4 15l4 22l1 14l1 23v32l-1 16l-3 23l-4 15l-2 6l-8 15l-15 21l-5 5l-10 11
l-11 11l-12 9l-22 13l-14 6l-14 3l-16 3l-25 1l-17 1h-25l-22 1l-15 -1l-22 -3l-11 -3l-5 -5l-3 -12l-1 -9l-1 -15l2 -30l1 -16l2 -22l2 -16l1 -16v-16l-1 -22v-48l-1 -17l-1 -16l-2 -22v-14l-1 -23l1 -15l3 -24l4 -11l6 -5l12 -1l93 6l23 1l16 3l17 5l16 6l15 7l13 9l18 16
z" />
    <glyph glyph-name="dcaron" unicode="&#x10f;" horiz-adv-x="788" 
d="M547 982v-7l-5 -9l-5 -5l-10 -11l-29 -22l-12 -11l-39 -40l-12 -12l-40 -39l-8 -7l-10 -2l-43 2h-70l-8 4l-16 16l-23 26l-51 51l-12 11l-28 24l-11 13l-7 11l-1 7l4 5l10 2l9 2l16 1l37 -3h77l10 -2l7 -7l38 -33l8 -5h4l46 40l8 6l6 1l66 -1h16l37 3l16 -1h9l11 -2z
M730 359l1 -17l-1 -17l-1 -24l-3 -16l-7 -23l-5 -16l-6 -15l-6 -16l-6 -17l-6 -15l-11 -22l-8 -13l-14 -16l-10 -11l-17 -16l-22 -22l-13 -11l-19 -15l-13 -8l-20 -11l-13 -6l-22 -8l-15 -5l-16 -4l-16 -3l-61 -9l-15 -1l-22 -2h-16l-32 1l-26 2h-16l-32 -2l-25 -1l-17 -1
l-15 1h-70l-15 1l-43 4l-8 4l-5 5l-2 11l-1 16l1 8l2 30v14l1 23v15l1 16v16l-1 53v16l-2 53l1 15l1 22l2 15l1 17v16l-2 26l-1 17v9l-1 17l4 53v16l-1 53v16l-3 53v39l1 16l3 15l2 11l4 6l11 3l17 2l15 2l16 1l88 -1h16l48 -3l8 -1h18l42 2l15 1h16l25 -2l32 -2l16 -2
l26 -4l16 -3l15 -4l36 -13l15 -7l15 -8l14 -8l33 -23l13 -11l12 -10l22 -21l10 -10l9 -11l7 -13l11 -22l6 -15l5 -16l6 -16l5 -16l4 -16l4 -22l3 -16l3 -17l2 -16l1 -24zM491 237l12 19l7 15l6 17l4 15l4 22l1 14l1 23v32l-1 16l-3 23l-4 15l-2 6l-8 15l-15 21l-5 5l-10 11
l-11 11l-12 9l-22 13l-14 6l-14 3l-16 3l-25 1l-17 1h-25l-22 1l-15 -1l-22 -3l-11 -3l-5 -5l-3 -12l-1 -9l-1 -15l2 -30l1 -16l2 -22l2 -16l1 -16v-16l-1 -22v-48l-1 -17l-1 -16l-2 -22v-14l-1 -23l1 -15l3 -24l4 -11l6 -5l12 -1l93 6l23 1l16 3l17 5l16 6l15 7l13 9l18 16
z" />
    <glyph glyph-name="Dcroat" unicode="&#x110;" horiz-adv-x="832" 
d="M773 377l2 -34l-1 -17l-1 -23l-3 -16l-7 -23l-5 -16l-12 -32l-6 -17l-6 -15l-11 -21l-8 -13l-14 -17l-10 -11l-17 -15l-22 -22l-32 -27l-15 -9l-16 -8l-15 -7l-22 -8l-15 -5l-16 -4l-16 -3l-24 -5l-15 -2l-22 -2l-15 -1l-22 -2h-16l-32 1l-25 2h-17l-31 -2l-26 -2h-48
l-26 1h-15l-14 -1l-44 3l-13 2l-8 4l-5 5l-2 11l-1 16l1 8l2 30v15l1 22v16l1 15v85l-3 53l-5 8l-13 -1l-16 -1h-14l-11 2l-8 4l-5 5l-3 10v22l3 22l1 17l-2 25l1 17l2 11l3 7l6 4l30 -2l25 1l8 8l3 49v16l-1 53v16l-3 53v16l1 22l1 16l2 15l2 12l4 5l5 2l10 2l14 2l45 3h15
l58 -1l64 -4l9 -1h17l42 2l15 1h16l25 -1l32 -2l16 -2l57 -11l36 -13l15 -7l30 -16l19 -14l13 -9l13 -11l12 -11l22 -21l10 -10l9 -11l7 -13l11 -21l6 -15l5 -16l6 -16l5 -16l4 -16l4 -23l6 -32l2 -16zM535 237l12 19l6 14l8 20l3 14l4 22l1 14l1 23v31l-1 16l-3 23l-4 15
l-2 7l-8 15l-15 21l-5 5l-10 11l-11 11l-12 9l-22 13l-14 6l-14 3l-14 2l-45 3h-46l-30 -2l-10 -1l-8 -3l-5 -6l-3 -12l-1 -9l-1 -15l3 -45l1 -14l2 -7l41 -1h16l45 -3l12 -1l8 -3l5 -5l2 -11l1 -8v-15l-2 -22v-15l1 -17v-17l-2 -8l-1 -11l-3 -6l-8 -4l-12 -2l-29 -2l-51 2
h-16l-8 -8l-2 -32l-1 -22l1 -16l2 -16l2 -11l3 -8l6 -5l12 -1l116 7l16 3l16 5l16 6l15 8l14 9l18 15z" />
    <glyph glyph-name="dcroat" unicode="&#x111;" horiz-adv-x="832" 
d="M773 376l2 -34l-1 -17l-1 -23l-3 -16l-7 -23l-5 -16l-12 -32l-6 -17l-6 -15l-11 -21l-8 -13l-14 -17l-10 -11l-17 -15l-22 -22l-32 -27l-15 -9l-16 -8l-15 -7l-22 -8l-15 -5l-16 -4l-16 -3l-24 -5l-15 -2l-22 -2l-15 -1l-22 -2h-16l-32 1l-25 2h-17l-31 -2l-26 -2h-48
l-26 1h-15l-14 -1l-44 3l-13 2l-8 4l-5 5l-2 11l-1 16l1 8l2 30v15l1 22v16l1 15v85l-3 53l-5 8l-13 -1l-16 -1h-14l-11 2l-8 4l-5 5l-3 10v22l3 22l1 17l-2 25l1 17l2 11l3 7l6 4l30 -2l25 1l8 8l3 49v16l-1 53v16l-3 53v16l1 22l1 16l2 15l2 12l4 5l5 2l10 2l14 2l45 3h15
l58 -1l64 -4l9 -1h17l42 2l15 1h16l25 -1l32 -2l16 -2l57 -11l36 -13l15 -7l30 -16l19 -14l13 -9l13 -11l12 -11l22 -21l10 -10l9 -11l7 -13l11 -21l6 -15l5 -16l6 -16l5 -16l4 -16l4 -23l6 -32l2 -16zM535 236l12 19l6 14l8 20l3 14l4 22l1 14l1 23v31l-1 16l-3 23l-4 15
l-2 7l-8 15l-15 21l-5 5l-10 11l-11 11l-12 9l-22 13l-14 6l-14 3l-14 2l-45 3h-46l-30 -2l-10 -1l-8 -3l-5 -6l-3 -12l-1 -9l-1 -15l3 -45l1 -14l2 -7l41 -1h16l45 -3l12 -1l8 -3l5 -5l2 -11l1 -8v-15l-2 -22v-15l1 -17v-17l-2 -8l-1 -11l-3 -6l-8 -4l-12 -2l-29 -2l-51 2
h-16l-8 -8l-2 -32l-1 -22l1 -16l2 -16l2 -11l3 -8l6 -5l12 -1l116 7l16 3l16 5l16 6l15 8l14 9l18 15z" />
    <glyph glyph-name="Emacron" unicode="&#x112;" horiz-adv-x="699" 
d="M498 884l2 -23l1 -11l-1 -11l-2 -12l-5 -7l-6 -4l-13 -2l-9 -1h-16l-30 2h-16l-127 2h-16l-56 -1l-49 -3h-16l-7 1l-11 2l-6 4l-4 8l-2 13l-1 8v17l1 17v16l-1 17v17l2 9l2 13l3 7l6 4h11l56 -1h16l56 4h16l71 -1l56 -2l48 3h16l8 -1l12 -2l7 -5l4 -7l1 -9l2 -10l-3 -36
v-15zM620 149l3 -55l-1 -16l-4 -54l-1 -10l-4 -7l-5 -4l-131 -4h-16l-53 4l-16 -1l-52 -4l-16 -1h-69l-52 4h-16l-86 -5l-34 2l-12 2l-7 5l-3 7l-2 11l-2 23l-1 16l1 15v15l4 53v16l1 53l-1 16l-3 53l-1 16l2 54v85l4 53l-1 16l-3 53l-1 16v24l2 30v15l3 52l1 14l3 8l5 4
l8 1l13 2l65 -4l61 1h16l60 -4h16l60 4h16l136 -2l17 1l34 3h25l14 -3l6 -5l2 -7l2 -13v-27l-2 -25v-17l1 -25l1 -15l-1 -15l-2 -12l-4 -7l-5 -4l-12 -2h-8l-16 -1l-94 2h-16l-51 -2h-16l-52 2l-45 3h-15l-8 -1l-10 -2l-5 -5l-1 -6l-2 -11l-2 -24v-16l1 -17l1 -11l2 -7l4 -5
l11 -3l32 -2l32 2h95l112 6l31 -2l11 -2l6 -5l3 -6l1 -11l2 -17l1 -17v-33l2 -23l-2 -30l-2 -12l-4 -7l-7 -5l-10 -2h-20l-45 5l-16 1l-80 -5l-64 2h-16l-40 3l-17 -1l-12 -1l-5 -3l-3 -7l-1 -15l-3 -25l-1 -16v-22l1 -10l3 -7l4 -4l11 -1l55 -2h16l54 4l71 -4h16l71 4h15
l15 -1l36 -4l6 -3l4 -6z" />
    <glyph glyph-name="emacron" unicode="&#x113;" horiz-adv-x="699" 
d="M500 884l2 -23l1 -11l-1 -11l-2 -12l-5 -7l-6 -4l-13 -2l-9 -1h-16l-30 2h-16l-127 2h-16l-56 -1l-49 -3h-16l-7 1l-11 2l-6 4l-4 8l-2 13l-1 8v17l1 17v16l-1 17v17l2 9l2 13l3 7l6 4h11l56 -1h16l56 4h16l71 -1l56 -2l48 3h16l8 -1l12 -2l7 -5l4 -7l1 -9l2 -10l-3 -36
v-15zM620 149l3 -55l-1 -16l-4 -54l-1 -10l-4 -7l-5 -4l-131 -4h-16l-53 4l-16 -1l-52 -4l-16 -1h-69l-52 4h-16l-86 -5l-34 2l-12 2l-7 5l-3 7l-2 11l-2 23l-1 16l1 15v15l4 53v16l1 53l-1 16l-3 53l-1 16l2 54v85l4 53l-1 16l-3 53l-1 16v24l2 30v15l3 52l1 14l3 8l5 4
l8 1l13 2l65 -4l61 1h16l60 -4h16l60 4h16l136 -2l17 1l34 3h25l14 -3l6 -5l2 -7l2 -13v-27l-2 -25v-17l1 -25l1 -15l-1 -15l-2 -12l-4 -7l-5 -4l-12 -2h-8l-16 -1l-94 2h-16l-51 -2h-16l-52 2l-45 3h-15l-8 -1l-10 -2l-5 -5l-1 -6l-2 -11l-2 -24v-16l1 -17l1 -11l2 -7l4 -5
l11 -3l32 -2l32 2h95l112 6l31 -2l11 -2l6 -5l3 -6l1 -11l2 -17l1 -17v-33l2 -23l-2 -30l-2 -12l-4 -7l-7 -5l-10 -2h-20l-45 5l-16 1l-80 -5l-64 2h-16l-40 3l-17 -1l-12 -1l-5 -3l-3 -7l-1 -15l-3 -25l-1 -16v-22l1 -10l3 -7l4 -4l11 -1l55 -2h16l54 4l71 -4h16l71 4h15
l15 -1l36 -4l6 -3l4 -6z" />
    <glyph glyph-name="Edotaccent" unicode="&#x116;" horiz-adv-x="699" 
d="M408 914v-15l-3 -18l-5 -15l-7 -12l-10 -12l-12 -10l-9 -6l-3 -1l-5 -3l-12 -4l-15 -4l-15 -1h-22l-14 3l-13 4l-12 6l-11 8l-11 10l-11 12l-8 14l-5 15l-2 15v15l2 14l4 13l7 13l11 15l13 12l14 10l15 7l7 2l15 4h7l16 1l15 -3l7 -1l13 -4l7 -3l12 -6l6 -5l11 -9l9 -12
l6 -14l3 -6l3 -14zM620 149l3 -55l-1 -16l-4 -54l-1 -10l-4 -7l-5 -4l-131 -4h-16l-53 4l-16 -1l-52 -4l-16 -1h-69l-52 4h-16l-86 -5l-34 2l-12 2l-7 5l-3 7l-2 11l-2 23l-1 16l1 15v15l4 53v16l1 53l-1 16l-3 53l-1 16l2 54v85l4 53l-1 16l-3 53l-1 16v24l2 30v15l3 52
l1 14l3 8l5 4l8 1l13 2l65 -4l61 1h16l60 -4h16l60 4h16l136 -2l17 1l34 3h25l14 -3l6 -5l2 -7l2 -13v-27l-2 -25v-17l1 -25l1 -15l-1 -15l-2 -12l-4 -7l-5 -4l-12 -2h-8l-16 -1l-94 2h-16l-51 -2h-16l-52 2l-45 3h-15l-8 -1l-10 -2l-5 -5l-1 -6l-2 -11l-2 -24v-16l1 -17
l1 -11l2 -7l4 -5l11 -3l32 -2l32 2h95l112 6l31 -2l11 -2l6 -5l3 -6l1 -11l2 -17l1 -17v-33l2 -23l-2 -30l-2 -12l-4 -7l-7 -5l-10 -2h-20l-45 5l-16 1l-80 -5l-64 2h-16l-40 3l-17 -1l-12 -1l-5 -3l-3 -7l-1 -15l-3 -25l-1 -16v-22l1 -10l3 -7l4 -4l11 -1l55 -2h16l54 4
l71 -4h16l71 4h15l15 -1l36 -4l6 -3l4 -6z" />
    <glyph glyph-name="edotaccent" unicode="&#x117;" horiz-adv-x="699" 
d="M410 914v-15l-3 -18l-5 -15l-7 -12l-10 -12l-12 -10l-9 -6l-3 -1l-5 -3l-12 -4l-15 -4l-15 -1h-22l-14 3l-13 4l-12 6l-11 8l-11 10l-11 12l-8 14l-5 15l-2 15v15l2 14l4 13l7 13l11 15l13 12l14 10l15 7l7 2l15 4h7l16 1l15 -3l7 -1l13 -4l7 -3l12 -6l6 -5l11 -9l9 -12
l6 -14l3 -6l3 -14zM620 149l3 -55l-1 -16l-4 -54l-1 -10l-4 -7l-5 -4l-131 -4h-16l-53 4l-16 -1l-52 -4l-16 -1h-69l-52 4h-16l-86 -5l-34 2l-12 2l-7 5l-3 7l-2 11l-2 23l-1 16l1 15v15l4 53v16l1 53l-1 16l-3 53l-1 16l2 54v85l4 53l-1 16l-3 53l-1 16v24l2 30v15l3 52
l1 14l3 8l5 4l8 1l13 2l65 -4l61 1h16l60 -4h16l60 4h16l136 -2l17 1l34 3h25l14 -3l6 -5l2 -7l2 -13v-27l-2 -25v-17l1 -25l1 -15l-1 -15l-2 -12l-4 -7l-5 -4l-12 -2h-8l-16 -1l-94 2h-16l-51 -2h-16l-52 2l-45 3h-15l-8 -1l-10 -2l-5 -5l-1 -6l-2 -11l-2 -24v-16l1 -17
l1 -11l2 -7l4 -5l11 -3l32 -2l32 2h95l112 6l31 -2l11 -2l6 -5l3 -6l1 -11l2 -17l1 -17v-33l2 -23l-2 -30l-2 -12l-4 -7l-7 -5l-10 -2h-20l-45 5l-16 1l-80 -5l-64 2h-16l-40 3l-17 -1l-12 -1l-5 -3l-3 -7l-1 -15l-3 -25l-1 -16v-22l1 -10l3 -7l4 -4l11 -1l55 -2h16l54 4
l71 -4h16l71 4h15l15 -1l36 -4l6 -3l4 -6z" />
    <glyph glyph-name="Eogonek" unicode="&#x118;" horiz-adv-x="699" 
d="M626 -185l1 -10l-1 -5l-7 -5l-9 -5l-11 -5l-14 -5l-6 -3l-14 -4l-6 -1l-14 -4l-15 -3l-15 -2l-23 -1l-15 -1l-17 1l-17 2l-16 3l-17 5l-18 7l-24 15l-12 12l-9 13l-4 6l-7 15l-2 9l-4 15l-1 15v7l2 14l1 8l6 15l7 14l3 7l22 26l11 11l11 9l12 9l6 4h-2l-16 -1l-52 -4
l-16 -1h-69l-52 4h-16l-86 -5l-34 2l-12 2l-7 5l-3 7l-2 11l-2 23l-1 16l1 15v15l4 53v16l1 53l-1 16l-3 53l-1 16l2 54v85l4 53l-1 16l-3 53l-1 16v24l2 30v15l3 52l1 14l3 8l5 4l8 1l13 2l65 -4l61 1h16l60 -4h16l60 4h16l136 -2l17 1l34 3h25l14 -3l6 -5l2 -7l2 -13v-27
l-2 -25v-17l1 -25l1 -15l-1 -15l-2 -12l-4 -7l-5 -4l-12 -2h-8l-16 -1l-94 2h-16l-51 -2h-16l-52 2l-45 3h-15l-8 -1l-10 -2l-5 -5l-1 -6l-2 -11l-2 -24v-16l1 -17l1 -11l2 -7l4 -5l11 -3l32 -2l32 2h95l112 6l31 -2l11 -2l6 -5l3 -6l1 -11l2 -17l1 -17v-33l2 -23l-2 -30
l-2 -12l-4 -7l-7 -5l-10 -2h-20l-45 5l-16 1l-80 -5l-64 2h-16l-40 3l-17 -1l-12 -1l-5 -3l-3 -7l-1 -15l-3 -25l-1 -16v-22l1 -10l3 -7l4 -4l11 -1l55 -2h16l54 4l71 -4h16l71 4h15l15 -1l36 -4l6 -3l4 -6l1 -11l3 -55l-1 -16l-4 -54l-1 -10l-4 -7l-8 -5h-3l-1 -2l-9 -2
l-17 -4l-24 -7l-16 -5l-9 -2l-16 -8l-15 -9l-9 -9l-5 -11l-2 -7l2 -15l7 -13l14 -11l18 -6l16 -2h14l23 4l12 3l5 -1l4 -3l3 -5l6 -11l11 -22l7 -16l3 -15z" />
    <glyph glyph-name="eogonek" unicode="&#x119;" horiz-adv-x="699" 
d="M626 -185l1 -10l-1 -5l-7 -5l-9 -5l-11 -5l-14 -5l-6 -3l-14 -4l-6 -1l-14 -4l-15 -3l-15 -2l-23 -1l-15 -1l-17 1l-17 2l-16 3l-17 5l-18 7l-24 15l-12 12l-9 13l-4 6l-7 15l-2 9l-4 15l-1 15v7l2 14l1 8l6 15l7 14l3 7l22 26l11 11l11 9l12 9l6 4h-2l-16 -1l-52 -4
l-16 -1h-69l-52 4h-16l-86 -5l-34 2l-12 2l-7 5l-3 7l-2 11l-2 23l-1 16l1 15v15l4 53v16l1 53l-1 16l-3 53l-1 16l2 54v85l4 53l-1 16l-3 53l-1 16v24l2 30v15l3 52l1 14l3 8l5 4l8 1l13 2l65 -4l61 1h16l60 -4h16l60 4h16l136 -2l17 1l34 3h25l14 -3l6 -5l2 -7l2 -13v-27
l-2 -25v-17l1 -25l1 -15l-1 -15l-2 -12l-4 -7l-5 -4l-12 -2h-8l-16 -1l-94 2h-16l-51 -2h-16l-52 2l-45 3h-15l-8 -1l-10 -2l-5 -5l-1 -6l-2 -11l-2 -24v-16l1 -17l1 -11l2 -7l4 -5l11 -3l32 -2l32 2h95l112 6l31 -2l11 -2l6 -5l3 -6l1 -11l2 -17l1 -17v-33l2 -23l-2 -30
l-2 -12l-4 -7l-7 -5l-10 -2h-20l-45 5l-16 1l-80 -5l-64 2h-16l-40 3l-17 -1l-12 -1l-5 -3l-3 -7l-1 -15l-3 -25l-1 -16v-22l1 -10l3 -7l4 -4l11 -1l55 -2h16l54 4l71 -4h16l71 4h15l15 -1l36 -4l6 -3l4 -6l1 -11l3 -55l-1 -16l-4 -54l-1 -10l-4 -7l-8 -5h-3l-1 -2l-9 -2
l-17 -4l-24 -7l-16 -5l-9 -2l-16 -8l-15 -9l-9 -9l-5 -11l-2 -7l2 -15l7 -13l14 -11l18 -6l16 -2h14l23 4l12 3l5 -1l4 -3l3 -5l6 -11l11 -22l7 -16l3 -15z" />
    <glyph glyph-name="Ecaron" unicode="&#x11a;" horiz-adv-x="699" 
d="M524 982v-7l-5 -9l-5 -5l-10 -11l-29 -22l-12 -11l-39 -40l-12 -12l-40 -39l-8 -7l-10 -2l-43 2h-70l-8 4l-16 16l-23 26l-51 51l-12 11l-28 24l-11 13l-7 11l-1 7l4 5l10 2l9 2l16 1l37 -3h77l10 -2l7 -7l38 -33l8 -5h4l46 40l8 6l6 1l66 -1h16l37 3l16 -1h9l11 -2z
M620 149l3 -55l-1 -16l-4 -54l-1 -10l-4 -7l-5 -4l-131 -4h-16l-53 4l-16 -1l-52 -4l-16 -1h-69l-52 4h-16l-86 -5l-34 2l-12 2l-7 5l-3 7l-2 11l-2 23l-1 16l1 15v15l4 53v16l1 53l-1 16l-3 53l-1 16l2 54v85l4 53l-1 16l-3 53l-1 16v24l2 30v15l3 52l1 14l3 8l5 4l8 1
l13 2l65 -4l61 1h16l60 -4h16l60 4h16l136 -2l17 1l34 3h25l14 -3l6 -5l2 -7l2 -13v-27l-2 -25v-17l1 -25l1 -15l-1 -15l-2 -12l-4 -7l-5 -4l-12 -2h-8l-16 -1l-94 2h-16l-51 -2h-16l-52 2l-45 3h-15l-8 -1l-10 -2l-5 -5l-1 -6l-2 -11l-2 -24v-16l1 -17l1 -11l2 -7l4 -5
l11 -3l32 -2l32 2h95l112 6l31 -2l11 -2l6 -5l3 -6l1 -11l2 -17l1 -17v-33l2 -23l-2 -30l-2 -12l-4 -7l-7 -5l-10 -2h-20l-45 5l-16 1l-80 -5l-64 2h-16l-40 3l-17 -1l-12 -1l-5 -3l-3 -7l-1 -15l-3 -25l-1 -16v-22l1 -10l3 -7l4 -4l11 -1l55 -2h16l54 4l71 -4h16l71 4h15
l15 -1l36 -4l6 -3l4 -6z" />
    <glyph glyph-name="ecaron" unicode="&#x11b;" horiz-adv-x="699" 
d="M526 982v-7l-5 -9l-5 -5l-10 -11l-29 -22l-12 -11l-39 -40l-12 -12l-40 -39l-8 -7l-10 -2l-43 2h-70l-8 4l-16 16l-23 26l-51 51l-12 11l-28 24l-11 13l-7 11l-1 7l4 5l10 2l9 2l16 1l37 -3h77l10 -2l7 -7l38 -33l8 -5h4l46 40l8 6l6 1l66 -1h16l37 3l16 -1h9l11 -2z
M620 149l3 -55l-1 -16l-4 -54l-1 -10l-4 -7l-5 -4l-131 -4h-16l-53 4l-16 -1l-52 -4l-16 -1h-69l-52 4h-16l-86 -5l-34 2l-12 2l-7 5l-3 7l-2 11l-2 23l-1 16l1 15v15l4 53v16l1 53l-1 16l-3 53l-1 16l2 54v85l4 53l-1 16l-3 53l-1 16v24l2 30v15l3 52l1 14l3 8l5 4l8 1
l13 2l65 -4l61 1h16l60 -4h16l60 4h16l136 -2l17 1l34 3h25l14 -3l6 -5l2 -7l2 -13v-27l-2 -25v-17l1 -25l1 -15l-1 -15l-2 -12l-4 -7l-5 -4l-12 -2h-8l-16 -1l-94 2h-16l-51 -2h-16l-52 2l-45 3h-15l-8 -1l-10 -2l-5 -5l-1 -6l-2 -11l-2 -24v-16l1 -17l1 -11l2 -7l4 -5
l11 -3l32 -2l32 2h95l112 6l31 -2l11 -2l6 -5l3 -6l1 -11l2 -17l1 -17v-33l2 -23l-2 -30l-2 -12l-4 -7l-7 -5l-10 -2h-20l-45 5l-16 1l-80 -5l-64 2h-16l-40 3l-17 -1l-12 -1l-5 -3l-3 -7l-1 -15l-3 -25l-1 -16v-22l1 -10l3 -7l4 -4l11 -1l55 -2h16l54 4l71 -4h16l71 4h15
l15 -1l36 -4l6 -3l4 -6z" />
    <glyph glyph-name="Gbreve" unicode="&#x11e;" horiz-adv-x="800" 
d="M560 983l2 -12l-2 -17l-2 -8l-3 -14l-5 -14l-6 -15l-9 -16l-6 -7l-11 -13l-7 -6l-13 -11l-14 -11l-8 -5l-15 -8l-9 -4l-17 -5l-19 -4h-8l-17 -1l-9 -1h-16l-7 1l-16 1h-9l-16 3l-7 1l-17 6l-16 7l-8 4l-14 9l-7 6l-12 10l-5 4l-11 12l-15 21l-3 7l-7 15l-3 9l-6 24l-1 15
l-1 8l1 9l4 2l6 2h10l6 1h15l22 -2h16l26 2h16l11 -1h6l5 -4l2 -7l2 -9l4 -8l10 -10l7 -3l7 -2l8 -1h13l12 4l8 5l6 7l4 8l2 6l1 5l2 5l5 3l9 1l42 1h15l61 -2h6zM721 418l1 -8l1 -17l-4 -65v-94l-2 -42v-59l-1 -11l-6 -10l-8 -13l-9 -13l-17 -17l-12 -11l-6 -6l-13 -9
l-7 -4l-13 -8l-20 -10l-15 -6l-14 -5l-23 -7l-15 -4l-16 -3l-15 -3l-23 -3l-14 -2l-15 -3l-40 -5l-15 -1l-31 2l-23 2l-16 2l-16 3l-15 4l-35 10l-15 4l-15 5l-20 7l-13 7l-20 11l-12 9l-13 9l-12 10l-12 9l-11 10l-16 16l-10 12l-11 15l-9 14l-25 45l-7 16l-7 15l-5 16
l-5 17l-3 16l-3 17l-2 16l-4 22l-2 16l-1 15v15l3 45l2 8l3 17l4 17l5 16l5 17l5 16l5 15l7 16l7 17l7 14l13 18l9 12l11 13l11 12l12 11l26 22l13 10l12 9l12 8l33 19l15 9l17 7l17 5l16 4l37 6l29 4l15 3l15 2l23 2l16 1l22 -2l15 -1l23 -3l14 -3l22 -4l15 -4l22 -7l15 -5
l36 -18l15 -9l13 -9l5 -3l11 -7l11 -8l5 -5l11 -8l6 -5l6 -7v-7l-3 -7l-6 -9l-9 -13l-10 -11l-28 -28l-18 -16l-12 -10l-11 -8l-8 -6l-6 -4l-8 -1l-11 7l-13 9l-13 8l-14 8l-16 7l-16 6l-17 4l-17 3l-47 3h-7l-16 -1l-26 -2l-16 -4l-30 -14l-13 -9l-13 -10l-11 -11l-10 -13
l-9 -13l-8 -14l-6 -15l-5 -16l-4 -15l-6 -30l-3 -16l-1 -17v-17l2 -24l3 -16l5 -23l5 -16l10 -24l7 -14l12 -18l10 -12l18 -17l13 -10l20 -11l15 -6l30 -7l17 -2l17 -1h16l16 2l15 3l54 13l16 6l15 7l10 7l3 6v11l1 9v15l-2 30v17l-4 6l-11 2h-24l-16 -1l-23 -3l-16 -1h-23
l-16 1l-34 6l-6 2l-4 5l-2 12l-1 8l-1 16l1 25l-2 30l-2 15v21l3 11l5 5l12 2l25 3l17 1h46l65 3l80 -5h16l41 5l16 1l8 -1l15 -3l7 -4l2 -6z" />
    </font>
</defs>
</svg>
